<svg width="500" height="500" viewBox="0 0 500 500" fill="none" xmlns="http://www.w3.org/2000/svg">
<path d="M437.397 314.93C437.397 314.93 488.493 257.515 472.248 157.598C456.002 57.681 372.579 20.875 317.219 40.111C261.859 59.347 249.406 92.806 204.188 111.954C158.97 131.102 73.125 117.942 30.179 182.236C-12.766 246.529 42.055 353.064 111.847 419.865C181.639 486.665 359.8 444.836 437.397 314.93Z" fill="#FFDF20"/>
<path opacity="0.7" d="M437.397 314.93C437.397 314.93 488.493 257.515 472.248 157.598C456.002 57.681 372.579 20.875 317.219 40.111C261.859 59.347 249.406 92.806 204.188 111.954C158.97 131.102 73.125 117.942 30.179 182.236C-12.766 246.529 42.055 353.064 111.847 419.865C181.639 486.665 359.8 444.836 437.397 314.93Z" fill="white"/>
<path opacity="0.5" d="M459.131 138H138.042V352.408H459.131V138Z" stroke="black" stroke-miterlimit="10" stroke-linecap="round" stroke-linejoin="round"/>
<path opacity="0.5" d="M454.824 140.876H142.35V349.531H454.824V140.876Z" stroke="black" stroke-miterlimit="10" stroke-linecap="round" stroke-linejoin="round"/>
<path opacity="0.3" d="M180.177 172.13C180.177 172.13 183.597 190.597 183.597 196.069C183.597 201.541 183.597 215.22 183.597 215.22C183.597 215.22 197.277 215.904 208.22 215.22C219.164 214.536 232.159 207.696 232.159 207.696C232.159 207.696 227.371 189.229 227.371 184.441C227.371 179.653 224.635 168.026 224.635 168.026L180.177 172.13Z" fill="white" stroke="black" stroke-miterlimit="10" stroke-linecap="round" stroke-linejoin="round"/>
<path opacity="0.3" d="M181.545 287.038C181.545 287.038 179.493 302.769 179.493 309.609C179.493 316.449 176.073 327.392 176.073 327.392C176.073 327.392 192.488 333.548 196.592 333.548C200.696 333.548 218.479 332.18 218.479 332.18L221.215 291.825C221.215 291.825 187.016 288.406 181.545 287.038Z" fill="white" stroke="black" stroke-miterlimit="10" stroke-linecap="round" stroke-linejoin="round"/>
<path opacity="0.3" d="M257.466 202.225L265.674 239.844C265.674 239.844 275.934 240.528 286.877 240.528C297.821 240.528 316.288 230.268 316.288 230.268C316.288 230.268 307.396 212.485 307.396 207.697C307.396 202.909 304.66 189.23 304.66 189.23C304.66 189.23 276.617 198.122 272.513 198.806C268.41 199.489 257.466 202.225 257.466 202.225Z" fill="white" stroke="black" stroke-miterlimit="10" stroke-linecap="round" stroke-linejoin="round"/>
<path opacity="0.3" d="M319.024 191.965C319.024 191.965 316.972 216.588 316.972 219.324C316.972 222.06 316.288 233.004 316.288 233.004C316.288 233.004 329.967 235.056 337.491 235.056C345.015 235.056 358.01 234.372 358.01 234.372C358.01 234.372 357.326 210.433 358.694 208.381C360.062 206.329 360.746 195.386 360.746 195.386C360.746 195.386 321.76 192.649 319.024 191.965Z" fill="white" stroke="black" stroke-miterlimit="10" stroke-linecap="round" stroke-linejoin="round"/>
<path opacity="0.3" d="M334.071 246.683C334.071 246.683 334.071 260.363 334.071 263.098C334.071 265.834 332.703 285.669 332.703 285.669C332.703 285.669 350.486 286.353 357.326 285.669C364.166 284.985 377.845 280.881 377.845 280.881L375.793 258.994L374.425 243.946C374.425 243.946 341.595 248.735 334.071 246.683Z" fill="white" stroke="black" stroke-miterlimit="10" stroke-linecap="round" stroke-linejoin="round"/>
<path opacity="0.3" d="M437.352 154.346L421.621 155.03H413.413C413.413 155.03 413.413 163.238 413.413 166.658C413.413 170.078 412.729 181.022 412.729 183.073C412.729 185.125 423.672 186.493 428.46 186.493C433.248 186.493 445.559 186.493 445.559 186.493L446.243 152.978L437.352 154.346Z" fill="white" stroke="black" stroke-miterlimit="10" stroke-linecap="round" stroke-linejoin="round"/>
<g opacity="0.5">
<path d="M397.681 228.216H427.092" stroke="black" stroke-miterlimit="10" stroke-linecap="round" stroke-linejoin="round"/>
<path d="M397.681 235.056H427.092" stroke="black" stroke-miterlimit="10" stroke-linecap="round" stroke-linejoin="round"/>
<path d="M397.681 241.895H427.092" stroke="black" stroke-miterlimit="10" stroke-linecap="round" stroke-linejoin="round"/>
<path d="M397.681 248.735H427.092" stroke="black" stroke-miterlimit="10" stroke-linecap="round" stroke-linejoin="round"/>
</g>
<g opacity="0.5">
<path d="M245.838 150.243H342.963" stroke="black" stroke-miterlimit="10" stroke-linecap="round" stroke-linejoin="round"/>
<path d="M245.838 157.082H342.963" stroke="black" stroke-miterlimit="10" stroke-linecap="round" stroke-linejoin="round"/>
</g>
<g opacity="0.5">
<path d="M345.015 299.35H374.426" stroke="black" stroke-miterlimit="10" stroke-linecap="round" stroke-linejoin="round"/>
<path d="M345.015 306.189H374.426" stroke="black" stroke-miterlimit="10" stroke-linecap="round" stroke-linejoin="round"/>
<path d="M345.015 313.029H374.426" stroke="black" stroke-miterlimit="10" stroke-linecap="round" stroke-linejoin="round"/>
<path d="M345.015 319.869H374.426" stroke="black" stroke-miterlimit="10" stroke-linecap="round" stroke-linejoin="round"/>
</g>
<g opacity="0.5">
<path d="M162.393 254.207H191.804" stroke="black" stroke-miterlimit="10" stroke-linecap="round" stroke-linejoin="round"/>
<path d="M162.393 261.047H191.804" stroke="black" stroke-miterlimit="10" stroke-linecap="round" stroke-linejoin="round"/>
<path d="M162.393 267.887H191.804" stroke="black" stroke-miterlimit="10" stroke-linecap="round" stroke-linejoin="round"/>
<path d="M162.393 274.726H191.804" stroke="black" stroke-miterlimit="10" stroke-linecap="round" stroke-linejoin="round"/>
</g>
<g opacity="0.5">
<path d="M369.638 168.026H399.049" stroke="black" stroke-miterlimit="10" stroke-linecap="round" stroke-linejoin="round"/>
<path d="M369.638 174.866H399.049" stroke="black" stroke-miterlimit="10" stroke-linecap="round" stroke-linejoin="round"/>
<path d="M369.638 181.706H399.049" stroke="black" stroke-miterlimit="10" stroke-linecap="round" stroke-linejoin="round"/>
<path d="M369.638 188.545H399.049" stroke="black" stroke-miterlimit="10" stroke-linecap="round" stroke-linejoin="round"/>
</g>
<path opacity="0.5" d="M261.946 233.341L245.087 238.158L249.426 241.919C241.537 247.109 224.833 256.004 213.899 246.973C199.241 234.865 203.186 224.395 203.361 223.955L202.063 223.429L200.768 222.896C200.556 223.41 195.775 235.634 212.115 249.132C216.124 252.444 220.7 253.704 225.346 253.704C235.552 253.703 246.082 247.622 251.643 243.841L257.128 248.594L261.946 233.341Z" fill="black"/>
<path opacity="0.5" d="M432.214 204.552L427.342 188.313L418.411 201.304L423.367 202.47L418.218 221.001L420.917 221.751L426.095 203.113L432.214 204.552Z" fill="black"/>
<path opacity="0.3" d="M208.22 174.182C208.22 171.916 206.383 170.078 204.116 170.078C201.85 170.078 200.012 171.915 200.012 174.182C200.012 176.449 201.849 178.286 204.116 178.286C206.382 178.286 208.22 176.448 208.22 174.182Z" fill="white" stroke="black" stroke-miterlimit="10" stroke-linecap="round" stroke-linejoin="round"/>
<path opacity="0.3" d="M283.457 200.173C283.457 197.906 281.62 196.069 279.353 196.069C277.087 196.069 275.249 197.906 275.249 200.173C275.249 202.439 277.086 204.277 279.353 204.277C281.62 204.277 283.457 202.439 283.457 200.173Z" fill="#FFDF20" stroke="black" stroke-miterlimit="10" stroke-linecap="round" stroke-linejoin="round"/>
<path opacity="0.3" d="M341.595 198.121C343.862 198.121 345.699 196.284 345.699 194.017C345.699 191.75 343.862 189.913 341.595 189.913C339.328 189.913 337.491 191.75 337.491 194.017C337.491 196.284 339.328 198.121 341.595 198.121Z" fill="white" stroke="black" stroke-miterlimit="10" stroke-linecap="round" stroke-linejoin="round"/>
<path opacity="0.3" d="M359.378 250.787C359.378 248.521 357.541 246.683 355.274 246.683C353.007 246.683 351.17 248.52 351.17 250.787C351.17 253.054 353.007 254.891 355.274 254.891C357.541 254.891 359.378 253.054 359.378 250.787Z" fill="white" stroke="black" stroke-miterlimit="10" stroke-linecap="round" stroke-linejoin="round"/>
<path opacity="0.3" d="M208.22 294.562C208.22 292.295 206.383 290.458 204.116 290.458C201.85 290.458 200.012 292.295 200.012 294.562C200.012 296.828 201.849 298.666 204.116 298.666C206.382 298.665 208.22 296.828 208.22 294.562Z" fill="#FFDF20" stroke="black" stroke-miterlimit="10" stroke-linecap="round" stroke-linejoin="round"/>
<path opacity="0.3" d="M429.828 158.45C432.095 158.45 433.932 156.613 433.932 154.346C433.932 152.079 432.095 150.242 429.828 150.242C427.561 150.242 425.724 152.079 425.724 154.346C425.724 156.613 427.561 158.45 429.828 158.45Z" fill="#FFDF20" stroke="black" stroke-miterlimit="10" stroke-linecap="round" stroke-linejoin="round"/>
<path d="M470 336H327.164V440.531H470V336Z" fill="#263238" stroke="#263238" stroke-miterlimit="10" stroke-linecap="round" stroke-linejoin="round"/>
<path opacity="0.25" d="M463.111 341.042H334.054V435.489H463.111V341.042Z" fill="white" stroke="#263238" stroke-miterlimit="10" stroke-linecap="round" stroke-linejoin="round"/>
<path d="M412.542 436.505H386.924V456.999H412.542V436.505Z" fill="#263238" stroke="#263238" stroke-miterlimit="10" stroke-linecap="round" stroke-linejoin="round"/>
<path d="M337.883 355.259H458.655" stroke="white" stroke-miterlimit="10" stroke-linecap="round" stroke-linejoin="round"/>
<path d="M339.347 377.95H368.184" stroke="white" stroke-miterlimit="10" stroke-linecap="round" stroke-linejoin="round"/>
<path d="M357.373 386.001H373.749" stroke="white" stroke-miterlimit="10" stroke-linecap="round" stroke-linejoin="round"/>
<path d="M339.347 386.001H355.079" stroke="white" stroke-miterlimit="10" stroke-linecap="round" stroke-linejoin="round"/>
<path d="M366.218 394.052H394.065" stroke="white" stroke-miterlimit="10" stroke-linecap="round" stroke-linejoin="round"/>
<path d="M339.347 394.052H362.614" stroke="white" stroke-miterlimit="10" stroke-linecap="round" stroke-linejoin="round"/>
<path d="M339.347 402.104H356.062" stroke="white" stroke-miterlimit="10" stroke-linecap="round" stroke-linejoin="round"/>
<path d="M355.407 410.155H373.749" stroke="white" stroke-miterlimit="10" stroke-linecap="round" stroke-linejoin="round"/>
<path d="M339.347 410.155H350.82" stroke="white" stroke-miterlimit="10" stroke-linecap="round" stroke-linejoin="round"/>
<path d="M402.583 418.207H410.773" stroke="white" stroke-miterlimit="10" stroke-linecap="round" stroke-linejoin="round"/>
<path d="M351.476 418.207H397.669" stroke="white" stroke-miterlimit="10" stroke-linecap="round" stroke-linejoin="round"/>
<path d="M339.347 418.207H347.872" stroke="white" stroke-miterlimit="10" stroke-linecap="round" stroke-linejoin="round"/>
<path d="M46.219 301.392L62.447 456.895" stroke="#263238" stroke-miterlimit="10" stroke-linecap="round" stroke-linejoin="round"/>
<path d="M62.118 454.028L53.8521 445.337" stroke="#263238" stroke-miterlimit="10" stroke-linecap="round" stroke-linejoin="round"/>
<path d="M56.579 448.178C56.579 448.178 56.836 443.984 53.006 440.563C50.702 438.505 38.575 433.404 37.425 437.675C36.173 442.32 48.585 451.443 56.579 448.178Z" fill="#FFDF20" stroke="#263238" stroke-miterlimit="10" stroke-linecap="round" stroke-linejoin="round"/>
<path d="M56.579 448.178L45.035 440.984" stroke="#263238" stroke-miterlimit="10" stroke-linecap="round" stroke-linejoin="round"/>
<path d="M56.508 400.015L48.356 392.681" stroke="#263238" stroke-miterlimit="10" stroke-linecap="round" stroke-linejoin="round"/>
<path d="M51.084 395.522C51.084 395.522 51.341 391.328 47.511 387.908C45.207 385.85 33.08 380.749 31.93 385.019C30.678 389.664 43.09 398.787 51.084 395.522Z" fill="#FFDF20" stroke="#263238" stroke-miterlimit="10" stroke-linecap="round" stroke-linejoin="round"/>
<path d="M51.084 395.522L39.539 388.328" stroke="#263238" stroke-miterlimit="10" stroke-linecap="round" stroke-linejoin="round"/>
<path d="M58.781 422.961L50.608 414.26" stroke="#263238" stroke-miterlimit="10" stroke-linecap="round" stroke-linejoin="round"/>
<path d="M53.336 417.101C53.336 417.101 53.593 412.907 49.763 409.487C47.459 407.429 35.332 402.328 34.182 406.599C32.93 411.243 45.342 420.366 53.336 417.101Z" fill="#FFDF20" stroke="#263238" stroke-miterlimit="10" stroke-linecap="round" stroke-linejoin="round"/>
<path d="M53.336 417.101L41.791 409.906" stroke="#263238" stroke-miterlimit="10" stroke-linecap="round" stroke-linejoin="round"/>
<path d="M52.875 365.963L44.698 357.628" stroke="#263238" stroke-miterlimit="10" stroke-linecap="round" stroke-linejoin="round"/>
<path d="M47.425 360.469C47.425 360.469 47.682 356.275 43.852 352.855C41.548 350.797 29.421 345.696 28.27 349.967C27.02 354.611 39.432 363.734 47.425 360.469Z" fill="#FFDF20" stroke="#263238" stroke-miterlimit="10" stroke-linecap="round" stroke-linejoin="round"/>
<path d="M47.425 360.469L35.881 353.275" stroke="#263238" stroke-miterlimit="10" stroke-linecap="round" stroke-linejoin="round"/>
<path d="M48.939 328.478L41.024 322.422" stroke="#263238" stroke-miterlimit="10" stroke-linecap="round" stroke-linejoin="round"/>
<path d="M43.751 325.263C43.751 325.263 44.008 321.069 40.178 317.649C37.874 315.591 25.747 310.49 24.597 314.761C23.346 319.406 35.758 328.528 43.751 325.263Z" fill="#FFDF20" stroke="#263238" stroke-miterlimit="10" stroke-linecap="round" stroke-linejoin="round"/>
<path d="M43.751 325.263L32.207 318.069" stroke="#263238" stroke-miterlimit="10" stroke-linecap="round" stroke-linejoin="round"/>
<path d="M61.32 442.051L68.146 430.92" stroke="#263238" stroke-miterlimit="10" stroke-linecap="round" stroke-linejoin="round"/>
<path d="M66.063 434.263C66.063 434.263 64.946 430.212 67.987 426.075C69.816 423.586 80.628 416.091 82.636 420.031C84.82 424.318 74.559 435.807 66.063 434.263Z" fill="#FFDF20" stroke="#263238" stroke-miterlimit="10" stroke-linecap="round" stroke-linejoin="round"/>
<path d="M66.063 434.263L74.185 426.641" stroke="#263238" stroke-miterlimit="10" stroke-linecap="round" stroke-linejoin="round"/>
<path d="M55.394 385.266L62.219 374.136" stroke="#263238" stroke-miterlimit="10" stroke-linecap="round" stroke-linejoin="round"/>
<path d="M60.137 377.479C60.137 377.479 59.02 373.428 62.061 369.291C63.891 366.801 72.349 360.567 74.357 364.508C76.54 368.795 68.633 379.023 60.137 377.479Z" fill="#FFDF20" stroke="#263238" stroke-miterlimit="10" stroke-linecap="round" stroke-linejoin="round"/>
<path d="M60.137 377.479L70.533 367.543" stroke="#263238" stroke-miterlimit="10" stroke-linecap="round" stroke-linejoin="round"/>
<path d="M52.789 360.312L59.615 349.181" stroke="#263238" stroke-miterlimit="10" stroke-linecap="round" stroke-linejoin="round"/>
<path d="M57.533 352.524C57.533 352.524 56.416 348.473 59.457 344.336C61.286 341.847 72.098 334.351 74.106 338.293C76.29 342.579 66.029 354.068 57.533 352.524Z" fill="#FFDF20" stroke="#263238" stroke-miterlimit="10" stroke-linecap="round" stroke-linejoin="round"/>
<path d="M57.533 352.524L67.928 342.588" stroke="#263238" stroke-miterlimit="10" stroke-linecap="round" stroke-linejoin="round"/>
<path d="M48.971 323.728L55.797 312.598" stroke="#263238" stroke-miterlimit="10" stroke-linecap="round" stroke-linejoin="round"/>
<path d="M53.715 315.941C53.715 315.941 52.598 311.89 55.639 307.753C57.469 305.264 68.28 297.769 70.288 301.71C72.471 305.996 62.211 317.485 53.715 315.941Z" fill="#FFDF20" stroke="#263238" stroke-miterlimit="10" stroke-linecap="round" stroke-linejoin="round"/>
<path d="M53.715 315.941L64.11 306.005" stroke="#263238" stroke-miterlimit="10" stroke-linecap="round" stroke-linejoin="round"/>
<path d="M46.052 300.338C46.052 300.338 44.935 296.287 47.976 292.15C49.805 289.661 60.617 282.165 62.625 286.107C64.809 290.393 54.548 301.882 46.052 300.338Z" fill="#FFDF20" stroke="#263238" stroke-miterlimit="10" stroke-linecap="round" stroke-linejoin="round"/>
<path d="M46.052 300.338L56.447 290.402" stroke="#263238" stroke-miterlimit="10" stroke-linecap="round" stroke-linejoin="round"/>
<path d="M46.654 300.767C46.654 300.767 42.509 301.453 38.713 297.995C36.429 295.914 30.109 284.376 34.239 282.793C38.731 281.071 49.081 292.48 46.654 300.767Z" fill="#FFDF20" stroke="#263238" stroke-miterlimit="10" stroke-linecap="round" stroke-linejoin="round"/>
<path d="M46.654 300.767L37.863 289.387" stroke="#263238" stroke-miterlimit="10" stroke-linecap="round" stroke-linejoin="round"/>
<path d="M75.882 250.256V457.304" stroke="#263238" stroke-miterlimit="10" stroke-linecap="round" stroke-linejoin="round"/>
<path d="M98.445 327.522L84.872 456.652" stroke="#263238" stroke-miterlimit="10" stroke-linecap="round" stroke-linejoin="round"/>
<path d="M88.478 424.331L81.717 418.682" stroke="#263238" stroke-miterlimit="10" stroke-linecap="round" stroke-linejoin="round"/>
<path d="M83.825 420.637C83.825 420.637 84.94 416.586 81.897 412.45C80.066 409.962 69.25 402.473 67.244 406.415C65.063 410.703 75.33 422.186 83.825 420.637Z" fill="#FFDF20" stroke="#263238" stroke-miterlimit="10" stroke-linecap="round" stroke-linejoin="round"/>
<path d="M83.825 420.637L74.009 411.22" stroke="#263238" stroke-miterlimit="10" stroke-linecap="round" stroke-linejoin="round"/>
<path d="M85.96 448.173L79.501 438.875" stroke="#263238" stroke-miterlimit="10" stroke-linecap="round" stroke-linejoin="round"/>
<path d="M81.586 442.217C81.586 442.217 82.701 438.166 79.657 434.03C77.826 431.542 67.01 424.053 65.004 427.995C62.823 432.283 73.091 443.766 81.586 442.217Z" fill="#FFDF20" stroke="#263238" stroke-miterlimit="10" stroke-linecap="round" stroke-linejoin="round"/>
<path d="M81.586 442.217L71.77 432.8" stroke="#263238" stroke-miterlimit="10" stroke-linecap="round" stroke-linejoin="round"/>
<path d="M91.9011 389.755L85.3781 382.24" stroke="#263238" stroke-miterlimit="10" stroke-linecap="round" stroke-linejoin="round"/>
<path d="M87.462 385.582C87.462 385.582 88.577 381.531 85.533 377.395C83.702 374.907 72.886 367.418 70.88 371.36C68.7 375.648 78.967 387.131 87.462 385.582Z" fill="#FFDF20" stroke="#263238" stroke-miterlimit="10" stroke-linecap="round" stroke-linejoin="round"/>
<path d="M87.462 385.582L77.646 376.165" stroke="#263238" stroke-miterlimit="10" stroke-linecap="round" stroke-linejoin="round"/>
<path d="M95.325 356.806L89.032 347.032" stroke="#263238" stroke-miterlimit="10" stroke-linecap="round" stroke-linejoin="round"/>
<path d="M91.116 350.374C91.116 350.374 92.231 346.323 89.187 342.187C87.356 339.699 76.54 332.21 74.534 336.152C72.353 340.44 82.621 351.923 91.116 350.374Z" fill="#FFDF20" stroke="#263238" stroke-miterlimit="10" stroke-linecap="round" stroke-linejoin="round"/>
<path d="M91.116 350.374L81.3 340.957" stroke="#263238" stroke-miterlimit="10" stroke-linecap="round" stroke-linejoin="round"/>
<path d="M90.1541 411.488L99.1251 402.002" stroke="#263238" stroke-miterlimit="10" stroke-linecap="round" stroke-linejoin="round"/>
<path d="M96.3991 404.844C96.3991 404.844 96.1401 400.65 99.9671 397.228C102.27 395.169 114.393 390.06 115.547 394.331C116.801 398.974 104.395 408.105 96.3991 404.844Z" fill="#FFDF20" stroke="#263238" stroke-miterlimit="10" stroke-linecap="round" stroke-linejoin="round"/>
<path d="M96.399 404.844L108.617 397.262" stroke="#263238" stroke-miterlimit="10" stroke-linecap="round" stroke-linejoin="round"/>
<path d="M92.743 386.532L101.714 377.046" stroke="#263238" stroke-miterlimit="10" stroke-linecap="round" stroke-linejoin="round"/>
<path d="M98.989 379.888C98.989 379.888 98.73 375.694 102.557 372.271C104.86 370.212 116.983 365.103 118.137 369.373C119.391 374.018 106.985 383.148 98.989 379.888Z" fill="#FFDF20" stroke="#263238" stroke-miterlimit="10" stroke-linecap="round" stroke-linejoin="round"/>
<path d="M98.989 379.888L111.207 372.306" stroke="#263238" stroke-miterlimit="10" stroke-linecap="round" stroke-linejoin="round"/>
<path d="M96.437 348.076L105.511 340.46" stroke="#263238" stroke-miterlimit="10" stroke-linecap="round" stroke-linejoin="round"/>
<path d="M102.785 343.302C102.785 343.302 102.526 339.108 106.353 335.686C108.656 333.627 120.779 328.518 121.933 332.788C123.188 337.433 110.781 346.563 102.785 343.302Z" fill="#FFDF20" stroke="#263238" stroke-miterlimit="10" stroke-linecap="round" stroke-linejoin="round"/>
<path d="M102.785 343.302L115.003 335.72" stroke="#263238" stroke-miterlimit="10" stroke-linecap="round" stroke-linejoin="round"/>
<path d="M98.499 326.457C98.499 326.457 98.24 322.263 102.067 318.84C104.37 316.781 116.493 311.672 117.647 315.943C118.901 320.587 106.494 329.717 98.499 326.457Z" fill="#FFDF20" stroke="#263238" stroke-miterlimit="10" stroke-linecap="round" stroke-linejoin="round"/>
<path d="M98.499 326.457L110.717 318.874" stroke="#263238" stroke-miterlimit="10" stroke-linecap="round" stroke-linejoin="round"/>
<path d="M99 327C99 327 94.802 326.818 91.8 322.653C89.994 320.147 86.185 307.555 90.552 306.855C95.302 306.095 103.081 319.39 99 327Z" fill="#FFDF20" stroke="#263238" stroke-miterlimit="10" stroke-linecap="round" stroke-linejoin="round"/>
<path d="M99 327L92.741 314.054" stroke="#263238" stroke-miterlimit="10" stroke-linecap="round" stroke-linejoin="round"/>
<path d="M75.555 453.686L68.128 443.765" stroke="#263238" stroke-miterlimit="10" stroke-linecap="round" stroke-linejoin="round"/>
<path d="M70.546 446.874C70.546 446.874 71.237 442.729 67.783 438.93C65.705 436.644 54.174 430.312 52.586 434.44C50.859 438.929 62.257 449.291 70.546 446.874Z" fill="#FFDF20" stroke="#263238" stroke-miterlimit="10" stroke-linecap="round" stroke-linejoin="round"/>
<path d="M70.546 446.874L59.811 438.52" stroke="#263238" stroke-miterlimit="10" stroke-linecap="round" stroke-linejoin="round"/>
<path d="M75.813 405.83L68.128 398.672" stroke="#263238" stroke-miterlimit="10" stroke-linecap="round" stroke-linejoin="round"/>
<path d="M70.546 401.781C70.546 401.781 71.237 397.636 67.783 393.837C65.705 391.551 54.174 385.219 52.586 389.347C50.859 393.837 62.257 404.198 70.546 401.781Z" fill="#FFDF20" stroke="#263238" stroke-miterlimit="10" stroke-linecap="round" stroke-linejoin="round"/>
<path d="M70.546 401.781L59.811 393.427" stroke="#263238" stroke-miterlimit="10" stroke-linecap="round" stroke-linejoin="round"/>
<path d="M76.072 356.092L68.128 345.73" stroke="#263238" stroke-miterlimit="10" stroke-linecap="round" stroke-linejoin="round"/>
<path d="M70.546 348.839C70.546 348.839 71.237 344.694 67.783 340.895C65.705 338.609 54.174 332.277 52.586 336.405C50.859 340.895 62.257 351.257 70.546 348.839Z" fill="#FFDF20" stroke="#263238" stroke-miterlimit="10" stroke-linecap="round" stroke-linejoin="round"/>
<path d="M70.546 348.839L59.811 340.485" stroke="#263238" stroke-miterlimit="10" stroke-linecap="round" stroke-linejoin="round"/>
<path d="M75.555 317.181L68.128 310.487" stroke="#263238" stroke-miterlimit="10" stroke-linecap="round" stroke-linejoin="round"/>
<path d="M70.546 313.596C70.546 313.596 71.237 309.451 67.783 305.652C65.705 303.366 54.174 297.033 52.586 301.162C50.859 305.652 62.257 316.014 70.546 313.596Z" fill="#FFDF20" stroke="#263238" stroke-miterlimit="10" stroke-linecap="round" stroke-linejoin="round"/>
<path d="M70.546 313.596L59.811 305.242" stroke="#263238" stroke-miterlimit="10" stroke-linecap="round" stroke-linejoin="round"/>
<path d="M75.983 281.921L68.28 276.272" stroke="#263238" stroke-miterlimit="10" stroke-linecap="round" stroke-linejoin="round"/>
<path d="M70.546 278.199C70.546 278.199 71.237 274.054 67.783 270.255C65.705 267.969 54.174 261.637 52.586 265.765C50.859 270.254 62.257 280.616 70.546 278.199Z" fill="#FFDF20" stroke="#263238" stroke-miterlimit="10" stroke-linecap="round" stroke-linejoin="round"/>
<path d="M70.546 278.199L59.811 269.845" stroke="#263238" stroke-miterlimit="10" stroke-linecap="round" stroke-linejoin="round"/>
<path d="M75.897 396.179L83.841 385.817" stroke="#263238" stroke-miterlimit="10" stroke-linecap="round" stroke-linejoin="round"/>
<path d="M81.424 388.926C81.424 388.926 80.733 384.781 84.187 380.982C86.265 378.696 97.797 372.363 99.384 376.492C101.111 380.982 89.713 391.343 81.424 388.926Z" fill="#FFDF20" stroke="#263238" stroke-miterlimit="10" stroke-linecap="round" stroke-linejoin="round"/>
<path d="M81.424 388.926L92.794 380.122" stroke="#263238" stroke-miterlimit="10" stroke-linecap="round" stroke-linejoin="round"/>
<path d="M75.897 360.782L83.841 350.42" stroke="#263238" stroke-miterlimit="10" stroke-linecap="round" stroke-linejoin="round"/>
<path d="M81.424 353.529C81.424 353.529 80.733 349.384 84.187 345.585C86.265 343.299 97.797 336.966 99.384 341.095C101.111 345.584 89.713 355.946 81.424 353.529Z" fill="#FFDF20" stroke="#263238" stroke-miterlimit="10" stroke-linecap="round" stroke-linejoin="round"/>
<path d="M81.424 353.529L92.794 344.725" stroke="#263238" stroke-miterlimit="10" stroke-linecap="round" stroke-linejoin="round"/>
<path d="M75.897 313.996L83.841 303.634" stroke="#263238" stroke-miterlimit="10" stroke-linecap="round" stroke-linejoin="round"/>
<path d="M81.424 306.742C81.424 306.742 80.733 302.597 84.187 298.798C86.265 296.512 97.797 290.179 99.384 294.307C101.111 298.799 89.713 309.16 81.424 306.742Z" fill="#FFDF20" stroke="#263238" stroke-miterlimit="10" stroke-linecap="round" stroke-linejoin="round"/>
<path d="M81.424 306.742L92.794 297.94" stroke="#263238" stroke-miterlimit="10" stroke-linecap="round" stroke-linejoin="round"/>
<path d="M76.24 273.619L84.027 267.543" stroke="#263238" stroke-miterlimit="10" stroke-linecap="round" stroke-linejoin="round"/>
<path d="M81.424 269.96C81.424 269.96 80.733 265.815 84.187 262.016C86.265 259.73 97.797 253.398 99.384 257.526C101.111 262.016 89.713 272.378 81.424 269.96Z" fill="#FFDF20" stroke="#263238" stroke-miterlimit="10" stroke-linecap="round" stroke-linejoin="round"/>
<path d="M81.424 269.96L92.7939 261.157" stroke="#263238" stroke-miterlimit="10" stroke-linecap="round" stroke-linejoin="round"/>
<path d="M75.421 253.647C75.421 253.647 74.73 249.502 78.184 245.703C80.262 243.417 91.793 237.085 93.381 241.213C95.109 245.703 83.711 256.065 75.421 253.647Z" fill="#FFDF20" stroke="#263238" stroke-miterlimit="10" stroke-linecap="round" stroke-linejoin="round"/>
<path d="M75.421 253.647L86.792 244.844" stroke="#263238" stroke-miterlimit="10" stroke-linecap="round" stroke-linejoin="round"/>
<path d="M75.976 254.136C75.976 254.136 71.782 254.388 68.365 250.555C66.31 248.249 61.221 236.117 65.493 234.971C70.14 233.724 79.25 246.146 75.976 254.136Z" fill="#FFDF20" stroke="#263238" stroke-miterlimit="10" stroke-linecap="round" stroke-linejoin="round"/>
<path d="M75.976 254.136L68.414 241.905" stroke="#263238" stroke-miterlimit="10" stroke-linecap="round" stroke-linejoin="round"/>
<path d="M443 457.667H471" stroke="#263238" stroke-miterlimit="10" stroke-linecap="round" stroke-linejoin="round"/>
<path d="M32.333 457.667H432" stroke="#263238" stroke-miterlimit="10" stroke-linecap="round" stroke-linejoin="round"/>
<path d="M269.646 63.826C269.646 46.513 255.014 32.617 237.442 33.83C222.791 34.841 210.848 46.588 209.616 61.223C208.915 69.55 211.613 77.239 216.472 83.063C220.901 88.372 223.322 95.07 223.322 101.984V106.104H255.83V101.984C255.83 95.077 258.238 88.381 262.666 83.081C267.022 77.865 269.646 71.153 269.646 63.826Z" fill="white" stroke="#263238" stroke-width="2" stroke-miterlimit="10" stroke-linecap="round" stroke-linejoin="round"/>
<path d="M255.829 106.112H223.321V114.153H255.829V106.112Z" fill="white" stroke="#263238" stroke-width="2" stroke-miterlimit="10" stroke-linecap="round" stroke-linejoin="round"/>
<path d="M251.104 122.215H228.046C225.436 122.215 223.321 120.099 223.321 117.49V114.174H255.829V117.49C255.83 120.099 253.714 122.215 251.104 122.215Z" fill="white" stroke="#263238" stroke-width="2" stroke-miterlimit="10" stroke-linecap="round" stroke-linejoin="round"/>
<path d="M245.318 130.246H233.834C230.294 130.246 227.424 127.376 227.424 123.836V122.205H251.728V123.836C251.728 127.376 248.858 130.246 245.318 130.246Z" fill="white" stroke="#263238" stroke-width="2" stroke-miterlimit="10" stroke-linecap="round" stroke-linejoin="round"/>
<path d="M273.914 63.983H287.688" stroke="#263238" stroke-width="2" stroke-miterlimit="10" stroke-linecap="round" stroke-linejoin="round"/>
<path d="M190.172 63.983H204.124" stroke="#263238" stroke-width="2" stroke-miterlimit="10" stroke-linecap="round" stroke-linejoin="round"/>
<path d="M238.93 29.038V15.225" stroke="#263238" stroke-width="2" stroke-miterlimit="10" stroke-linecap="round" stroke-linejoin="round"/>
<path d="M263.899 39.015L273.407 29.506" stroke="#263238" stroke-width="2" stroke-miterlimit="10" stroke-linecap="round" stroke-linejoin="round"/>
<path d="M204.453 98.461L214.1 88.813" stroke="#263238" stroke-width="2" stroke-miterlimit="10" stroke-linecap="round" stroke-linejoin="round"/>
<path d="M213.687 38.74L204.453 29.506" stroke="#263238" stroke-width="2" stroke-miterlimit="10" stroke-linecap="round" stroke-linejoin="round"/>
<path d="M273.407 98.461L264.212 89.265" stroke="#263238" stroke-width="2" stroke-miterlimit="10" stroke-linecap="round" stroke-linejoin="round"/>
<path d="M347.796 193.848C347.796 193.848 341.016 179.202 340.202 177.846C339.388 176.49 338.575 168.353 339.117 165.912C339.659 163.471 346.44 155.063 346.44 155.063C346.44 155.063 347.254 137.705 348.338 133.095C349.423 128.484 348.881 124.416 351.593 123.602C354.305 122.788 355.119 123.06 355.39 126.585C355.661 130.111 354.847 138.518 354.847 139.332C354.847 140.146 356.203 152.622 356.203 152.622C356.203 152.622 368.95 165.64 370.306 166.996C371.662 168.352 373.832 171.335 371.662 178.387C369.492 185.439 365.424 190.049 365.424 190.049L366.509 195.473L347.795 196.829L347.796 193.848Z" fill="white" stroke="#263238" stroke-miterlimit="10" stroke-linecap="round" stroke-linejoin="round"/>
<path d="M346.44 186.797C346.44 186.797 339.931 179.745 338.032 175.677C336.134 171.609 336.676 161.845 337.49 160.489C338.304 159.133 344.813 155.878 346.44 155.065C348.067 154.251 359.187 153.438 361.628 152.082C364.069 150.726 366.781 154.794 363.255 158.32C359.729 161.846 349.152 164.829 349.152 164.829C349.152 164.829 357.017 170.253 355.119 178.119" fill="white"/>
<path d="M346.44 186.797C346.44 186.797 339.931 179.745 338.032 175.677C336.134 171.609 336.676 161.845 337.49 160.489C338.304 159.133 344.813 155.878 346.44 155.065C348.067 154.251 359.187 153.438 361.628 152.082C364.069 150.726 366.781 154.794 363.255 158.32C359.729 161.846 349.152 164.829 349.152 164.829C349.152 164.829 357.017 170.253 355.119 178.119" stroke="#263238" stroke-miterlimit="10" stroke-linecap="round" stroke-linejoin="round"/>
<path d="M366.684 153.649C366.684 153.649 361.137 168.704 363.779 170.553C366.42 172.402 369.59 171.874 370.382 168.968C371.174 166.063 375.4 158.931 374.872 155.233C374.344 151.536 369.589 149.951 366.684 153.649Z" fill="white" stroke="#263238" stroke-miterlimit="10" stroke-linecap="round" stroke-linejoin="round"/>
<path d="M373.802 158.668C373.802 158.668 369.309 170.864 371.448 172.362C373.588 173.86 376.155 173.432 376.797 171.078C377.439 168.724 380.862 162.947 380.435 159.951C380.007 156.956 376.156 155.673 373.802 158.668Z" fill="white" stroke="#263238" stroke-miterlimit="10" stroke-linecap="round" stroke-linejoin="round"/>
<path d="M360.272 149.369C360.272 149.369 354.577 164.828 357.289 166.727C360.001 168.626 363.256 168.083 364.069 165.1C364.883 162.117 369.222 154.794 368.68 150.997C368.137 147.199 363.255 145.572 360.272 149.369Z" fill="white" stroke="#263238" stroke-miterlimit="10" stroke-linecap="round" stroke-linejoin="round"/>
<path d="M346.711 202.527L344.813 190.865L368.137 188.695L372.205 202.527H346.711Z" fill="#FFDF20" stroke="#263238" stroke-miterlimit="10" stroke-linecap="round" stroke-linejoin="round"/>
<path d="M159.567 457.667L176.5 373.5L182.974 457.667H303.508C303.647 452.255 305.481 380.012 305 367.5C304.5 354.5 311 332.5 311 332.5C311 332.5 391.5 315.5 402 308.5C412.5 301.5 406.5 292.5 405.5 287.5C404.5 282.5 375 204.5 374 201C373 197.5 368.5 198 364 198C359.5 198 344 199 344 202C344 205 352.5 278 352.5 278H348.5L347 281.5L325.5 277C325.5 277 309.5 265 304 264.5C298.5 264 266 261 266 261H210.5C210.5 261 148.5 290 144 295.5C139.5 301 139.5 319.5 139.5 319.5L125.534 457.667H159.567Z" fill="#FFDF20" stroke="#263238" stroke-miterlimit="10" stroke-linecap="round" stroke-linejoin="round"/>
<path d="M271.055 417.141L276 410.5" stroke="#263238" stroke-miterlimit="10" stroke-linecap="round" stroke-linejoin="round"/>
<path d="M242.685 455.237C251 443 260 432 268.738 420.252" stroke="#263238" stroke-miterlimit="10" stroke-linecap="round" stroke-linejoin="round"/>
<path d="M279.506 412.256C275.063 420.422 267.748 432.641 259.5 441.5" stroke="#263238" stroke-miterlimit="10" stroke-linecap="round" stroke-linejoin="round"/>
<path d="M284 403.5C284 403.5 283.077 405.472 281.437 408.626" stroke="#263238" stroke-miterlimit="10" stroke-linecap="round" stroke-linejoin="round"/>
<path d="M318.569 303.428L321.674 291.503" stroke="#263238" stroke-miterlimit="10" stroke-linecap="round" stroke-linejoin="round"/>
<path d="M311 332.5L317.475 307.631" stroke="#263238" stroke-miterlimit="10" stroke-linecap="round" stroke-linejoin="round"/>
<path d="M314.251 319.87L327.242 295.744" stroke="#263238" stroke-miterlimit="10" stroke-linecap="round" stroke-linejoin="round"/>
<path d="M365.365 294.518C365.877 295.315 366.342 296.082 366.743 296.804" stroke="#263238" stroke-miterlimit="10" stroke-linecap="round" stroke-linejoin="round"/>
<path d="M356.934 295.744C351.897 286.996 352.5 278 352.5 278C352.5 278 358.305 284.586 362.876 290.896" stroke="#263238" stroke-miterlimit="10" stroke-linecap="round" stroke-linejoin="round"/>
<path d="M163.204 316.914C161.912 314.161 160.88 312.098 160.88 312.098" stroke="#263238" stroke-miterlimit="10" stroke-linecap="round" stroke-linejoin="round"/>
<path d="M176.5 373.5C176.5 373.5 169.425 332.75 167.645 327.409C166.999 325.471 165.931 322.923 164.832 320.463" stroke="#263238" stroke-miterlimit="10" stroke-linecap="round" stroke-linejoin="round"/>
<path d="M164.964 337.092C163.046 333.36 161.244 330.033 160.167 328.477C156.962 323.848 151.265 315.658 151.265 315.658" stroke="#263238" stroke-miterlimit="10" stroke-linecap="round" stroke-linejoin="round"/>
<path d="M172.986 353.402C172.986 353.402 169.678 346.419 166.296 339.711" stroke="#263238" stroke-miterlimit="10" stroke-linecap="round" stroke-linejoin="round"/>
<path d="M225.667 287.667L236.333 303.333L221.333 421.333L241 440.667L256 418L243.333 302L254 286L238.333 273.333L225.667 287.667Z" fill="#263238" stroke="#263238" stroke-miterlimit="10" stroke-linecap="round" stroke-linejoin="round"/>
<path d="M235.667 281.333L216.333 303L206.333 265.333L214 253L220.333 252.333L259.667 253L272.667 265L264 301.667L242.333 280L235.667 281.333Z" fill="#FFDF20" stroke="#263238" stroke-miterlimit="10" stroke-linecap="round" stroke-linejoin="round"/>
<path d="M215 239.333L216.333 259C216.333 259 235.666 284.333 238.333 284.333C241 284.333 259.666 257.333 259.666 257.333L259.999 240.333L215 239.333Z" fill="white" stroke="#263238" stroke-miterlimit="10" stroke-linecap="round" stroke-linejoin="round"/>
<path d="M205.667 212.333C205.667 212.333 202 201 197.334 208.333C192.667 215.666 203.001 227 205.001 228.333C207.001 229.666 207.001 229.666 207.001 229.666L205.667 212.333Z" fill="white" stroke="#263238" stroke-miterlimit="10" stroke-linecap="round" stroke-linejoin="round"/>
<path d="M270.667 212.333C270.667 212.333 274.334 201 279 208.333C283.667 215.666 273.333 227 271.333 228.333C269.333 229.666 269.333 229.666 269.333 229.666L270.667 212.333Z" fill="white" stroke="#263238" stroke-miterlimit="10" stroke-linecap="round" stroke-linejoin="round"/>
<path d="M205 211C205 211 206 234 209.5 239C213 244 225 256.5 234 258.5C243 260.5 246.5 258.5 253.5 254C260.5 249.5 270 240.5 271 235C272 229.5 272 206.5 272 206.5L270 182.5C270 182.5 269 168.5 252 162.5C235 156.5 221.5 152.5 216 162.5C210.5 172.5 203.5 183.5 203.5 183.5L205 211Z" fill="white" stroke="#263238" stroke-miterlimit="10" stroke-linecap="round" stroke-linejoin="round"/>
<path d="M233.504 228.279C233.504 228.279 243.953 231.414 253.88 224.622" stroke="#263238" stroke-miterlimit="10" stroke-linecap="round" stroke-linejoin="round"/>
<path d="M218.352 205.29L227.757 207.38" stroke="#263238" stroke-miterlimit="10" stroke-linecap="round" stroke-linejoin="round"/>
<path d="M251.79 207.903L262.762 204.768" stroke="#263238" stroke-miterlimit="10" stroke-linecap="round" stroke-linejoin="round"/>
<path d="M224 170C224 170 223 181 217 185.5C211 190 207 193 207 193L208 211.5L205 211L203.5 199C203.5 199 197.5 183 197.5 171.5C197.5 160 206.5 153 210 152.5C213.5 152 219 152.5 219 152.5C219 152.5 226 142.5 244.5 141.5C263 140.5 277.5 160 275.5 163.5C273.5 167 273.5 167 273.5 167C273.5 167 277.5 174 277.5 182C277.5 190 272.5 197.5 272.5 197.5V213L268.5 196C268.5 196 265 185.5 264 183.5C263 181.5 252.5 182.5 246.5 180C240.5 177.5 236 170.5 236 170.5C236 170.5 241 180 237 180C233 180 224 170 224 170Z" fill="#263238" stroke="#263238" stroke-miterlimit="10" stroke-linecap="round" stroke-linejoin="round"/>
<path d="M261 219C257 217 240.333 212.667 240.333 212.667C240.333 212.667 220.666 218 217.666 221.334C214.666 224.668 217.333 241.334 220.666 247.667C223.999 254 227.666 259.334 237.999 259.667C248.333 260 259 254 260.667 248C262.333 242 265 221 261 219ZM254.667 243C252 247.667 246 247.333 245.667 244.667C245.333 242 245.333 239 242 239C238.667 239 239.667 240.333 240 244C240.333 247.667 235.667 250.333 230.667 247.333C225.667 244.333 223.333 232 223.333 228C223.333 224 240.666 218.333 240.666 218.333C240.666 218.333 255.333 219 257.333 223C259.333 227 257.333 238.333 254.667 243Z" fill="#263238" stroke="#263238" stroke-miterlimit="10" stroke-linecap="round" stroke-linejoin="round"/>
<path d="M225.833 203.333C226.661 203.333 227.333 201.841 227.333 200C227.333 198.159 226.661 196.667 225.833 196.667C225.005 196.667 224.333 198.159 224.333 200C224.333 201.841 225.005 203.333 225.833 203.333Z" fill="#263238"/>
<path d="M252.5 203.333C253.328 203.333 254 201.841 254 200C254 198.159 253.328 196.667 252.5 196.667C251.672 196.667 251 198.159 251 200C251 201.841 251.672 203.333 252.5 203.333Z" fill="#263238"/>
<path d="M219 190.667C219 190.667 222.667 183.667 233.667 186" stroke="#263238" stroke-width="4" stroke-miterlimit="10" stroke-linecap="round" stroke-linejoin="round"/>
<path d="M247.333 185.333C247.333 185.333 255.666 181.666 262.666 189.666" stroke="#263238" stroke-width="4" stroke-miterlimit="10" stroke-linecap="round" stroke-linejoin="round"/>
<path d="M244.667 188.333L245.333 214.667L232.667 211.333" fill="white"/>
<path d="M244.667 188.333L245.333 214.667L232.667 211.333" stroke="#263238" stroke-miterlimit="10" stroke-linecap="round" stroke-linejoin="round"/>
</svg>
