<svg width="225" height="50" viewBox="0 0 225 50" fill="none" xmlns="http://www.w3.org/2000/svg">
<path d="M77.803 38.452H70.18V37.363C71.126 37.363 71.808 37.22 72.226 36.934C72.622 36.648 72.82 36.164 72.82 35.482V26.803H61.072V35.482C61.072 36.208 61.226 36.692 61.534 36.934C61.952 37.22 62.7 37.363 63.778 37.363V38.452H56.188V37.363C57.354 37.363 58.135 37.198 58.531 36.868C58.817 36.582 58.96 36.12 58.96 35.482V18.223C58.96 17.585 58.806 17.145 58.498 16.903C58.08 16.595 57.332 16.441 56.254 16.441V15.385H63.679V16.441C62.623 16.441 61.919 16.595 61.567 16.903C61.237 17.167 61.072 17.607 61.072 18.223V25.582H72.82V18.223C72.82 17.607 72.622 17.167 72.226 16.903C71.808 16.595 71.115 16.441 70.147 16.441V15.385H77.638V16.441C76.582 16.441 75.845 16.595 75.427 16.903C75.119 17.145 74.965 17.585 74.965 18.223V35.482C74.965 36.208 75.119 36.692 75.427 36.934C75.845 37.22 76.637 37.363 77.803 37.363V38.452ZM82.3158 23.833C83.6358 23.217 85.1538 22.909 86.8698 22.909C88.2558 22.909 89.3778 23.272 90.2358 23.998C91.1598 24.834 91.6218 26 91.6218 27.496V36.043C91.6218 36.153 91.6218 36.285 91.6218 36.439C91.6438 36.593 91.6658 36.747 91.6878 36.901C91.7318 37.055 91.7868 37.187 91.8528 37.297C91.9408 37.407 92.0398 37.462 92.1498 37.462C92.4798 37.462 92.9528 37.22 93.5688 36.736L93.9648 37.231C92.9968 38.397 92.1388 38.98 91.3908 38.98C90.4228 38.98 89.8398 38.364 89.6418 37.132C88.2778 38.364 86.5398 38.98 84.4278 38.98C83.7018 38.98 83.0418 38.903 82.4478 38.749C81.8758 38.595 81.3918 38.353 80.9958 38.023C80.1818 37.341 79.7748 36.384 79.7748 35.152C79.7748 34.228 80.0828 33.403 80.6988 32.677C81.3368 31.929 82.1508 31.313 83.1408 30.829C84.8348 29.949 86.9908 29.344 89.6088 29.014V26.968C89.6088 26.11 89.3448 25.417 88.8168 24.889C88.5088 24.581 88.1458 24.361 87.7278 24.229C87.3318 24.097 86.9028 24.031 86.4408 24.031C85.5608 24.031 84.8128 24.207 84.1968 24.559C83.8228 24.801 83.5258 25.043 83.3058 25.285C83.0858 25.505 82.9758 25.758 82.9758 26.044V26.209C82.9758 27.287 82.5028 27.826 81.5568 27.826C80.6988 27.826 80.2698 27.331 80.2698 26.341C80.2698 25.307 80.9518 24.471 82.3158 23.833ZM89.6088 30.268C87.6728 30.466 85.8798 31.016 84.2298 31.918C82.7338 32.754 81.9858 33.821 81.9858 35.119C81.9858 35.823 82.2718 36.395 82.8438 36.835C83.4158 37.253 84.1308 37.462 84.9888 37.462C85.7808 37.462 86.6058 37.308 87.4638 37C88.1678 36.758 88.8828 36.34 89.6088 35.746V30.268ZM108.373 34.459C108.483 34.547 108.593 34.624 108.703 34.69C108.813 34.756 108.923 34.833 109.033 34.921C107.427 37.649 105.271 39.013 102.565 39.013C100.629 39.013 98.9789 38.331 97.6149 36.967C96.2509 35.471 95.5689 33.59 95.5689 31.324C95.5689 28.97 96.3169 26.946 97.8129 25.252C99.2649 23.668 101.08 22.876 103.258 22.876C104.556 22.876 105.689 23.129 106.657 23.635C107.009 23.811 107.328 24.02 107.614 24.262C107.922 24.504 108.175 24.79 108.373 25.12C108.593 25.494 108.703 25.868 108.703 26.242C108.703 26.638 108.593 27.012 108.373 27.364C108.153 27.716 107.823 27.892 107.383 27.892C106.591 27.892 106.063 27.276 105.799 26.044C105.733 25.714 105.601 25.439 105.403 25.219C105.205 24.999 104.963 24.801 104.677 24.625C104.105 24.273 103.401 24.097 102.565 24.097C101.311 24.097 100.2 24.746 99.2319 26.044C98.2639 27.408 97.7799 29.014 97.7799 30.862C97.7799 31.852 97.9009 32.754 98.1429 33.568C98.4069 34.382 98.7919 35.086 99.2979 35.68C100.332 36.912 101.619 37.528 103.159 37.528C105.051 37.528 106.789 36.505 108.373 34.459ZM127.402 38.419H120.274V37.363C121.286 37.363 121.946 37.242 122.254 37C122.386 36.934 122.452 36.835 122.452 36.703C122.452 36.527 122.375 36.362 122.221 36.208C122.111 36.098 122.001 35.988 121.891 35.878C121.803 35.768 121.715 35.658 121.627 35.548C120.967 34.668 120.318 33.788 119.68 32.908C119.042 32.006 118.404 31.115 117.766 30.235C117.304 30.609 116.831 30.972 116.347 31.324C115.885 31.676 115.412 32.039 114.928 32.413V35.647C114.928 36.307 115.071 36.747 115.357 36.967C115.555 37.077 115.808 37.165 116.116 37.231C116.424 37.319 116.787 37.363 117.205 37.363V38.419H110.77V37.363C111.166 37.363 111.507 37.319 111.793 37.231C112.101 37.165 112.343 37.077 112.519 36.967C112.783 36.769 112.915 36.329 112.915 35.647V18.586C112.915 17.838 112.585 17.409 111.925 17.299C111.815 17.277 111.683 17.266 111.529 17.266C111.375 17.244 111.188 17.233 110.968 17.233C110.946 17.123 110.924 17.024 110.902 16.936C110.88 16.826 110.858 16.716 110.836 16.606C111.54 16.342 112.222 16.089 112.882 15.847C113.564 15.583 114.246 15.319 114.928 15.055V30.829C116.05 29.905 117.161 29.003 118.261 28.123C119.383 27.221 120.505 26.308 121.627 25.384C121.847 25.23 121.957 25.076 121.957 24.922C121.957 24.812 121.913 24.713 121.825 24.625C121.583 24.317 120.879 24.163 119.713 24.163V23.14H126.379V24.163C125.763 24.163 125.257 24.24 124.861 24.394C124.685 24.482 124.322 24.768 123.772 25.252L122.881 25.846C122.265 26.352 121.649 26.858 121.033 27.364C120.439 27.87 119.823 28.376 119.185 28.882C120.065 30.07 120.934 31.269 121.792 32.479C122.672 33.667 123.552 34.855 124.432 36.043C124.762 36.483 125.125 36.78 125.521 36.934C126.071 37.22 126.698 37.363 127.402 37.363V38.419ZM131.526 23.833C132.846 23.217 134.364 22.909 136.08 22.909C137.466 22.909 138.588 23.272 139.446 23.998C140.37 24.834 140.832 26 140.832 27.496V36.043C140.832 36.153 140.832 36.285 140.832 36.439C140.854 36.593 140.876 36.747 140.898 36.901C140.942 37.055 140.997 37.187 141.063 37.297C141.151 37.407 141.25 37.462 141.36 37.462C141.69 37.462 142.163 37.22 142.779 36.736L143.175 37.231C142.207 38.397 141.349 38.98 140.601 38.98C139.633 38.98 139.05 38.364 138.852 37.132C137.488 38.364 135.75 38.98 133.638 38.98C132.912 38.98 132.252 38.903 131.658 38.749C131.086 38.595 130.602 38.353 130.206 38.023C129.392 37.341 128.985 36.384 128.985 35.152C128.985 34.228 129.293 33.403 129.909 32.677C130.547 31.929 131.361 31.313 132.351 30.829C134.045 29.949 136.201 29.344 138.819 29.014V26.968C138.819 26.11 138.555 25.417 138.027 24.889C137.719 24.581 137.356 24.361 136.938 24.229C136.542 24.097 136.113 24.031 135.651 24.031C134.771 24.031 134.023 24.207 133.407 24.559C133.033 24.801 132.736 25.043 132.516 25.285C132.296 25.505 132.186 25.758 132.186 26.044V26.209C132.186 27.287 131.713 27.826 130.767 27.826C129.909 27.826 129.48 27.331 129.48 26.341C129.48 25.307 130.162 24.471 131.526 23.833ZM138.819 30.268C136.883 30.466 135.09 31.016 133.44 31.918C131.944 32.754 131.196 33.821 131.196 35.119C131.196 35.823 131.482 36.395 132.054 36.835C132.626 37.253 133.341 37.462 134.199 37.462C134.991 37.462 135.816 37.308 136.674 37C137.378 36.758 138.093 36.34 138.819 35.746V30.268ZM160.553 38.419H154.019V37.33C154.921 37.33 155.559 37.209 155.933 36.967C156.197 36.747 156.329 36.351 156.329 35.779V27.562C156.329 25.582 155.262 24.592 153.128 24.592C151.61 24.592 150.048 25.23 148.442 26.506V35.779C148.442 36.351 148.585 36.747 148.871 36.967C149.245 37.209 149.861 37.33 150.719 37.33V38.419H144.251V37.33C145.087 37.33 145.692 37.209 146.066 36.967C146.308 36.725 146.429 36.329 146.429 35.779V18.916C146.429 18.3 146.319 17.893 146.099 17.695C145.857 17.475 145.274 17.365 144.35 17.365C144.328 17.255 144.306 17.156 144.284 17.068C144.284 16.958 144.273 16.848 144.251 16.738C144.955 16.452 145.648 16.177 146.33 15.913C147.034 15.627 147.738 15.341 148.442 15.055V25.087C150.334 23.591 152.149 22.843 153.887 22.843C155.339 22.843 156.45 23.217 157.22 23.965C157.968 24.735 158.342 25.824 158.342 27.232V35.779C158.342 36.373 158.463 36.769 158.705 36.967C159.145 37.209 159.761 37.33 160.553 37.33V38.419ZM176.437 30.928C176.437 33.392 175.733 35.361 174.325 36.835C172.983 38.309 171.267 39.046 169.177 39.046C167.065 39.046 165.338 38.309 163.996 36.835C162.588 35.361 161.884 33.392 161.884 30.928C161.884 28.464 162.588 26.495 163.996 25.021C165.338 23.547 167.065 22.81 169.177 22.81C171.267 22.81 172.983 23.547 174.325 25.021C175.733 26.495 176.437 28.464 176.437 30.928ZM174.193 30.928C174.193 28.904 173.709 27.243 172.741 25.945C171.839 24.647 170.651 23.998 169.177 23.998C167.725 23.998 166.515 24.647 165.547 25.945C164.601 27.243 164.128 28.904 164.128 30.928C164.128 32.93 164.59 34.591 165.514 35.911C166.46 37.187 167.681 37.825 169.177 37.825C170.607 37.825 171.795 37.187 172.741 35.911C173.709 34.613 174.193 32.952 174.193 30.928ZM184.79 38.419H178.454V37.363C179.312 37.363 179.895 37.242 180.203 37C180.467 36.78 180.599 36.307 180.599 35.581V18.388C180.599 18.014 180.467 17.75 180.203 17.596C179.939 17.42 179.378 17.332 178.52 17.332L178.322 16.54C179.026 16.276 179.741 16.023 180.467 15.781C181.193 15.517 181.908 15.253 182.612 14.989V35.581C182.612 36.263 182.733 36.725 182.975 36.967C183.151 37.077 183.382 37.165 183.668 37.231C183.976 37.319 184.35 37.363 184.79 37.363V38.419ZM191.716 16.606C191.716 17.134 191.54 17.574 191.188 17.926C190.836 18.278 190.396 18.454 189.868 18.454C189.384 18.454 188.977 18.278 188.647 17.926C188.339 17.574 188.185 17.134 188.185 16.606C188.185 16.078 188.35 15.638 188.68 15.286C189.01 14.934 189.406 14.758 189.868 14.758C190.396 14.758 190.836 14.934 191.188 15.286C191.54 15.638 191.716 16.078 191.716 16.606ZM193.267 38.452H187.096V37.363C187.998 37.363 188.581 37.231 188.845 36.967C189.065 36.769 189.175 36.406 189.175 35.878V26.374C189.175 25.89 189.076 25.56 188.878 25.384C188.636 25.186 188.053 25.087 187.129 25.087L186.997 24.361L191.188 22.777V35.878C191.188 36.494 191.287 36.879 191.485 37.033C191.771 37.253 192.365 37.363 193.267 37.363V38.452ZM208.05 34.459C208.16 34.547 208.27 34.624 208.38 34.69C208.49 34.756 208.6 34.833 208.71 34.921C207.104 37.649 204.948 39.013 202.242 39.013C200.306 39.013 198.656 38.331 197.292 36.967C195.928 35.471 195.246 33.59 195.246 31.324C195.246 28.97 195.994 26.946 197.49 25.252C198.942 23.668 200.757 22.876 202.935 22.876C204.233 22.876 205.366 23.129 206.334 23.635C206.686 23.811 207.005 24.02 207.291 24.262C207.599 24.504 207.852 24.79 208.05 25.12C208.27 25.494 208.38 25.868 208.38 26.242C208.38 26.638 208.27 27.012 208.05 27.364C207.83 27.716 207.5 27.892 207.06 27.892C206.268 27.892 205.74 27.276 205.476 26.044C205.41 25.714 205.278 25.439 205.08 25.219C204.882 24.999 204.64 24.801 204.354 24.625C203.782 24.273 203.078 24.097 202.242 24.097C200.988 24.097 199.877 24.746 198.909 26.044C197.941 27.408 197.457 29.014 197.457 30.862C197.457 31.852 197.578 32.754 197.82 33.568C198.084 34.382 198.469 35.086 198.975 35.68C200.009 36.912 201.296 37.528 202.836 37.528C204.728 37.528 206.466 36.505 208.05 34.459ZM223.416 34.624C223.416 35.526 223.163 36.329 222.657 37.033C222.547 37.143 222.437 37.253 222.327 37.363C222.239 37.473 222.14 37.583 222.03 37.693C221.04 38.551 219.698 38.98 218.004 38.98C216.838 38.98 215.826 38.793 214.968 38.419C214.858 38.375 214.748 38.342 214.638 38.32C214.55 38.32 214.451 38.32 214.341 38.32H214.011C213.769 38.43 213.538 38.518 213.318 38.584C213.098 38.672 212.867 38.76 212.625 38.848C212.317 38.012 211.998 37.198 211.668 36.406C211.338 35.592 211.019 34.767 210.711 33.931C210.799 33.865 210.876 33.799 210.942 33.733C211.03 33.667 211.129 33.612 211.239 33.568C212.185 34.888 213.087 35.856 213.945 36.472C215.309 37.352 216.651 37.792 217.971 37.792C219.005 37.792 219.874 37.473 220.578 36.835C221.15 36.263 221.436 35.57 221.436 34.756C221.436 34.228 221.227 33.755 220.809 33.337C220.721 33.271 220.611 33.194 220.479 33.106C220.347 33.018 220.193 32.919 220.017 32.809C219.731 32.633 219.357 32.457 218.895 32.281C218.433 32.083 217.872 31.874 217.212 31.654C216.178 31.302 215.32 30.983 214.638 30.697C213.956 30.389 213.439 30.092 213.087 29.806C211.767 28.992 211.107 27.914 211.107 26.572C211.107 25.34 211.69 24.361 212.856 23.635C213.736 23.085 214.836 22.81 216.156 22.81C217.3 22.81 218.477 23.03 219.687 23.47C219.863 23.426 220.05 23.349 220.248 23.239C220.446 23.107 220.666 22.953 220.908 22.777C221.216 23.569 221.524 24.372 221.832 25.186C222.14 25.978 222.448 26.781 222.756 27.595C222.646 27.639 222.536 27.694 222.426 27.76C222.338 27.826 222.239 27.881 222.129 27.925C221.579 26.869 220.842 26.011 219.918 25.351C218.554 24.449 217.3 23.998 216.156 23.998C215.32 23.998 214.66 24.141 214.176 24.427C213.45 24.823 213.087 25.505 213.087 26.473C213.087 27.089 213.406 27.617 214.043 28.057C214.132 28.101 214.22 28.145 214.308 28.189C214.396 28.233 214.495 28.277 214.605 28.321C214.913 28.497 215.298 28.684 215.76 28.882C216.222 29.08 216.739 29.267 217.311 29.443C218.499 29.817 219.478 30.191 220.248 30.565C221.04 30.917 221.645 31.247 222.063 31.555C222.965 32.281 223.416 33.304 223.416 34.624Z" fill="black"/>
<path d="M4.83624 19.0692C4.66857 19.0145 4.51836 18.9465 4.40434 18.8669C3.90364 18.5176 3.94425 17.8349 4.00168 17.3518C4.01767 17.2178 4.24866 17.1843 4.29873 17.3204C4.47839 17.8088 4.63701 18.4135 5.37396 18.4927C6.22871 18.5844 6.69659 18.1226 6.83502 17.4677C7.00163 16.6793 7.13122 15.8905 7.1876 15.0923C6.90528 15.0711 6.63558 14.9087 6.51083 14.5933C6.19526 13.796 6.31097 12.6759 6.57331 11.8822C6.58341 11.8519 6.63579 11.8696 6.62948 11.8976C6.49862 12.4669 6.39344 13.1066 6.62822 13.6689C6.73782 13.9313 6.86047 14.2902 7.07989 14.5029C7.23683 14.6549 7.47077 14.5847 7.66999 14.5094C7.29468 13.6782 7.44132 12.473 7.65253 11.8517C7.6904 11.7402 7.86291 11.8088 7.85281 11.9061C7.76466 12.7483 7.47498 14.2404 8.74838 14.6514C10.1125 15.0916 10.2118 13.7462 10.4335 12.9746C10.7032 12.034 10.9596 10.7728 11.7067 9.98581C11.4332 9.57662 11.296 9.10204 11.3493 8.67584C11.3551 8.62763 11.4401 8.61361 11.457 8.66445C11.6503 9.24878 12.7129 10.8529 13.7031 10.3762C14.5579 9.96495 14.9404 9.15849 15.5664 8.56715C15.6842 8.45582 15.8439 8.54488 15.8406 8.67672C15.8332 8.97371 15.6577 9.36887 15.3836 9.74949C18.412 10.4858 21.4353 10.3233 24.2634 9.02034C24.4104 8.95267 24.5089 9.15691 24.4005 9.23545C24.118 9.43987 23.8176 9.62764 23.5033 9.79945C24.4979 9.83189 25.5044 10.0377 26.5017 10.053C27.9157 10.0747 29.3328 9.98862 30.7377 9.86204C31.9681 9.75106 32.861 9.68322 34.0624 9.99511C34.8282 10.1939 35.8824 10.5069 36.6471 10.1261C37.4472 9.72775 37.6769 8.7479 36.6635 8.47248C36.6128 8.45863 36.5972 8.38236 36.6629 8.3764C37.1282 8.33415 37.5717 8.5284 37.8504 8.82626C37.8631 8.82469 37.8753 8.82328 37.8879 8.82153C37.9178 8.81715 37.946 8.80908 37.975 8.80242C37.9967 8.77384 38.024 8.74912 38.0593 8.73212C38.4723 8.53261 39.079 8.29663 39.3262 7.94196C39.9492 7.04767 38.6339 6.29871 37.8852 6.01102C36.8493 5.61287 35.7435 5.50838 34.6713 5.22104C34.6117 5.20491 34.598 5.12286 34.6704 5.11234C34.9235 5.0764 35.1972 5.05273 35.4808 5.04063C34.6254 4.33375 33.96 3.58217 32.615 3.43297C31.2344 3.27975 30.03 3.62582 28.8655 4.21997C28.7507 4.27853 28.6612 4.1211 28.7239 4.05009C28.8748 3.87793 29.0492 3.72067 29.2394 3.57691C28.7416 3.24731 28.3812 2.80709 27.7726 2.57111C27.167 2.33601 26.4813 2.14825 25.8008 2.21347C24.7089 2.31831 23.4883 2.64615 22.4649 2.12984C21.2312 1.50729 20.3011 0.624564 18.7174 0.718534C17.5259 0.789538 16.4506 1.15999 15.3146 1.42612C15.2658 1.48029 15.1875 1.5136 15.0775 1.50027C13.8018 1.34231 12.7733 0.881581 11.4262 1.06794C10.0064 1.26483 8.87082 1.72521 8.25883 2.85408C8.23317 2.90141 8.16606 2.88616 8.15491 2.83918C8.11389 2.66351 8.11872 2.4945 8.15365 2.33198C7.2747 2.39299 6.41384 2.56866 5.64071 2.94542C5.19261 3.16386 4.73778 3.43455 4.43337 3.79343C4.28926 3.96366 3.90533 4.37198 3.82917 4.68089C3.9251 4.77345 3.93941 4.9251 3.80498 5.03204C2.9113 5.74418 1.96503 6.27136 1.50158 7.28698C1.07788 8.21546 0.90264 9.2216 1.34843 10.1585C1.46119 10.1741 1.55291 10.2846 1.50915 10.4006C0.987419 11.7911 0.477893 13.0398 0.817649 14.525C0.992892 15.2909 1.32066 15.9534 1.75508 16.6379C2.03867 17.0846 2.378 17.5704 2.45837 18.082C2.55766 18.715 2.44659 19.3222 2.28712 19.9444C2.12787 20.5662 1.78201 21.4526 2.12408 22.0629C2.87764 23.4086 3.77868 21.3513 3.87566 21.1271C4.00652 20.8245 4.13779 20.5222 4.27327 20.2208C4.44852 19.8304 4.61366 19.4393 4.83624 19.0692ZM34.0031 7.24315C34.2236 7.34816 34.464 7.53242 34.5648 7.72773C34.6191 7.83327 34.4985 7.97072 34.3599 7.91531C34.2242 7.86114 34.1329 7.77155 34.0359 7.67723C33.9513 7.59536 33.8756 7.51051 33.8165 7.41426C33.761 7.32362 33.8828 7.18582 34.0031 7.24315ZM33.5178 7.92689C33.5958 8.02314 33.6869 8.11483 33.7305 8.22563C33.7576 8.29383 33.6711 8.39078 33.5897 8.32556C33.4887 8.24456 33.4302 8.13867 33.361 8.03786C33.2969 7.94494 33.4345 7.82468 33.5178 7.92689ZM20.5294 7.01944C20.5643 6.9288 20.63 6.84308 20.7238 6.78697C20.8214 6.72877 20.8963 6.76085 20.9916 6.76348C21.057 6.76541 21.0532 6.84763 21.0078 6.86867C20.9947 6.85342 20.9893 6.85885 20.9908 6.88497L20.9783 6.90531C20.9636 6.92968 20.9453 6.95265 20.9272 6.97544C20.9018 7.00717 20.8622 7.05188 20.8679 7.09308C20.8765 7.159 20.9142 7.20738 20.9998 7.21773C21.2152 7.24367 21.2207 7.08116 21.2051 6.94301C21.195 6.8557 21.2832 6.77786 21.3892 6.8152C21.656 6.90899 21.6612 7.23543 21.5137 7.40953C21.3631 7.5873 21.0722 7.67127 20.8315 7.5631C20.5955 7.45739 20.4431 7.2435 20.5294 7.01944ZM19.0374 8.02173C19.1407 7.81503 19.3887 7.62499 19.6742 7.6846C19.7668 7.70388 19.7948 7.82275 19.7005 7.85816C19.5728 7.90655 19.4121 7.98544 19.3917 8.11605C19.3746 8.22843 19.4552 8.32416 19.5848 8.36132C19.7075 8.39656 19.8255 8.35571 19.8936 8.26578C19.9648 8.17198 19.9338 8.0738 19.9574 7.97124C19.9749 7.89533 20.0662 7.81942 20.1642 7.86535C20.4474 7.99719 20.4002 8.36518 20.2313 8.5554C20.0396 8.77174 19.6599 8.8587 19.3738 8.71178C19.0953 8.56942 18.8996 8.29733 19.0374 8.02173ZM13.6636 5.17247C13.4639 5.21209 13.271 5.23419 13.0659 5.24558C12.9643 5.25154 12.9481 5.12286 13.0442 5.10322C13.2437 5.06255 13.4353 5.0345 13.6404 5.0217C13.7484 5.01522 13.7658 5.15231 13.6636 5.17247ZM11.9097 4.73225C12.341 4.40599 13.0297 4.33218 13.5815 4.4137C13.7372 4.43684 13.757 4.68246 13.583 4.68106C13.3144 4.67896 13.035 4.69368 12.7716 4.73769C12.504 4.78222 12.2621 4.87338 12.0016 4.93264C11.8703 4.96244 11.8319 4.79116 11.9097 4.73225ZM2.7125 7.49964C2.7836 7.42162 2.91593 7.5056 2.87281 7.58852C2.68662 7.94565 2.62856 8.31066 2.61489 8.6967C2.61005 8.83538 2.4022 8.80312 2.37127 8.69215C2.25367 8.27103 2.4024 7.83975 2.7125 7.49964ZM2.82231 13.8647C2.65443 14.1023 2.31741 14.2061 2.00459 14.1061C1.71069 14.0125 1.47423 13.7585 1.55165 13.4841C1.62255 13.2339 1.80704 13.0439 2.1325 13.0618C2.18046 13.0642 2.17709 13.1222 2.14428 13.1384C1.83608 13.2895 1.63937 13.7734 2.12955 13.8507C2.32288 13.881 2.48256 13.8291 2.57134 13.6784C2.65633 13.5342 2.63571 13.4224 2.59763 13.2718C2.58859 13.236 2.6355 13.1962 2.67779 13.2155C2.93045 13.3312 2.95548 13.6759 2.82231 13.8647ZM3.18437 8.87553C3.12147 9.00895 2.91551 8.93496 2.93066 8.80733C2.96432 8.5263 3.06845 8.24105 3.21277 7.98562C3.26242 7.89761 3.38591 7.9453 3.38212 8.03155C3.3695 8.31522 3.30891 8.61115 3.18437 8.87553Z" fill="white"/>
<path d="M36.8621 8.54351C36.2964 8.38712 35.5998 8.45585 35.0264 8.60188C34.8568 8.64501 34.7413 8.42604 34.9045 8.36082C35.7883 8.00861 35.8559 6.96442 34.9045 6.60713C33.7458 6.17199 32.8401 6.83924 31.998 7.42691C31.9309 7.47372 31.8406 7.48003 31.7744 7.42691C31.2045 6.96986 29.8044 5.08852 29.0887 6.48107C28.8731 6.90096 28.6713 7.47828 28.0099 7.51281C27.4678 7.54122 27.1301 7.18111 26.8179 6.86379C26.6749 6.71827 26.4281 6.40446 26.1653 6.41778C25.651 6.4439 25.3179 7.08153 25.1061 7.40026C25.0674 7.45829 24.958 7.4895 24.8896 7.4476C23.8268 6.79647 23.2178 5.7784 22.0641 5.22667C21.7916 5.5745 21.6349 5.96231 21.4475 6.34818C21.4041 6.43689 21.2747 6.48282 21.183 6.40639C20.8052 6.09117 20.7808 5.63744 20.255 5.38341C19.7615 5.14498 19.1908 5.05031 18.6227 5.09939C17.3813 5.20704 16.11 5.81031 15.8277 6.88868C15.8096 6.95706 15.712 7.00176 15.6329 6.98073C14.3641 6.64569 11.8053 5.88973 11.7986 7.69409C11.7982 7.80033 11.6663 7.84977 11.5604 7.80787C10.6224 7.4369 9.38222 7.49633 8.46625 7.90026C8.09683 8.06331 7.61885 8.30665 7.52208 8.6778C7.38218 9.21392 7.9321 9.59015 8.40587 9.86172C8.57354 9.95779 8.42922 10.1666 8.24598 10.0895C7.91969 9.95183 7.46086 9.67886 7.0805 9.70709C6.62988 9.7404 6.27056 10.0374 5.99938 10.3158C5.52899 10.799 4.79246 11.6922 5.55591 12.2239C5.63039 12.276 5.61166 12.3965 5.52393 12.4312C3.61899 13.1833 4.18216 15.1549 5.00431 16.3937C5.09645 16.5327 4.89113 16.6432 4.75565 16.5536C4.15187 16.1542 3.36633 15.5395 2.77075 16.3467C2.69754 16.4459 2.52293 16.4242 2.48149 16.3152C2.31908 15.887 1.72561 14.5458 1.13193 15.4792C1.30065 15.8732 1.50997 16.2526 1.75464 16.6381C2.03823 17.0848 2.37756 17.5706 2.45793 18.0822C2.55722 18.7152 2.44614 19.3224 2.28668 19.9446C2.12742 20.5664 1.78157 21.4528 2.12364 22.0631C2.8772 23.4088 3.77824 21.3515 3.87522 21.1273C4.00608 20.8247 4.13735 20.5224 4.27283 20.221C4.4485 19.8306 4.61343 19.4393 4.83601 19.0692C4.66834 19.0145 4.51813 18.9465 4.40411 18.8669C3.90341 18.5177 3.94402 17.835 4.00145 17.3518C4.01744 17.2179 4.24843 17.1844 4.2985 17.3204C4.47816 17.8089 4.63678 18.4135 5.37373 18.4928C6.22848 18.5845 6.69636 18.1227 6.83478 17.4677C7.0014 16.6793 7.13099 15.8905 7.18738 15.0923C6.90505 15.0711 6.63535 14.9088 6.5106 14.5934C6.19503 13.796 6.31074 12.6759 6.57308 11.8822C6.58317 11.8519 6.63556 11.8696 6.62925 11.8977C6.4984 12.4669 6.39321 13.1067 6.62798 13.6689C6.73759 13.9314 6.86024 14.2902 7.07966 14.5029C7.2366 14.6549 7.47054 14.5848 7.66977 14.5094C7.29446 13.6782 7.44109 12.4731 7.6523 11.8517C7.69017 11.7402 7.86268 11.8088 7.85258 11.9061C7.76443 12.7483 7.47475 14.2404 8.74815 14.6514C10.1122 15.0916 10.2115 13.7462 10.4333 12.9747C10.703 12.0341 10.9594 10.7728 11.7064 9.98584C11.433 9.57665 11.2958 9.10206 11.349 8.67587C11.3549 8.62766 11.4399 8.61363 11.4567 8.66447C11.6501 9.24881 12.7127 10.853 13.7029 10.3763C14.5577 9.96498 14.9401 9.15852 15.5662 8.56717C15.684 8.45585 15.8437 8.54491 15.8403 8.67675C15.833 8.97373 15.6575 9.3689 15.3834 9.74951C18.4117 10.4858 21.435 10.3233 24.2631 9.02037C24.4102 8.9527 24.5086 9.15694 24.4003 9.23548C24.1178 9.4399 23.8173 9.62767 23.503 9.79948C24.4977 9.83191 25.5041 10.0377 26.5015 10.053C27.9155 10.0747 29.3325 9.98865 30.7374 9.86207C31.9679 9.75109 32.8607 9.68324 34.0622 9.99513C34.828 10.1939 35.8822 10.5069 36.6469 10.1261C37.3891 9.75635 37.6388 8.88695 36.8621 8.54351ZM20.2315 8.55543C20.0398 8.77177 19.6601 8.85872 19.374 8.71181C19.0955 8.56928 18.8996 8.29736 19.0374 8.02176C19.1407 7.81506 19.3887 7.62502 19.6742 7.68463C19.7668 7.70391 19.7948 7.82277 19.7005 7.85819C19.5728 7.90658 19.4121 7.98547 19.3917 8.11608C19.3746 8.22846 19.4552 8.32418 19.5848 8.36135C19.7074 8.39659 19.8255 8.35574 19.8936 8.2658C19.9647 8.17201 19.9338 8.07383 19.9574 7.97127C19.9748 7.89536 20.0661 7.81944 20.1642 7.86538C20.4473 7.99721 20.4004 8.36521 20.2315 8.55543ZM21.5135 7.40938C21.3629 7.58715 21.0719 7.67113 20.8313 7.56295C20.5957 7.45724 20.4431 7.24353 20.5294 7.0193C20.5643 6.92866 20.6299 6.84293 20.7238 6.78682C20.8214 6.72862 20.8963 6.7607 20.9916 6.76333C21.057 6.76526 21.0532 6.84748 21.0078 6.86852C20.9947 6.85327 20.9893 6.85871 20.9907 6.88483L20.9783 6.90516C20.9636 6.92953 20.9453 6.9525 20.9272 6.97529C20.9017 7.00702 20.8622 7.05173 20.8679 7.09293C20.8765 7.15885 20.9142 7.20724 20.9998 7.21758C21.2152 7.24353 21.2207 7.08101 21.2051 6.94286C21.195 6.85555 21.2832 6.77771 21.3892 6.81505C21.6555 6.90884 21.661 7.23529 21.5135 7.40938ZM33.5897 8.32558C33.4887 8.24459 33.4302 8.1387 33.361 8.03789C33.2969 7.94497 33.4344 7.8247 33.5177 7.92674C33.5958 8.02299 33.6869 8.11468 33.7304 8.22548C33.7576 8.29385 33.6711 8.3908 33.5897 8.32558ZM34.3599 7.91517C34.2242 7.86099 34.1329 7.77141 34.0359 7.67709C33.9513 7.59521 33.8756 7.51036 33.8165 7.41411C33.7609 7.32347 33.8827 7.18567 34.0031 7.243C34.2236 7.34802 34.464 7.53227 34.5648 7.72758C34.6189 7.83312 34.4983 7.97074 34.3599 7.91517Z" fill="#FAEECC"/>
<path d="M9.01429 4.57502C8.95055 4.63673 8.80897 4.62166 8.76584 4.54837C8.5197 4.12901 7.97567 4.00629 7.97988 4.60185C7.98093 4.75209 7.73458 4.7691 7.67652 4.65374C7.66347 4.6483 7.65022 4.6441 7.63781 4.63516C7.45331 4.50016 7.29006 4.33992 7.09651 4.21404C6.32149 4.05538 6.00487 4.21597 6.14709 4.69599C6.17759 4.81749 6.24113 4.92408 6.33727 5.0156C6.40922 5.09782 6.31223 5.21598 6.20073 5.21406C5.55825 5.20301 4.2779 5.66304 4.59073 6.40358C4.89641 7.12729 5.72991 6.52999 6.15677 6.31925C6.32759 6.2351 6.52324 6.24159 6.67702 6.33661C7.40513 6.7863 8.34256 6.48037 8.45617 5.71266C8.46395 5.65848 8.49782 5.59555 8.57229 5.58538C9.05174 5.52051 9.48427 5.28821 9.5579 4.85728C9.6227 4.47842 9.39108 4.21124 9.01429 4.57502Z" fill="#FAEDCA"/>
<path d="M19.6776 2.53344C19.6185 2.58113 19.5118 2.58779 19.4537 2.53344C19.2762 2.36689 19.0687 2.13758 18.8213 2.04413C17.82 1.66597 18.2729 2.61269 18.4052 2.76399C18.4658 2.83324 18.4265 2.90073 18.3573 2.93352C18.3023 2.98541 18.2026 3.01066 18.1208 2.95368C17.8153 2.7412 17.3748 2.59568 16.9789 2.72296C16.6865 2.7745 16.5661 2.92563 16.617 3.17633C16.8442 3.44439 17.232 3.36883 17.5421 3.27363C17.6273 3.24751 17.7095 3.30256 17.7367 3.36567C18.0499 4.09938 19.0643 3.62234 19.4895 3.24751C19.5394 3.20333 19.6193 3.19965 19.6811 3.22682C20.8515 3.74331 20.5182 1.85339 19.6776 2.53344Z" fill="#FAEDCA"/>
<path d="M37.6912 39.1807C37.6849 39.1984 37.678 39.2158 37.6719 39.2333C37.7928 39.2454 37.8999 39.3438 37.8865 39.47C37.8212 40.0852 37.4699 40.6818 37.1855 41.2612C37.2606 41.2845 37.3353 41.3077 37.4102 41.3294C37.4979 41.0969 37.5974 40.8673 37.6788 40.6327C37.8297 40.2034 37.9424 39.7666 38.0741 39.3336C37.9418 39.2891 37.8135 39.2388 37.6912 39.1807Z" fill="#97B3B7"/>
<path d="M38.4849 17.8657C38.6009 16.2559 38.6749 14.6444 38.6408 13.0316C38.6139 11.729 38.3718 10.3743 38.5676 9.07367C38.446 9.10786 38.3215 9.13924 38.1913 9.16518C38.145 9.1743 38.105 9.17202 38.0705 9.16255C38.177 9.41746 38.1738 9.70253 38.0011 9.97042C37.5008 10.7467 36.6928 11.0297 35.7976 11.0451C35.0049 11.232 34.1567 11.3614 33.3009 11.4499C33.7694 13.3144 34.0664 15.5378 33.6642 17.416C33.6432 17.5134 33.4816 17.5149 33.4706 17.4121C33.365 16.4068 33.4608 15.3861 33.4145 14.3763C33.3699 13.4021 33.2577 12.434 33.174 11.4624C32.3233 11.5465 31.4708 11.5954 30.6695 11.624C30.6255 11.6256 30.6015 11.5632 30.6474 11.5513C31.7188 11.2718 32.9009 10.9943 34.0755 10.8146C33.0347 10.5432 31.8911 10.003 30.7917 10.2223C29.7621 10.4278 28.7492 10.6933 27.6847 10.7436C26.1614 10.8154 24.2617 10.786 22.9289 10.0882C20.4901 11.2124 17.3731 11.4042 14.8516 10.3442C14.3951 10.7574 13.8388 11.0497 13.3123 10.9951C12.732 10.9352 12.2335 10.6254 11.8815 10.2138C11.4315 11.4834 11.1435 12.7446 10.8746 14.0543C10.7221 14.7967 10.3331 15.2545 9.40201 15.3744C8.64529 15.4719 8.15954 15.2334 7.85975 14.8337C7.78297 14.9152 7.69355 14.9787 7.59552 15.0222C7.49454 16.353 8.02805 18.4233 6.31097 19.1111C6.02086 19.2277 5.59969 19.23 5.20692 19.1597C5.05629 20.0128 4.68497 20.865 4.38729 21.6804C4.27706 21.9826 4.13295 22.3343 3.8988 22.6159C4.2516 24.0815 4.08982 25.7076 4.18344 27.1719C4.29494 28.9129 4.4523 30.6526 4.67824 32.386C4.91934 34.2345 5.20944 36.0803 5.57255 37.9151C5.91062 39.6226 6.38565 41.3473 6.56826 43.0709C6.57877 43.1704 6.49946 43.2423 6.40942 43.2614C6.34757 43.9175 6.3198 44.5882 6.44961 45.231C6.59897 45.9708 6.96544 46.6126 7.20422 47.3242C7.2221 47.3779 7.212 47.437 7.18613 47.4887C9.33532 47.9803 11.4168 48.6242 13.6335 48.9152C16.0505 49.2331 18.4972 49.3318 20.9413 49.2413C23.5954 49.1432 26.2335 48.8884 28.8628 48.5786C30.0459 48.4394 31.2388 48.3215 32.4133 48.1403C33.3011 48.0036 34.1499 47.6507 35.0196 47.4917C35.1755 46.8246 35.4823 46.2048 35.4316 45.4946C35.401 45.0623 35.2548 44.638 35.173 44.2125C35.1154 44.2574 35.044 44.263 34.9795 44.2441C33.9858 44.7059 32.6216 44.8759 31.564 45.0241C30.1709 45.2192 28.6661 45.3824 27.254 45.2774C27.2063 45.2737 27.2094 45.2097 27.2536 45.2022C28.7765 44.9476 30.2849 44.8018 31.7817 44.4257C32.8006 44.1699 33.8943 43.6943 34.9567 43.5668C35.2224 42.8039 35.5845 42.0738 35.8578 41.3123C35.8569 41.233 35.8832 41.1546 35.9316 41.0903C36.0174 40.8298 36.0942 40.5658 36.1479 40.2935C36.4153 38.9357 36.5345 37.5642 36.6728 36.194C36.9816 33.1379 37.29 30.0818 37.5984 27.026C37.9066 23.9744 38.2651 20.9228 38.4849 17.8657ZM13.8592 11.6936C16.4843 11.6831 19.1096 11.8621 21.7361 11.8801C24.2612 11.8975 26.7464 11.8375 29.2673 11.7504C29.3965 11.7459 29.4255 11.9168 29.2957 11.9345C24.3427 12.6184 18.7593 12.7839 13.8597 11.7646C13.8207 11.7567 13.8119 11.694 13.8592 11.6936ZM7.61929 23.1089C7.79916 22.858 8.07791 22.6602 8.42629 22.5279C8.65476 22.4358 8.911 22.3771 9.20068 22.3615C9.22887 22.3603 9.25138 22.3692 9.26821 22.3829C10.0333 22.4302 10.7093 22.9593 11.1183 23.4572C11.912 24.4243 11.7933 25.8582 11.8373 26.9674C11.8889 28.2697 11.9141 29.5723 11.9145 30.8751C11.9158 33.765 11.8352 36.6541 11.7685 39.5433C11.7464 40.4942 11.879 41.7136 10.7918 42.3077C10.3125 42.5696 9.78006 42.5295 9.38413 42.2634C7.49769 41.9036 7.47308 39.2563 7.31193 38.0514C6.93221 35.2105 6.66419 32.4279 6.94441 29.5705C6.9503 29.5097 7.05864 29.5127 7.06053 29.573C7.14237 32.1458 7.2667 34.7259 7.68325 37.2782C7.8141 38.0808 7.84944 38.8987 8.02237 39.6957C8.13177 40.1999 8.26388 40.759 8.61668 41.1915C8.83084 41.4546 9.09718 41.6371 9.36183 41.8396C10.8042 42.7239 11.1149 40.536 11.1309 39.7994C11.1479 38.9988 11.1654 38.1984 11.1824 37.3981C11.2203 35.6595 11.2657 33.9212 11.2805 32.1824C11.2958 30.3498 11.288 28.5162 11.202 26.685C11.161 25.8139 11.2306 24.764 10.7482 23.9643C10.4427 23.4576 9.83959 22.821 9.07593 22.8082C8.93919 22.8056 8.80707 22.8161 8.68148 22.8364C7.80968 23.4807 7.67189 24.5295 7.52589 25.4962C7.37673 26.4843 7.26923 27.4718 7.15499 28.4627C7.13627 28.6252 6.86804 28.6123 6.84679 28.4569C6.6787 27.2332 6.4555 24.4504 7.61929 23.1089ZM9.13505 19.5904C9.19416 19.5664 9.26359 19.562 9.32123 19.5908C9.43546 19.6479 9.50804 19.7402 9.49121 19.8557C9.48069 19.9283 9.43483 20.0105 9.35931 20.051C9.16913 20.153 8.93372 20.0713 8.90384 19.8758C8.88533 19.7556 8.98568 19.609 9.13505 19.5904ZM7.22 41.9348C6.74918 40.1052 6.59371 38.1699 6.3663 36.3089C6.15108 34.5462 5.99414 32.7769 5.87149 31.0085C5.62599 27.4701 5.43517 23.8913 5.75305 20.3518C5.75684 20.3092 5.83089 20.312 5.83342 20.3536C6.04295 24.0076 6.03096 27.667 6.30045 31.3195C6.43109 33.0895 6.61538 34.8544 6.79083 36.6209C6.96587 38.3845 7.34097 40.1457 7.45436 41.9101C7.46319 42.0505 7.25513 42.0712 7.22 41.9348ZM20.0689 45.8304C15.7143 46.0008 11.6278 44.9245 7.7106 43.4347C7.67904 43.4227 7.69566 43.3782 7.73079 43.3882C11.7039 44.5341 15.9192 44.9466 20.067 45.4082C20.3239 45.4371 20.3417 45.8198 20.0689 45.8304ZM13.8658 37.7403C13.9526 38.9052 14.1523 40.0856 14.1001 41.2532C14.0936 41.4027 13.8182 41.4367 13.7721 41.2881C13.3556 39.9422 13.3135 38.4925 13.2317 37.1092C13.1555 35.8143 13.1099 34.5191 13.1278 33.2226C13.166 30.4852 13.2273 27.623 13.9461 24.9416C13.9701 24.8522 14.0961 24.8784 14.0944 24.9632C14.0391 27.8386 13.6571 30.6966 13.6989 33.5788C13.7193 34.9668 13.762 36.3541 13.8658 37.7403ZM18.5485 39.651C18.6383 37.575 18.7088 35.4986 18.7988 33.423C18.8963 31.1737 18.9937 28.9236 19.0913 26.674C19.1355 25.6583 19.341 24.0654 18.1511 23.3894C16.8285 22.638 15.2532 23.3 14.4085 24.2579C14.3208 24.3575 14.1784 24.2321 14.2453 24.1397C14.9193 23.209 15.7667 22.533 17.1415 22.5116C18.2527 22.494 19.2352 23.2845 19.531 24.1376C19.9824 25.4376 19.7474 26.8526 19.6898 28.1855C19.6181 29.8432 19.5461 31.501 19.4746 33.1586C19.3984 34.9098 19.3031 36.6607 19.2272 38.412C19.1935 39.1848 19.1603 39.9572 19.1266 40.73C19.102 41.2926 19.1695 41.9639 18.9188 42.5006C18.5386 43.3153 17.5747 43.8815 16.4814 43.6866C15.2483 43.4664 14.5568 42.6597 14.0099 41.7644C13.9461 41.6601 14.1287 41.5535 14.2112 41.6578C14.6193 42.1764 15.0737 42.6433 15.7669 42.9076C16.445 43.1666 17.6264 43.3487 18.1103 42.672C18.7069 41.8373 18.5079 40.5833 18.5485 39.651ZM16.2905 20.8424C16.6652 20.8518 16.6017 21.3774 16.2133 21.3676C15.8389 21.3578 15.9026 20.832 16.2905 20.8424ZM17.682 20.3732C17.715 20.1546 18.0205 19.9493 18.283 20.0761C18.2929 20.0806 18.3024 20.0857 18.3125 20.0901C18.6312 20.2442 18.6676 20.6302 18.3165 20.778C18.3068 20.7821 18.2967 20.7864 18.287 20.7907C17.9632 20.9265 17.6424 20.6336 17.682 20.3732ZM13.4614 22.82C13.4423 22.9485 13.351 23.0437 13.2165 23.1027C13.2071 23.1071 13.1972 23.1115 13.1873 23.1159C12.8722 23.2551 12.5581 22.9574 12.5957 22.7072C12.6275 22.4968 12.9285 22.2877 13.1835 22.416C13.193 22.4211 13.2029 22.4262 13.2125 22.4308C13.3811 22.516 13.4873 22.649 13.4614 22.82ZM12.6458 20.7009C12.6433 20.7023 12.561 20.7168 12.5381 20.7191C12.1876 20.7626 12.0399 20.2801 12.3729 20.1813C12.5869 20.1176 12.8297 20.2005 12.8924 20.3923C12.9365 20.5268 12.8549 20.73 12.6458 20.7009ZM25.6954 45.556C24.2537 45.714 22.7015 45.8477 21.2485 45.7478C21.1067 45.738 21.1212 45.5541 21.247 45.5306C22.6542 45.2669 24.2036 45.2229 25.643 45.2127C25.8826 45.2108 25.9447 45.5286 25.6954 45.556ZM21.1931 43.7055C21.2093 43.6561 21.235 43.6296 21.2882 43.6047C21.3261 43.5874 21.3682 43.6014 21.3997 43.6198C21.4534 43.6513 21.4647 43.6943 21.4776 43.7451C21.4975 43.8253 21.4102 43.9103 21.3116 43.8959C21.2032 43.8805 21.1677 43.7832 21.1931 43.7055ZM21.6332 42.2642C21.0667 40.9287 21.3833 39.1746 21.365 37.7831C21.3433 36.1281 21.3215 34.4731 21.3017 32.818C21.2823 31.1931 21.2121 29.5627 21.2539 27.9378C21.2849 26.7269 21.397 25.4134 22.1413 24.3384C22.716 23.509 23.7378 22.571 25.0167 22.6629C26.0341 22.736 26.649 23.1862 26.8827 24.006C26.8962 24.0526 26.819 24.0682 26.7971 24.0265C26.1199 22.746 24.0084 23.1508 23.1877 24.0261C22.4306 24.8338 22.0708 25.8082 21.9671 26.8223C21.7542 28.8989 21.9254 31.0217 21.9536 33.1041C21.9825 35.2319 22.0075 37.3596 22.0336 39.4877C22.0445 40.3473 21.8682 41.4816 22.3319 42.2847C23.1075 43.6289 25.0411 43.3803 25.7442 42.1462C25.8334 41.9895 26.1033 42.0616 26.0694 42.233C25.6405 44.3985 22.4106 44.0963 21.6332 42.2642ZM26.8093 20.6704C27.0369 20.676 27.0008 21.0014 26.763 20.9954C26.5352 20.9898 26.5714 20.6643 26.8093 20.6704ZM27.0868 32.6547C26.9652 35.4353 27.1034 38.3417 26.544 41.0898C26.5114 41.2498 26.2447 41.2505 26.2264 41.0838C25.9312 38.3971 26.309 35.6099 26.4359 32.9195C26.5674 30.1345 26.532 27.2534 27.0937 24.5004C27.103 24.4546 27.1777 24.4548 27.1829 24.502C27.4787 27.1911 27.2044 29.9615 27.0868 32.6547ZM28.2674 43.5146C28.2535 43.5204 28.2401 43.5258 28.2321 43.5288C28.0257 43.6026 27.8231 43.4336 27.8517 43.2609C27.8528 43.256 27.8538 43.2506 27.8547 43.2455C27.8679 43.1664 27.9268 43.0742 28.024 43.0463C28.1502 43.0102 28.2479 43.0188 28.3547 43.0872C28.5348 43.2029 28.4677 43.4659 28.2674 43.5146ZM27.9752 21.6958C28.0082 21.4791 28.2163 21.3676 28.4618 21.3738C28.7088 21.3801 28.8596 21.6327 28.8327 21.811C28.7997 22.0275 28.5916 22.139 28.3461 22.1329C28.0989 22.1266 27.9483 21.8739 27.9752 21.6958ZM28.9331 40.9764C28.5422 39.2539 28.6711 37.3725 28.6507 35.6234C28.6314 33.931 28.6406 32.238 28.6966 30.5458C28.7465 29.0329 28.7629 27.4769 29.1678 25.9941C29.4771 24.8652 29.8806 23.5296 30.9994 22.7625C31.0827 22.7053 31.1725 22.7963 31.1433 22.8664C30.5662 24.2548 29.8116 25.4602 29.5705 26.9483C29.3351 28.4042 29.2911 29.8742 29.2532 31.3414C29.208 33.1062 29.1929 34.8722 29.2274 36.6374C29.2554 38.0715 29.4596 39.5549 29.297 40.9832C29.2745 41.1811 28.973 41.1511 28.9331 40.9764ZM33.1469 40.996C32.4146 42.2847 30.3868 42.8957 29.2248 41.6489C29.1094 41.5251 29.3035 41.3116 29.4565 41.4362C30.3828 42.189 31.8421 41.7886 32.4449 40.9273C33.0007 40.1322 33.0743 39.2411 33.1303 38.3431C33.2493 36.4416 33.368 34.5399 33.4862 32.6384C33.6053 30.7366 33.7239 28.8353 33.8426 26.9336C33.9316 25.5107 34.2983 22.4737 31.535 22.8401C31.4363 22.8533 31.3751 22.7193 31.4588 22.6739C32.0925 22.3313 32.9401 22.3748 33.5121 22.8161C34.3708 23.4793 34.5509 24.3307 34.5547 25.2767C34.5661 27.9885 34.2328 30.7292 34.0662 33.4375C33.9781 34.8639 33.8901 36.2901 33.8022 37.7165C33.7336 38.8338 33.7334 39.9663 33.1469 40.996ZM36.26 31.3146C36.0231 33.2973 35.7467 35.277 35.4139 37.2502C35.1015 39.1038 34.8762 41.0263 34.2581 42.8296C34.2021 42.9936 33.9522 42.8922 33.9646 42.7511C34.1352 40.7719 34.6675 38.8005 34.9858 36.8336C35.3055 34.8587 35.586 32.8797 35.8104 30.8956C36.2453 27.0474 36.499 23.1927 36.7489 19.3339C36.755 19.2372 36.9313 19.2428 36.933 19.3378C37.0119 23.3333 36.7357 27.34 36.26 31.3146ZM37.0676 18.0552C34.8726 18.7373 32.465 18.9779 30.1484 19.1881C27.6912 19.4111 25.2218 19.5422 22.7495 19.5398C19.0658 19.5361 15.2008 19.419 11.5428 18.7573C11.4757 19.9442 11.4233 21.1318 11.3389 22.3115C11.3314 22.4155 11.169 22.3992 11.1502 22.3077C10.8915 21.0552 10.8437 19.8473 10.9569 18.6455C10.2141 18.498 9.48006 18.3294 8.75974 18.1306C8.67853 18.1079 8.71388 17.9971 8.79634 18.0021C9.53686 18.0476 10.2747 18.1022 11.0118 18.1604C11.1439 17.1391 11.3867 16.1188 11.7121 15.0758C11.7355 15.001 11.8548 15.0467 11.8464 15.1125C11.7189 16.1383 11.64 17.1712 11.5762 18.2056C15.3988 18.5198 19.1902 18.929 23.0621 18.8853C25.3954 18.859 27.7297 18.7566 30.0493 18.5382C32.3615 18.3203 34.663 17.9055 36.9854 17.784C37.1556 17.775 37.2372 18.0028 37.0676 18.0552ZM37.2006 16.8507C37.1697 16.9624 36.9734 16.9754 36.9664 16.8462C36.8802 15.2487 37.1337 13.6465 37.0153 12.0374C37.0073 11.9287 37.1855 11.9073 37.1991 12.0179C37.3893 13.553 37.6209 15.333 37.2006 16.8507Z" fill="#F9DA55"/>
<path d="M37.152 17.9828C37.1394 18.0142 37.1131 18.0412 37.0678 18.0552C36.0155 18.3822 34.9142 18.6071 33.7976 18.7765C34.7415 19.2803 36.2062 19.2588 36.7012 20.0717C36.7172 19.8259 36.7334 19.5799 36.7491 19.334C36.7552 19.2372 36.9315 19.2428 36.9332 19.3378C37.0121 23.3331 36.7359 27.34 36.2602 31.3145C36.0233 33.2971 35.7469 35.2768 35.4141 37.25C35.3169 37.8261 35.2277 38.4089 35.1328 38.9925C35.1431 39.0153 35.1473 39.0407 35.137 39.0707C35.1286 39.0945 35.1179 39.1164 35.1088 39.1399C34.9046 40.3856 34.6681 41.6338 34.2583 42.8295C34.2023 42.9934 33.9524 42.8921 33.9648 42.7509C34.0292 42.0041 34.1451 41.2586 34.2816 40.5141C33.3297 41.604 31.8615 42.3177 30.2447 42.7133C29.6178 42.8667 28.9791 42.9794 28.3371 43.0779C28.3432 43.0814 28.3491 43.0832 28.3552 43.087C28.535 43.2026 28.4681 43.4655 28.2678 43.5145C28.254 43.5202 28.2405 43.5257 28.2325 43.5287C28.0261 43.6025 27.8235 43.4335 27.8521 43.2608C27.8532 43.2559 27.8542 43.2504 27.8551 43.2453C27.8606 43.2117 27.8763 43.1761 27.8978 43.1438C27.2578 43.2368 26.616 43.3213 25.9787 43.421C25.6552 43.4719 25.331 43.5216 25.0066 43.5692C24.6323 43.7294 24.1998 43.7792 23.7681 43.731C22.9971 43.8165 22.2221 43.8681 21.4407 43.854C21.4092 43.8845 21.3625 43.9031 21.3122 43.8958C21.2724 43.8903 21.2457 43.8714 21.2247 43.8484C20.0411 43.8149 18.8668 43.7075 17.6927 43.5893C17.3283 43.7194 16.9156 43.7634 16.482 43.6861C16.1439 43.6256 15.8475 43.5201 15.5828 43.3817C14.2219 43.2588 12.861 43.1554 11.5215 42.9024C10.1953 42.6515 8.60279 42.3421 7.43689 41.6903C7.44236 41.7634 7.45015 41.8367 7.45477 41.91C7.46382 42.0504 7.25576 42.0711 7.22063 41.9348C7.18255 41.7871 7.14973 41.6375 7.11565 41.4885C6.73277 41.2285 6.42856 40.9234 6.15318 40.5991C6.32737 41.4219 6.48221 42.2466 6.56951 43.0709C6.58003 43.1705 6.50072 43.2424 6.41068 43.2615C6.34883 43.9175 6.32106 44.5883 6.45086 45.231C6.60023 45.9708 6.9667 46.6127 7.20548 47.3243C7.22336 47.3779 7.21326 47.437 7.18739 47.4887C9.33658 47.9803 11.418 48.6243 13.6348 48.9153C16.0518 49.2331 18.4984 49.3318 20.9426 49.2414C23.5967 49.1432 26.2348 48.8885 28.864 48.5787C30.0472 48.4395 31.24 48.3215 32.4146 48.1404C33.3023 48.0036 34.1512 47.6507 35.0209 47.4917C35.1768 46.8246 35.4835 46.2049 35.4328 45.4947C35.4023 45.0623 35.2561 44.6381 35.1743 44.2126C35.1166 44.2575 35.0453 44.2631 34.9807 44.2441C33.9871 44.7059 32.6228 44.876 31.5653 45.0241C30.1722 45.2192 28.6674 45.3825 27.2553 45.2774C27.2076 45.2738 27.2107 45.2098 27.2549 45.2022C28.7778 44.9477 30.2862 44.8018 31.783 44.4258C32.8019 44.17 33.8956 43.6943 34.958 43.5669C35.2237 42.8039 35.5858 42.0739 35.859 41.3123C35.8582 41.233 35.8845 41.1547 35.9329 41.0903C36.0187 40.8298 36.0955 40.5658 36.1491 40.2935C36.4165 38.9357 36.5358 37.5642 36.674 36.1941C36.9829 33.1379 37.2913 30.0818 37.5997 27.026C37.9075 23.9745 38.2659 20.9227 38.4858 17.8657C38.5018 17.6434 38.5148 17.4209 38.5289 17.1986C38.2043 17.582 37.7164 17.8206 37.152 17.9828ZM20.0689 45.8304C15.7143 46.0008 11.6278 44.9245 7.71059 43.4347C7.67904 43.4228 7.69565 43.3782 7.73079 43.3882C11.7039 44.5341 15.9192 44.9466 20.067 45.4082C20.3239 45.4372 20.3417 45.8199 20.0689 45.8304ZM25.6954 45.556C24.2537 45.714 22.7015 45.8478 21.2485 45.7478C21.1067 45.738 21.1212 45.5541 21.247 45.5306C22.6542 45.2669 24.2036 45.2229 25.643 45.2128C25.8826 45.2108 25.9447 45.5287 25.6954 45.556Z" fill="#DE953D"/>
<path d="M33.4862 32.6382C33.6053 30.7364 33.7239 28.8351 33.8426 26.9334C33.9316 25.5105 34.2983 22.4735 31.535 22.8399C31.5181 22.8422 31.5032 22.8391 31.4889 22.834C31.2756 22.9532 31.0949 23.1239 30.943 23.3259C30.7646 23.7227 30.5792 24.1089 30.4013 24.4949C30.314 24.8091 30.2643 25.1099 30.2431 25.3463C30.2325 25.4623 30.0807 25.4969 29.991 25.453C29.8074 25.9301 29.6559 26.4211 29.5705 26.9481C29.3351 28.404 29.2911 29.874 29.2532 31.3412C29.208 33.106 29.1929 34.872 29.2274 36.6372C29.2553 38.0713 29.4596 39.5547 29.297 40.983C29.2913 41.0324 29.2682 41.0675 29.2364 41.0898C29.3473 41.3005 29.5253 41.4851 29.8042 41.6238C29.8349 41.639 29.852 41.659 29.864 41.6802C30.7669 42.0686 31.9244 41.6701 32.4446 40.9269C33.0004 40.1318 33.0741 39.2407 33.13 38.3427C33.2493 36.4416 33.3678 34.5397 33.4862 32.6382Z" fill="#F9DA55"/>
<path d="M5.09818 34.7129C5.11901 35.0951 5.15561 35.4779 5.19937 35.8604C5.31571 36.5464 5.43772 37.2316 5.573 37.9151C5.6725 38.4171 5.78379 38.9209 5.89571 39.4253C5.94852 39.6246 6.00911 39.8287 6.07958 40.0301C6.37053 40.3878 6.65896 40.7344 7.01638 41.0352C7.00944 41.0016 7.00376 40.9676 6.99724 40.9339C6.96063 40.8352 6.91919 40.7358 6.87669 40.6318C6.85418 40.5768 6.87627 40.5338 6.91603 40.5058C6.66716 39.1148 6.53504 37.6916 6.36653 36.3089C6.15132 34.5462 5.99438 32.7769 5.87173 31.0085C5.67461 28.1683 5.51767 25.3023 5.6258 22.4512C5.61612 22.4872 5.60792 22.5237 5.59698 22.5592C5.54607 22.7239 5.24103 22.6541 5.29173 22.4893C5.61591 21.4367 5.42931 20.2589 5.75455 19.2054C5.57636 19.208 5.38934 19.1921 5.20757 19.1595C5.05695 20.0126 4.68563 20.8648 4.38795 21.6802C4.27772 21.9824 4.13361 22.3341 3.89946 22.6157C4.25226 24.0813 4.09048 25.7074 4.1841 27.1717C4.2956 28.9127 4.45296 30.6524 4.6789 32.3858C4.77504 33.1228 4.88149 33.8592 4.99488 34.595C5.04958 34.6116 5.09482 34.6507 5.09818 34.7129Z" fill="#FFEDA1"/>
<path d="M25.9325 42.0646C26.0768 41.7695 26.1776 41.4588 26.2459 41.1408C26.2358 41.1245 26.2285 41.1057 26.2262 41.0838C25.931 38.3971 26.3088 35.6099 26.4357 32.9195C26.5577 30.3353 26.5367 27.6682 26.9818 25.0977C26.8249 24.4958 26.5743 23.9285 26.1435 23.4048C25.2252 22.9583 23.822 23.3498 23.1875 24.0265C22.4303 24.8342 22.0706 25.8086 21.9669 26.8226C21.754 28.8993 21.9252 31.022 21.9534 33.1044C21.9822 35.2323 22.0073 37.3599 22.0334 39.4881C22.0443 40.3477 21.868 41.482 22.3317 42.2851C23.1073 43.6293 25.0409 43.3807 25.744 42.1466C25.7848 42.0749 25.8626 42.053 25.9325 42.0646Z" fill="#F9DA55"/>
<path d="M35.1736 44.2125C35.116 44.2574 35.0447 44.263 34.9801 44.2441C33.9865 44.7058 32.6222 44.8759 31.5646 45.024C30.1715 45.2192 28.6667 45.3824 27.2547 45.2774C27.2069 45.2737 27.2101 45.2097 27.2543 45.2022C28.3489 45.0193 29.4359 44.8913 30.5168 44.6946C30.3645 44.7122 30.214 44.7304 30.0668 44.7513C28.6787 44.9487 27.2661 45.1787 25.8471 45.3579C25.8704 45.445 25.8279 45.5414 25.6954 45.5558C24.2537 45.7137 22.7015 45.8475 21.2485 45.7476C21.1799 45.7428 21.1485 45.6973 21.1479 45.6491C20.8525 45.6412 20.5574 45.627 20.2631 45.6089C20.274 45.7151 20.2132 45.8244 20.0687 45.8302C15.7383 45.9995 11.6734 44.9359 7.77624 43.4588C7.35991 43.3575 6.95452 43.236 6.56848 43.0715C6.57837 43.1706 6.49947 43.2421 6.40964 43.2612C6.34779 43.9173 6.32002 44.588 6.44982 45.2307C6.59919 45.9706 6.96567 46.6124 7.20444 47.324C7.22232 47.3777 7.21223 47.4368 7.18635 47.4885C9.33554 47.9801 11.417 48.624 13.6337 48.915C16.0507 49.2329 18.4974 49.3316 20.9415 49.2411C23.5956 49.143 26.2337 48.8882 28.863 48.5784C30.0462 48.4392 31.239 48.3212 32.4135 48.1401C33.3013 48.0034 34.1502 47.6505 35.0199 47.4915C35.1757 46.8244 35.4825 46.2046 35.4318 45.4944C35.4017 45.0621 35.2555 44.6378 35.1736 44.2125Z" fill="#D8EFE5"/>
<path d="M31.6376 47.2259C28.2674 47.9256 24.759 48.1852 21.2987 48.3481C18.0306 48.5018 14.5692 48.5434 11.4187 47.6889C9.97991 47.2986 8.60952 46.6898 7.45835 45.8663C7.07883 45.5947 6.64946 45.3044 6.40205 44.9297C6.4151 45.0304 6.43024 45.131 6.45044 45.2308C6.59981 45.9706 6.96628 46.6124 7.20506 47.3241C7.22294 47.3777 7.21284 47.4368 7.18696 47.4885C9.33616 47.9801 11.4176 48.624 13.6343 48.9151C16.0513 49.2329 18.498 49.3316 20.9422 49.2412C23.5962 49.143 26.2344 48.8882 28.8636 48.5785C30.0468 48.4393 31.2396 48.3213 32.4141 48.1402C33.3019 48.0034 34.1508 47.6505 35.0205 47.4915C35.141 46.9764 35.3497 46.489 35.4158 45.9669C34.338 46.6035 32.9375 46.9561 31.6376 47.2259Z" fill="#97B3B7"/>
<path d="M8.97743 43.7209C9.24208 43.7869 9.50716 43.8502 9.7737 43.9108C9.52315 43.8458 9.27133 43.7834 9.01698 43.7292C9.00394 43.7264 8.99048 43.7239 8.97743 43.7209Z" fill="#F9DA55"/>
<path d="M7.46696 17.7896C7.87089 17.9069 8.29521 17.9824 8.7248 18.0399C8.73805 18.0175 8.76309 18.0003 8.79654 18.0022C9.53706 18.0478 10.2748 18.1023 11.012 18.1606C11.1441 17.1393 11.3869 16.119 11.7123 15.076C11.7357 15.0012 11.855 15.0469 11.8466 15.1127C11.7191 16.1384 11.6402 17.1714 11.5764 18.2058C15.399 18.52 19.1903 18.9291 23.0623 18.8855C25.3956 18.8592 27.7299 18.7568 30.0495 18.5384C32.2029 18.3353 34.3468 17.9649 36.507 17.8162C37.1697 17.6656 37.818 17.4567 38.3307 17.0876C38.3987 17.0387 38.4788 17.0492 38.5358 17.0841C38.6202 15.7343 38.6698 14.3837 38.6412 13.0318C38.6143 11.7292 38.3722 10.3745 38.568 9.07385C38.4464 9.10804 38.3219 9.13942 38.1917 9.16537C38.1454 9.17449 38.1054 9.17221 38.0709 9.16274C38.1774 9.41765 38.1742 9.70272 38.0015 9.9706C37.5012 10.7469 36.6932 11.0299 35.798 11.0453C35.0053 11.2322 34.1571 11.3616 33.3013 11.4501C33.7698 13.3146 34.0668 15.538 33.6646 17.4162C33.6436 17.5136 33.482 17.515 33.471 17.4123C33.3654 16.407 33.4612 15.3863 33.4149 14.3765C33.3703 13.4023 33.2581 12.4342 33.1744 11.4626C32.3237 11.5467 31.4712 11.5956 30.6699 11.6242C30.6259 11.6258 30.6019 11.5634 30.6478 11.5514C31.7192 11.272 32.9014 10.9945 34.0759 10.8148C33.0351 10.5434 31.8915 10.0032 30.7921 10.2225C29.7625 10.428 28.7496 10.6934 27.6851 10.7437C26.1618 10.8156 24.2621 10.7862 22.9293 10.0884C20.4905 11.2126 17.3735 11.4043 14.852 10.3444C14.3955 10.7576 13.8392 11.0499 13.3127 10.9953C12.7324 10.9354 12.2339 10.6256 11.8819 10.2139C11.4319 11.4836 11.1439 12.7448 10.875 14.0544C10.7225 14.7969 10.3335 15.2547 9.40242 15.3746C8.6457 15.4721 8.15994 15.2336 7.86016 14.8339C7.78337 14.9154 7.69396 14.9789 7.59592 15.0224C7.53449 15.8304 7.70637 16.9111 7.46696 17.7896ZM37.015 12.0376C37.007 11.9289 37.1852 11.9075 37.1989 12.0181C37.3893 13.5532 37.6209 15.3332 37.2006 16.8509C37.1697 16.9626 36.9734 16.9756 36.9664 16.8464C36.8802 15.2489 37.1337 13.6465 37.015 12.0376ZM13.8592 11.6936C16.4843 11.6831 19.1096 11.8621 21.7361 11.8802C24.2612 11.8975 26.7464 11.8376 29.2673 11.7504C29.3965 11.7459 29.4255 11.9168 29.2957 11.9345C24.3426 12.6184 18.7593 12.7839 13.8596 11.7646C13.8207 11.7567 13.8119 11.694 13.8592 11.6936Z" fill="white"/>
<path d="M37.3702 15.9919C37.3325 16.2848 37.2776 16.5725 37.2006 16.8508C37.1697 16.9624 36.9734 16.9754 36.9664 16.8462C36.953 16.6015 36.9498 16.3564 36.95 16.1115C36.2276 16.3029 35.5037 16.43 34.9327 16.5291C34.5494 16.5955 34.1653 16.6583 33.7803 16.7188C33.7511 16.9554 33.7132 17.1884 33.6644 17.4163C33.6434 17.5138 33.4818 17.5152 33.4708 17.4125C33.4488 17.1997 33.4366 16.9859 33.429 16.7721C32.2805 16.9465 31.1268 17.0957 29.9677 17.2172C27.9712 17.4263 25.9213 17.7165 23.9053 17.6942C21.9858 17.673 20.0933 17.4248 18.1841 17.2887C16.535 17.1712 14.7529 17.4504 13.1435 17.0734C12.793 16.9914 12.5084 16.8892 12.1884 16.7465C12.0134 16.6684 11.8504 16.6337 11.6911 16.6186C11.6459 17.1469 11.6091 17.6762 11.5764 18.206C15.399 18.5201 19.1904 18.9293 23.0623 18.8857C25.3956 18.8594 27.7299 18.757 30.0495 18.5386C32.2029 18.3355 34.3468 17.9651 36.507 17.8164C37.1697 17.6658 37.818 17.4568 38.3307 17.0878C38.3987 17.0389 38.4788 17.0494 38.5358 17.0843C38.5687 16.5575 38.5939 16.0301 38.6139 15.5029C38.235 15.6981 37.8086 15.8585 37.3702 15.9919Z" fill="#FBFCDE"/>
<path d="M10.7145 16.6407C10.3373 16.6348 9.85578 16.5845 9.65087 16.2841C9.50424 16.0692 9.77562 15.7699 9.8867 15.5946C9.97359 15.4572 10.0396 15.3183 10.0954 15.1789C9.90648 15.2727 9.67885 15.3388 9.40242 15.3744C8.6457 15.4719 8.15994 15.2335 7.86016 14.8337C7.78337 14.9153 7.69396 14.9787 7.59592 15.0222C7.53449 15.8304 7.70637 16.9111 7.46696 17.7896C7.87089 17.9069 8.29521 17.9824 8.7248 18.0399C8.73805 18.0175 8.76309 18.0003 8.79654 18.0023C9.53706 18.0478 10.2748 18.1024 11.012 18.1606C11.0785 17.6462 11.1734 17.1318 11.2926 16.615C11.1069 16.6253 10.9182 16.6439 10.7145 16.6407Z" fill="#FBFCDE"/>
<path d="M33.5495 12.5662C34.1222 12.6928 34.6813 12.8944 35.274 12.897C35.9158 12.8998 36.3614 12.6608 36.9439 12.5271C36.9744 12.5201 37.0064 12.518 37.0375 12.5141C37.0325 12.3553 37.0268 12.1966 37.0152 12.0376C37.0072 11.9289 37.1854 11.9075 37.1991 12.0181C37.2189 12.1778 37.2389 12.3405 37.2591 12.505C37.6133 12.522 37.9931 12.6496 38.3372 12.6181C38.4363 12.6091 38.5312 12.5946 38.6236 12.5769C38.5634 11.4157 38.3947 10.2238 38.5678 9.07385C38.4462 9.10804 38.3217 9.13942 38.1914 9.16537C38.1452 9.17449 38.1052 9.17221 38.0707 9.16274C38.1771 9.41765 38.174 9.70272 38.0013 9.9706C37.501 10.7469 36.6929 11.0299 35.7978 11.0453C35.0051 11.2322 34.1569 11.3616 33.3011 11.4501C33.3917 11.8104 33.4755 12.1843 33.5495 12.5662Z" fill="#FAEECC"/>
<path d="M11.8091 12.3742C12.0208 12.3254 12.2919 12.3759 12.5128 12.3738C12.7722 12.3714 13.0966 12.5914 13.2447 12.7523C13.6303 13.1714 13.9308 13.1705 14.5419 13.0637C14.7609 13.0255 15.054 13.0181 15.2746 13.0741C15.7509 13.1948 16.065 13.4999 16.5095 13.6582C17.3641 13.962 17.885 13.253 18.7012 13.3113C19.4561 13.3649 20.1932 13.8558 20.9558 13.6607C21.5724 13.5027 22.0971 13.1798 22.7396 13.0863C23.2567 13.0111 23.5735 13.2222 24.0061 13.4056C24.9319 13.7979 25.9447 13.0849 26.8419 12.9282C27.4537 12.8214 28.0573 12.8318 28.6701 12.9308C29.6765 13.0935 30.6442 13.2916 31.5642 12.7841C32.0273 12.5285 32.3847 12.4343 32.9428 12.4727C33.0532 12.4803 33.1626 12.495 33.2716 12.5129C33.2386 12.1629 33.2051 11.8132 33.1749 11.4629C32.3241 11.547 31.4717 11.5959 30.6703 11.6245C30.6264 11.6261 30.6024 11.5637 30.6482 11.5518C31.7197 11.2723 32.9018 10.9948 34.0763 10.8151C33.0356 10.5437 31.892 10.0035 30.7926 10.2229C29.763 10.4283 28.75 10.6938 27.6855 10.7441C26.1622 10.816 24.2625 10.7865 22.9298 10.0887C20.4909 11.2129 17.374 11.4047 14.8524 10.3447C14.3959 10.7579 13.8397 11.0502 13.3131 10.9957C12.7329 10.9357 12.2343 10.6259 11.8823 10.2143C11.6648 10.8281 11.4854 11.4401 11.3276 12.0563C11.3539 12.2769 11.4645 12.4536 11.8091 12.3742ZM13.8592 11.6936C16.4843 11.6831 19.1096 11.8621 21.7361 11.8801C24.2612 11.8975 26.7464 11.8375 29.2673 11.7504C29.3965 11.7458 29.4255 11.9168 29.2957 11.9345C24.3427 12.6184 18.7593 12.7839 13.8596 11.7646C13.8207 11.7567 13.8119 11.694 13.8592 11.6936Z" fill="#FAEECC"/>
<path d="M40.0716 15.8281C40.0663 15.9111 40.0604 15.9938 40.0529 16.0767C40.0716 15.9945 40.0899 15.9144 40.108 15.8339C40.0958 15.832 40.0838 15.8301 40.0716 15.8281Z" fill="#F9DA55"/>
<path d="M44.0632 16.3118C42.7905 16.1282 41.5141 16.035 40.2489 15.8531C40.2994 16.7962 40.3709 17.8598 40.0692 18.7604C40.0238 18.8965 39.8075 18.8393 39.7892 18.7215C39.751 18.4734 39.7415 18.2159 39.752 17.9542C39.6693 18.3509 39.5824 18.7464 39.5 19.14C40.7906 18.1922 43.1668 18.5771 44.3073 19.7627C45.3734 20.8714 45.7452 22.257 45.8028 23.6544C45.8704 25.2826 45.8024 26.9178 45.6038 28.5384C45.3764 30.3917 45.0259 32.2338 44.5568 34.0557C44.2183 35.3723 43.885 36.8327 42.8696 37.9237C42.0457 38.8094 40.8476 39.5964 39.4308 39.5647C39.0603 39.5562 38.6671 39.5024 38.2939 39.4C38.2407 40.0578 38.0846 40.7991 37.7867 41.4313C41.2152 42.3008 44.9599 41.564 46.4156 38.4516C47.0449 37.1065 47.3085 35.69 47.5624 34.2694C47.8555 32.6301 48.1483 30.9909 48.4416 29.3519C49.0186 26.1241 49.9533 22.3567 48.2781 19.2466C47.4547 17.7192 46.1016 16.606 44.0632 16.3118ZM46.492 27.5104C46.4611 27.5894 46.431 27.6645 46.3854 27.7386C46.3231 27.841 46.1651 27.793 46.176 27.682C46.1861 27.5878 46.212 27.5002 46.2389 27.4085C46.2842 27.2532 46.5492 27.3636 46.492 27.5104ZM46.4236 26.2503C46.3729 26.3783 46.1453 26.3401 46.1388 26.2109C46.0572 24.5664 46.5907 22.9318 45.9181 21.3122C45.3419 19.9237 44.2856 18.7184 42.4917 18.3653C42.3083 18.329 42.3297 18.0753 42.53 18.0944C47.032 18.5232 47.5477 23.4085 46.4236 26.2503Z" fill="#D8EFE5"/>
<path d="M6.40982 43.2615C6.40099 43.3554 6.3932 43.4499 6.38605 43.5444C6.65596 43.9597 7.38828 44.4385 7.55847 44.5306C8.13595 44.8432 8.7534 45.0897 9.40725 45.2718C10.5393 45.5876 11.7159 45.8279 12.8805 46.0462C15.7978 46.5932 18.8005 46.6914 21.7813 46.667C24.7116 46.643 27.6893 46.5679 30.5418 45.9528C31.6393 45.7161 32.7286 45.4198 33.7828 45.0709C34.2564 44.914 34.7731 44.7383 35.2388 44.5064C35.2155 44.4082 35.1925 44.3104 35.1738 44.2124C35.1162 44.2573 35.0449 44.2629 34.9803 44.2439C33.9867 44.7057 32.6224 44.8758 31.5648 45.0239C30.1717 45.219 28.6669 45.3823 27.2549 45.2773C27.2071 45.2736 27.2103 45.2096 27.2544 45.202C28.349 45.0192 29.436 44.8912 30.517 44.6945C30.3646 44.712 30.2142 44.7303 30.067 44.7511C28.6789 44.9485 27.2662 45.1785 25.8472 45.3577C25.8706 45.4449 25.8281 45.5413 25.6956 45.5557C24.2539 45.7136 22.7017 45.8474 21.2487 45.7475C21.1801 45.7427 21.1487 45.6971 21.1481 45.6489C20.8527 45.641 20.5576 45.6268 20.2632 45.6088C20.2742 45.715 20.2134 45.8242 20.0689 45.83C15.7385 45.9994 11.6736 44.9357 7.77642 43.4587C7.36008 43.3574 6.95469 43.2359 6.56865 43.0714C6.57854 43.1708 6.49965 43.2422 6.40982 43.2615Z" fill="white"/>
<path d="M48.0818 25.4202C48.04 25.5861 48.0212 25.7532 48.0261 25.922C48.4994 26.1865 48.7603 26.1299 48.8089 25.7525C48.9475 25.2668 48.94 24.7696 48.8792 24.2752C48.7401 23.1432 48.6082 21.9882 48.324 20.8753C48.0587 19.8365 47.4623 18.981 46.8896 18.0653C46.3599 17.474 45.6223 16.9158 44.8126 16.792C44.651 16.7673 43.5712 16.7061 43.7319 17.1046C43.8011 17.276 43.9395 17.4154 44.095 17.5392C44.3803 17.7664 44.6914 17.9671 45.0171 18.1524C45.6697 18.5241 46.3086 18.8593 46.8177 19.3758C47.4135 19.9803 47.8477 20.852 48.0395 21.6129C48.3042 22.6634 48.3456 23.8303 48.1837 24.8962C48.1565 25.0724 48.1157 25.2449 48.0818 25.4202Z" fill="white"/>
<path d="M46.9365 17.5645C47.0169 17.6986 47.1008 17.8311 47.1858 17.9631C47.3472 18.1437 47.494 18.3318 47.6211 18.5252C47.6482 18.5662 47.6453 18.6055 47.6274 18.6386C47.85 18.9793 48.0654 19.3231 48.247 19.6812C48.5781 20.3352 48.7113 21.071 48.8293 21.7694C48.9481 22.4726 49.0449 23.179 49.1438 23.8843C49.1631 24.0212 49.1833 24.1615 49.2008 24.3031C49.3033 22.5529 49.123 20.8161 48.2775 19.247C47.9282 18.5992 47.4827 18.0268 46.9311 17.5588C46.933 17.5611 46.9351 17.562 46.9365 17.5645Z" fill="#D7EDF4"/>
<path d="M48.1611 27.3216C47.7559 27.1151 47.6888 27.8856 47.7566 28.0786C47.7835 28.1551 47.8554 28.3356 47.9211 28.3484C47.924 28.349 47.9232 28.3493 47.9246 28.3498C47.9263 28.3491 47.9253 28.349 47.928 28.3483C47.9451 28.3439 47.9404 28.3465 47.9657 28.3311C47.9907 28.3156 48.0292 28.2785 48.0519 28.2497C48.1676 28.103 48.3965 27.5481 48.256 27.3384C48.2257 27.3412 48.1943 27.3386 48.1611 27.3216Z" fill="white"/>
<path d="M44.307 19.7628C45.3732 20.8715 45.7449 22.257 45.8026 23.6545C45.8701 25.2826 45.8022 26.9178 45.6036 28.5385C45.3761 30.3917 45.0257 32.2338 44.5565 34.0557C44.517 34.2089 44.4778 34.3643 44.4374 34.5206C44.9543 33.5219 45.2823 32.4396 45.5501 31.4068C45.8648 30.1936 46.0748 28.9841 46.2122 27.7676C46.1882 27.7478 46.1724 27.7189 46.1758 27.6819C46.1859 27.5877 46.2118 27.5001 46.2387 27.4084C46.2416 27.3984 46.2475 27.3924 46.2519 27.3847C46.2875 27.0307 46.3184 26.6761 46.3426 26.3205C46.2576 26.3465 46.1434 26.3021 46.1388 26.2108C46.0571 24.5663 46.5906 22.9316 45.9181 21.3121C45.3419 19.9235 44.2856 18.7182 42.4917 18.3651C42.384 18.3438 42.3486 18.2482 42.377 18.1762C42.0095 18.0059 41.6735 17.8071 41.4619 17.5534C41.0054 17.007 41.1716 16.4305 41.6199 16.0222C41.1621 15.9714 40.7048 15.9184 40.2489 15.8528C40.2994 16.7959 40.3709 17.8595 40.0692 18.7601C40.0238 18.8962 39.8075 18.839 39.7892 18.7212C39.7509 18.4731 39.7414 18.2156 39.752 17.9538C39.6693 18.3506 39.5824 18.7461 39.4999 19.1397C40.7904 18.1923 43.1666 18.5771 44.307 19.7628Z" fill="#97B3B7"/>
<path d="M44.055 39.7958C43.0568 40.0615 41.1687 40.3108 40.4553 39.4448C40.1294 39.5289 39.7869 39.5726 39.431 39.5649C39.0605 39.5565 38.6673 39.5026 38.2941 39.4002C38.2409 40.058 38.0848 40.7993 37.7869 41.4315C41.122 42.2772 44.7554 41.6024 46.2907 38.7004C45.6979 39.1744 44.9685 39.5526 44.055 39.7958Z" fill="#97B3B7"/>
<path d="M2.14679 13.0378C1.85226 13.0378 1.62085 13.2427 1.62085 13.4882V13.5332C1.62085 13.7787 1.85226 13.9834 2.14679 13.9834C2.44131 13.9834 2.67273 13.7787 2.67273 13.5332V13.4882C2.67273 13.2426 2.44131 13.0378 2.14679 13.0378Z" fill="white"/>
<path d="M19.7131 7.72406C19.082 7.72406 19.082 8.62467 19.7131 8.62467C20.3442 8.62467 20.3442 7.72406 19.7131 7.72406Z" fill="white"/>
<path d="M20.9754 6.50824C20.3443 6.50824 20.3443 7.40885 20.9754 7.40885C22.0273 7.40885 22.0273 6.50824 20.9754 6.50824Z" fill="white"/>
<path d="M28.7593 7.22864C28.1281 7.22864 28.1281 8.12924 28.7593 8.12924C29.8111 8.12924 29.8111 7.22864 28.7593 7.22864Z" fill="white"/>
<path d="M10.2462 5.83276C9.61511 5.83276 9.61511 6.73337 10.2462 6.73337C10.8774 6.73337 10.8774 5.83276 10.2462 5.83276Z" fill="white"/>
<path d="M13.6122 8.53455C12.7707 8.53455 12.7707 9.43515 13.6122 9.43515C14.2434 9.43533 14.2434 8.53455 13.6122 8.53455Z" fill="white"/>
<path d="M32.9668 4.97699C32.2696 4.97699 32.2696 5.87759 32.9668 5.87759C33.6638 5.87759 33.6638 4.97699 32.9668 4.97699Z" fill="white"/>
<path d="M9.29953 19.4321C9.005 19.4321 8.77359 19.6371 8.77359 19.8825V19.9726C8.77359 20.2181 9.005 20.4228 9.29953 20.4228C9.59405 20.4228 9.82547 20.2181 9.82547 19.9726V19.8825C9.82547 19.6371 9.59405 19.4321 9.29953 19.4321Z" fill="white"/>
<path d="M12.8652 19.9727C12.5707 19.972 12.325 20.1781 12.325 20.4229C12.325 20.5686 12.4123 20.6981 12.5437 20.7809C12.643 20.8904 12.7985 20.9632 12.9733 20.9632C13.267 20.9632 13.5144 20.7586 13.5136 20.513C13.5123 20.188 13.2557 19.9737 12.8652 19.9727Z" fill="white"/>
<path d="M16.7531 20.9656C16.6538 20.8561 16.4984 20.7831 16.3236 20.7831C16.0297 20.7831 15.7825 20.9879 15.7833 21.2335C15.7846 21.5586 16.0417 21.7728 16.4317 21.7739C16.7264 21.7746 16.9721 21.5684 16.9721 21.3236C16.9721 21.178 16.8846 21.0484 16.7531 20.9656Z" fill="white"/>
<path d="M18.7664 20.0627C18.4719 20.0627 18.2405 20.2675 18.2405 20.513V20.6031C18.2405 20.8487 18.4719 21.0535 18.7664 21.0535C19.0612 21.0535 19.2924 20.8487 19.2924 20.6031V20.513C19.2924 20.2675 19.0612 20.0627 18.7664 20.0627Z" fill="white"/>
<path d="M28.9179 21.3653C28.8819 21.3353 28.8457 21.3052 28.8097 21.2752C28.6017 21.1018 28.2539 21.1018 28.0455 21.2752C27.8374 21.4486 27.8374 21.7386 28.0455 21.912C28.0814 21.9421 28.1176 21.9723 28.1538 22.0021C28.3619 22.1756 28.7096 22.1756 28.9179 22.0021C29.1259 21.8287 29.1259 21.5387 28.9179 21.3653Z" fill="white"/>
<path d="M26.5503 20.2428C26.2558 20.2428 26.0244 20.4475 26.0244 20.693V20.7831C26.0244 21.0287 26.2558 21.2335 26.5503 21.2335C26.8448 21.2335 27.0763 21.0287 27.0763 20.7831V20.693C27.0763 20.4475 26.8448 20.2428 26.5503 20.2428Z" fill="white"/>
<path d="M13.8424 22.3242C13.7435 22.2084 13.5838 22.1294 13.4056 22.1341C13.2308 22.1387 13.0633 22.1723 12.9359 22.2788C12.7699 22.4167 12.7082 22.6692 12.8481 22.8373C13.0055 23.0268 13.2434 23.1126 13.5138 23.1248C13.8081 23.138 14.054 22.9099 14.054 22.6744C14.054 22.5261 13.9694 22.4041 13.8424 22.3242Z" fill="white"/>
<path d="M32.9668 20.1695H32.8587C32.5641 20.1695 32.3184 20.45 32.3184 20.6955C32.3184 20.9409 32.5641 21.2214 32.8587 21.2214H32.9668C33.2613 21.2214 33.507 20.9409 33.507 20.6955C33.507 20.45 33.2613 20.1695 32.9668 20.1695Z" fill="white"/>
<path d="M22.3756 21.7738C22.2008 21.7738 22.0454 21.8466 21.9461 21.9562C21.8146 22.0389 21.7271 22.1685 21.7271 22.3142C21.7271 22.5591 21.9728 22.7651 22.2675 22.7644C22.6578 22.7633 22.9146 22.5493 22.9159 22.224C22.9167 21.9786 22.6695 21.7738 22.3756 21.7738Z" fill="white"/>
<path d="M2.67777 13.2155C2.63527 13.1962 2.58857 13.236 2.59761 13.2718C2.6359 13.4224 2.65652 13.5343 2.57132 13.6784C2.48275 13.829 2.32286 13.881 2.12953 13.8507C1.63935 13.7736 1.83605 13.2895 2.14425 13.1384C2.17707 13.1223 2.18044 13.0642 2.13247 13.0618C1.80702 13.0439 1.62252 13.2338 1.55163 13.4841C1.474 13.7583 1.71046 14.0125 2.00457 14.1061C2.31739 14.2059 2.65441 14.1023 2.82229 13.8647C2.95546 13.6759 2.93043 13.3312 2.67777 13.2155Z" fill="#231405"/>
<path d="M2.61506 8.69689C2.62873 8.31084 2.6868 7.94566 2.87298 7.58871C2.91611 7.50578 2.78378 7.42181 2.71267 7.49982C2.40237 7.83976 2.25363 8.27122 2.37144 8.69233C2.40237 8.80313 2.61001 8.83557 2.61506 8.69689Z" fill="#231405"/>
<path d="M3.21275 7.98566C3.06843 8.24092 2.96429 8.52634 2.93063 8.80737C2.91549 8.935 3.12124 9.00899 3.18435 8.87557C3.30889 8.61119 3.36948 8.31526 3.3821 8.03177C3.38589 7.94534 3.2624 7.89765 3.21275 7.98566Z" fill="#231405"/>
<path d="M20.8311 7.56312C21.0719 7.67111 21.3627 7.58731 21.5133 7.40954C21.6608 7.23545 21.6555 6.90901 21.3888 6.81521C21.2827 6.77787 21.1946 6.85571 21.2047 6.94302C21.2203 7.08117 21.2148 7.24386 20.9994 7.21774C20.9137 7.2074 20.8761 7.15901 20.8675 7.09309C20.862 7.05171 20.9013 7.00719 20.9268 6.97545C20.9449 6.95266 20.9632 6.92969 20.9779 6.90533L20.9903 6.88499C20.9888 6.85887 20.9945 6.85343 21.0074 6.86868C21.0528 6.84765 21.0564 6.76542 20.9912 6.76349C20.8959 6.76087 20.8208 6.72878 20.7233 6.78699C20.6295 6.84309 20.5639 6.92882 20.529 7.01946C20.4431 7.24351 20.5954 7.4574 20.8311 7.56312Z" fill="#231405"/>
<path d="M19.374 8.71181C19.6601 8.85872 20.0398 8.77177 20.2315 8.55542C20.4004 8.36503 20.4473 7.99721 20.1644 7.86537C20.0661 7.81944 19.975 7.89535 19.9576 7.97127C19.9342 8.07365 19.965 8.17201 19.8938 8.2658C19.8257 8.35591 19.7077 8.39676 19.585 8.36135C19.4554 8.32418 19.3748 8.22846 19.3919 8.11608C19.4123 7.98547 19.5728 7.90657 19.7007 7.85819C19.795 7.8226 19.767 7.70391 19.6744 7.68462C19.3889 7.62502 19.1409 7.81524 19.0376 8.02176C18.8996 8.29736 19.0953 8.56945 19.374 8.71181Z" fill="#231405"/>
<path d="M34.0359 7.67729C34.1329 7.77161 34.2242 7.8612 34.3599 7.91537C34.4983 7.97077 34.6188 7.83333 34.5648 7.72778C34.4642 7.53248 34.2235 7.34822 34.0031 7.24321C33.883 7.18588 33.7611 7.32368 33.8165 7.41431C33.8756 7.51056 33.9513 7.59524 34.0359 7.67729Z" fill="#231405"/>
<path d="M33.5897 8.32557C33.6711 8.39079 33.7576 8.29384 33.7304 8.22564C33.6869 8.11484 33.5958 8.02297 33.5177 7.9269C33.4344 7.82469 33.2969 7.94513 33.361 8.03805C33.4302 8.13868 33.4885 8.24457 33.5897 8.32557Z" fill="#231405"/>
<path d="M12.0016 4.93264C12.2621 4.87338 12.504 4.78239 12.7716 4.73768C13.035 4.69368 13.3144 4.67895 13.583 4.68106C13.757 4.68246 13.7372 4.43684 13.5815 4.4137C13.0297 4.33218 12.341 4.40599 11.9097 4.73225C11.8319 4.79116 11.8704 4.96244 12.0016 4.93264Z" fill="#231405"/>
<path d="M13.0444 5.10342C12.9481 5.12306 12.9643 5.25174 13.0661 5.24578C13.2712 5.23439 13.4641 5.2123 13.6638 5.17268C13.766 5.15234 13.7486 5.01524 13.6409 5.0219C13.4355 5.03453 13.2439 5.06258 13.0444 5.10342Z" fill="#231405"/>
<path d="M20.0672 45.4083C15.9194 44.9466 11.7042 44.5342 7.731 43.3883C7.69587 43.3782 7.67904 43.4227 7.71081 43.4348C11.628 44.9246 15.7145 46.0009 20.0691 45.8305C20.3417 45.8198 20.3239 45.4371 20.0672 45.4083Z" fill="#231405"/>
<path d="M25.6432 45.2126C24.2038 45.2229 22.6546 45.2668 21.2472 45.5304C21.1214 45.5541 21.1069 45.738 21.2487 45.7477C22.7015 45.8476 24.2537 45.714 25.6956 45.5559C25.9447 45.5287 25.8826 45.2108 25.6432 45.2126Z" fill="#231405"/>
<path d="M48.9012 18.7316C48.1895 17.413 46.9708 16.377 45.3493 15.8553C43.584 15.2876 41.3706 15.252 39.4356 15.3467C39.4558 14.6638 39.4659 13.9808 39.4594 13.2974C39.4466 11.8877 39.4775 10.3217 38.8352 8.99021C40.1113 8.5421 40.709 7.60854 39.804 6.43093C39.075 5.48229 37.595 5.09484 36.1224 5.04294C36.1224 5.04224 36.1224 5.04136 36.1224 5.04066C35.912 3.82501 34.2997 3.07676 32.9906 2.77609C31.8762 2.52013 30.6661 2.72945 29.7062 3.25926C29.3578 2.50242 28.324 2.02766 27.4558 1.75276C25.9081 1.26292 24.224 2.05343 22.7674 1.47243C22.1903 1.24224 21.7494 0.807099 21.2022 0.533604C20.5298 0.197695 19.8612 0.0484992 19.0818 0.00712425C17.732 -0.0645806 16.3381 0.414388 15.2204 1.02028C14.0646 0.101096 11.9572 0.201027 10.5395 0.534481C9.75186 0.719616 8.80601 1.19367 8.36822 1.83849C6.65997 1.21752 3.09621 2.95667 3.36276 4.65777C2.06537 5.04522 1.17422 6.25491 0.71371 7.27193C0.31589 8.15062 0.105514 9.66115 1.05599 10.3528C-0.0503739 11.5898 -0.173024 13.4333 0.167994 14.8877C0.33966 15.6205 0.710973 16.3039 1.14876 16.9501C1.54133 17.5299 1.89581 18.0694 2.02834 18.7324C2.14468 19.3134 1.8571 19.9362 1.69722 20.4891C1.42899 21.4178 1.18495 23.4751 3.10315 23.101C3.16963 23.0882 3.23148 23.0694 3.29123 23.0486C3.10484 24.3151 3.29439 25.6917 3.36023 26.9087C3.46079 28.7667 3.63919 30.6218 3.87018 32.4715C4.10117 34.3222 4.41337 36.1639 4.78111 37.9989C5.11224 39.6495 5.45746 41.377 6.11846 42.9657C5.29947 44.2958 5.41939 46.2673 6.65387 47.3917C6.59517 47.4247 6.58424 47.5199 6.64503 47.5581C8.52705 48.7426 10.8633 49.2228 13.1494 49.5822C15.6108 49.9691 18.1378 50.0382 20.6358 49.9836C23.429 49.9226 26.2114 49.6339 28.9766 49.315C30.279 49.1647 31.5865 49.0239 32.8797 48.8253C33.8384 48.6784 35.0695 48.4852 35.677 47.8011C35.7176 47.7552 35.7301 47.7001 35.7244 47.6463C36.4506 46.6044 36.5524 44.6808 35.6348 43.7648C36.1119 43.1974 36.3778 42.4967 36.5892 41.8175C40.0423 43.0549 44.1444 42.7646 46.3969 39.9779C47.3905 38.7484 47.7898 37.227 48.0972 35.7906C48.5215 33.8078 48.8217 31.8027 49.1775 29.8107C49.8216 26.1983 50.7755 22.2053 48.9012 18.7316ZM37.4101 41.3291C37.335 41.3073 37.2603 41.2842 37.1854 41.2609C37.4699 40.6815 37.8214 40.0849 37.8864 39.4697C37.8999 39.3434 37.793 39.2453 37.6718 39.233C37.6779 39.2155 37.6849 39.1981 37.6912 39.1804C37.8134 39.2384 37.9417 39.2887 38.0741 39.3331C37.9424 39.7661 37.8296 40.2028 37.6788 40.6322C37.5974 40.8671 37.4978 41.0966 37.4101 41.3291ZM37.3253 37.9044C37.3556 37.6055 37.3849 37.3066 37.4147 37.0091C37.7352 33.8353 38.0553 30.6619 38.3757 27.4881C38.6215 25.0533 38.8897 22.6192 39.1108 20.1823C39.8141 19.2565 41.1613 19.0161 42.3872 19.419C43.5712 19.8082 44.2484 20.8266 44.6146 21.7779C45.0381 22.8785 44.9742 24.1504 44.9596 25.2889C44.943 26.5682 44.8214 27.846 44.6529 29.1168C44.3502 31.3996 43.932 33.7922 43.0648 35.9775C42.2079 38.1385 39.5349 39.7866 37.3253 37.9044ZM40.108 15.8339C40.0899 15.9144 40.0716 15.9945 40.0529 16.0767C40.0604 15.9938 40.0663 15.911 40.0716 15.8281C40.0838 15.83 40.0958 15.832 40.108 15.8339ZM2.12386 22.0631C1.78179 21.4527 2.12785 20.5664 2.2869 19.9446C2.44636 19.3224 2.55744 18.7152 2.45814 18.0822C2.37778 17.5706 2.03844 17.0848 1.75486 16.6381C1.32043 15.9536 0.992667 15.2911 0.817424 14.5252C0.477457 13.04 0.987198 11.7913 1.50893 10.4008C1.55269 10.2848 1.46075 10.1743 1.3482 10.1587C0.902415 9.22181 1.07745 8.21566 1.50136 7.28718C1.96481 6.27157 2.91108 5.74439 3.80475 5.03225C3.93918 4.92531 3.92488 4.77365 3.82895 4.68109C3.9051 4.37218 4.28904 3.96386 4.43315 3.79363C4.73756 3.43476 5.19239 3.16407 5.64049 2.94562C6.41362 2.56904 7.27469 2.39337 8.15343 2.33219C8.11871 2.4947 8.11387 2.66371 8.15469 2.83938C8.16584 2.88636 8.23274 2.90162 8.25861 2.85428C8.87081 1.72541 10.0062 1.26503 11.426 1.06815C12.7731 0.881608 13.8016 1.34252 15.0773 1.50048C15.1873 1.51398 15.2656 1.48049 15.3144 1.42632C16.4502 1.16019 17.5256 0.789742 18.7172 0.718739C20.3007 0.624768 21.2308 1.50749 22.4646 2.13004C23.4881 2.64618 24.7087 2.31851 25.8006 2.21367C26.4811 2.14845 27.1667 2.33622 27.7724 2.57132C28.3808 2.80747 28.7412 3.24752 29.2391 3.57711C29.049 3.72087 28.8746 3.87813 28.7237 4.0503C28.661 4.1213 28.7504 4.27873 28.8653 4.22018C30.0297 3.62585 31.2343 3.27995 32.6148 3.43318C33.9598 3.58237 34.6252 4.33396 35.4806 5.04084C35.197 5.05294 34.9235 5.0766 34.6702 5.11254C34.5978 5.12306 34.6115 5.20511 34.671 5.22124C35.7435 5.50858 36.849 5.6129 37.8849 6.01122C38.6337 6.29892 39.9489 7.04805 39.326 7.94217C39.0786 8.29683 38.4719 8.53281 38.0591 8.73232C38.0238 8.74933 37.9962 8.77405 37.9748 8.80263C37.9457 8.80929 37.9175 8.81735 37.8877 8.82173C37.875 8.82349 37.8629 8.82489 37.8502 8.82647C37.5717 8.5286 37.128 8.33435 36.6627 8.3766C36.5968 8.38256 36.6126 8.45883 36.6633 8.47268C37.6767 8.7481 37.4469 9.72795 36.6469 10.1263C35.8822 10.5071 34.8278 10.1941 34.0622 9.99531C32.8608 9.68342 31.9679 9.75127 30.7374 9.86224C29.3325 9.989 27.9155 10.0749 26.5015 10.0532C25.5041 10.0379 24.4977 9.83191 23.503 9.79965C23.8171 9.62784 24.1178 9.44008 24.4003 9.23566C24.5086 9.15729 24.4102 8.95305 24.2631 9.02054C21.4351 10.3235 18.4118 10.486 15.3834 9.74969C15.6575 9.36907 15.833 8.97391 15.8403 8.67692C15.8439 8.54508 15.684 8.45602 15.5662 8.56735C14.9401 9.1587 14.5577 9.96516 13.7029 10.3765C12.7127 10.8531 11.6501 9.24898 11.4567 8.66465C11.4399 8.61381 11.3551 8.62783 11.349 8.67605C11.2958 9.10224 11.433 9.577 11.7065 9.98602C10.9594 10.773 10.703 12.0344 10.4333 12.9748C10.2115 13.7464 10.1124 15.092 8.74816 14.6516C7.47454 14.2408 7.76423 12.7485 7.85259 11.9063C7.86268 11.8091 7.69018 11.7406 7.65231 11.8519C7.44088 12.4732 7.29446 13.6782 7.66977 14.5096C7.47055 14.5849 7.23661 14.6552 7.07967 14.5031C6.86025 14.2904 6.73739 13.9315 6.62799 13.6691C6.39342 13.1068 6.49861 12.4673 6.62926 11.8979C6.63578 11.8696 6.58339 11.8519 6.57308 11.8824C6.31053 12.6763 6.19504 13.7962 6.5106 14.5935C6.63535 14.9088 6.90506 15.0713 7.18738 15.0925C7.131 15.8907 7.0012 16.6795 6.83479 17.4679C6.69636 18.1228 6.22849 18.5848 5.37374 18.4929C4.63679 18.4139 4.47817 17.809 4.29851 17.3206C4.24865 17.1847 4.01744 17.2182 4.00145 17.352C3.94402 17.835 3.90342 18.5178 4.40411 18.8671C4.51793 18.9467 4.66835 19.0147 4.83602 19.0694C4.61344 19.4395 4.4485 19.8308 4.27284 20.2212C4.13736 20.5226 4.00608 20.8248 3.87523 21.1274C3.77846 21.3515 2.87763 23.4088 2.12386 22.0631ZM32.4139 48.1402C31.2394 48.3213 30.0466 48.4393 28.8634 48.5785C26.2341 48.8883 23.596 49.1432 20.9419 49.2412C18.4978 49.3316 16.0511 49.2328 13.6341 48.9151C11.4174 48.6241 9.33573 47.9801 7.18675 47.4885C7.21263 47.4368 7.22272 47.3777 7.20484 47.3241C6.96607 46.6125 6.59959 45.9706 6.45022 45.2308C6.32042 44.5881 6.34819 43.9173 6.41004 43.2613C6.50008 43.2422 6.57961 43.1703 6.56888 43.0707C6.38627 41.3472 5.91124 39.6224 5.57317 37.915C5.20985 36.0801 4.91995 34.2343 4.67886 32.3858C4.45271 30.6523 4.29535 28.9126 4.18406 27.1717C4.09045 25.7073 4.25222 24.0814 3.89942 22.6157C4.13357 22.3343 4.27768 21.9825 4.38792 21.6802C4.6856 20.865 5.05691 20.0126 5.20754 19.1595C5.60031 19.2298 6.02148 19.2275 6.31159 19.1109C8.02867 18.4232 7.49516 16.353 7.59614 15.022C7.69418 14.9785 7.78379 14.9151 7.86037 14.8335C8.16016 15.2333 8.64591 15.4717 9.40264 15.3742C10.3338 15.2543 10.7227 14.7967 10.8753 14.0541C11.1441 12.7445 11.4321 11.4832 11.8821 10.2136C12.2341 10.6254 12.7327 10.935 13.3129 10.995C13.8397 11.0495 14.3957 10.7572 14.8522 10.344C17.3736 11.404 20.4907 11.2122 22.9296 10.0881C24.2625 10.7858 26.162 10.8153 27.6853 10.7434C28.7498 10.6931 29.7628 10.4276 30.7923 10.2222C31.892 10.0028 33.0354 10.543 34.0761 10.8144C32.9016 10.9941 31.7195 11.2716 30.648 11.5511C30.602 11.563 30.6261 11.6254 30.6701 11.6238C31.4716 11.5953 32.3239 11.5465 33.1746 11.4622C33.2584 12.4338 33.3705 13.4019 33.4151 14.3761C33.4614 15.386 33.3657 16.4067 33.4713 17.4119C33.4822 17.5148 33.6438 17.5134 33.6648 17.4158C34.0668 15.5376 33.7698 13.3142 33.3015 11.4497C34.1573 11.3612 35.0057 11.2318 35.7982 11.0449C36.6934 11.0295 37.5014 10.7465 38.0017 9.97024C38.1744 9.70236 38.1776 9.41729 38.0711 9.16238C38.1056 9.17167 38.1456 9.17412 38.1919 9.16501C38.3221 9.13906 38.4466 9.10768 38.5682 9.07349C38.3722 10.3742 38.6145 11.7288 38.6414 13.0315C38.6755 14.6444 38.6015 16.2557 38.4856 17.8655C38.2657 20.9227 37.9072 23.9742 37.5995 27.0258C37.291 30.0816 36.9826 33.1377 36.6738 36.1939C36.5356 37.564 36.4163 38.9355 36.1489 40.2933C36.0951 40.5656 36.0185 40.8296 35.9327 41.0901C35.8845 41.1543 35.8582 41.2327 35.8588 41.3121C35.5855 42.0738 35.2233 42.8039 34.9578 43.5667C33.8954 43.6943 32.8016 44.1698 31.7828 44.4255C30.286 44.8016 28.7776 44.9475 27.2547 45.202C27.2105 45.2096 27.2073 45.2736 27.2551 45.2772C28.6671 45.3823 30.1719 45.219 31.5651 45.0239C32.6226 44.8756 33.9871 44.7057 34.9805 44.2439C35.0451 44.2629 35.1164 44.2572 35.174 44.2124C35.2559 44.6379 35.4021 45.0621 35.4326 45.4945C35.4833 46.2047 35.1766 46.8244 35.0207 47.4915C34.1506 47.6505 33.3017 48.0034 32.4139 48.1402ZM48.4416 29.3521C48.1485 30.9912 47.8555 32.6304 47.5624 34.2696C47.3085 35.6902 47.0449 37.1069 46.4157 38.4518C44.9599 41.5642 41.2152 42.3011 37.7867 41.4315C38.0846 40.7995 38.2407 40.058 38.2939 39.4002C38.6671 39.5026 39.0603 39.5565 39.4308 39.5649C40.8474 39.5966 42.0457 38.8094 42.8696 37.9239C43.8848 36.8327 44.2181 35.3723 44.5568 34.0559C45.0257 32.234 45.3762 30.3921 45.6038 28.5386C45.8024 26.918 45.8704 25.2828 45.8028 23.6546C45.7452 22.257 45.3735 20.8717 44.3073 19.7629C43.1668 18.5773 40.7906 18.1924 39.5 19.1402C39.5827 18.7466 39.6695 18.3511 39.752 17.9544C39.7415 18.2161 39.751 18.4735 39.7893 18.7217C39.8076 18.8395 40.0238 18.8969 40.0693 18.7607C40.3712 17.8599 40.2996 16.7964 40.2489 15.8534C41.5141 16.0352 42.7905 16.1284 44.0632 16.312C46.1014 16.6062 47.4547 17.7194 48.2779 19.247C49.9531 22.3569 49.0186 26.1243 48.4416 29.3521Z" fill="#231405"/>
<path d="M42.53 18.0944C42.3299 18.0753 42.3083 18.329 42.4917 18.3653C44.2856 18.7184 45.3419 19.9237 45.9181 21.3122C46.5904 22.9318 46.0571 24.5666 46.1388 26.2109C46.1451 26.3401 46.3727 26.3785 46.4236 26.2504C47.5477 23.4085 47.032 18.5233 42.53 18.0944Z" fill="#231405"/>
<path d="M46.2389 27.4085C46.212 27.5002 46.1861 27.5879 46.176 27.682C46.1651 27.793 46.3231 27.8411 46.3853 27.7387C46.431 27.6645 46.4611 27.5895 46.492 27.5104C46.5492 27.3637 46.2842 27.2532 46.2389 27.4085Z" fill="#231405"/>
<path d="M13.8596 11.7646C18.7593 12.7839 24.3426 12.6184 29.2957 11.9345C29.4255 11.9166 29.3967 11.7459 29.2673 11.7504C26.7466 11.8376 24.2612 11.8975 21.7361 11.8802C19.1096 11.8621 16.4843 11.6831 13.8592 11.6936C13.8119 11.694 13.8207 11.7567 13.8596 11.7646Z" fill="#231405"/>
<path d="M8.75992 18.1306C9.48025 18.3294 10.2142 18.498 10.9571 18.6455C10.8439 19.8473 10.8917 21.0554 11.1504 22.3077C11.1694 22.3992 11.3316 22.4153 11.3391 22.3115C11.4233 21.1318 11.4757 19.9442 11.543 18.7573C15.201 19.419 19.066 19.5361 22.7497 19.5398C25.222 19.5422 27.6914 19.4111 30.1486 19.1881C32.4652 18.9779 34.8728 18.7373 37.0678 18.0552C37.2374 18.0026 37.1558 17.775 36.9854 17.784C34.663 17.9055 32.3615 18.3204 30.0493 18.5382C27.7297 18.7568 25.3954 18.8592 23.0621 18.8853C19.1903 18.929 15.3987 18.5198 11.5762 18.2056C11.64 17.1712 11.7189 16.1383 11.8463 15.1125C11.8548 15.0467 11.7357 15.001 11.7121 15.0758C11.3867 16.1188 11.1439 17.1391 11.0118 18.1604C10.2746 18.102 9.53663 18.0476 8.79632 18.0021C8.71406 17.9971 8.67872 18.1079 8.75992 18.1306Z" fill="#231405"/>
<path d="M36.9664 16.8462C36.9734 16.9754 37.1699 16.9624 37.2006 16.8507C37.6209 15.333 37.3893 13.553 37.1989 12.0179C37.1852 11.9075 37.007 11.9289 37.015 12.0374C37.1337 13.6464 36.8802 15.2488 36.9664 16.8462Z" fill="#231405"/>
<path d="M36.7489 19.3341C36.499 23.1929 36.2455 27.0476 35.8104 30.8958C35.5859 32.8798 35.3055 34.8588 34.9857 36.8338C34.6672 38.8007 34.1352 40.7721 33.9646 42.7513C33.9522 42.8924 34.2023 42.9937 34.258 42.8298C34.8761 41.0265 35.1014 39.104 35.4138 37.2503C35.7464 35.277 36.0231 33.2973 36.26 31.3148C36.7356 27.3402 37.0119 23.3335 36.933 19.3381C36.9315 19.243 36.7552 19.2373 36.7489 19.3341Z" fill="#231405"/>
<path d="M29.2972 40.9832C29.4598 39.5549 29.2556 38.0715 29.2276 36.6374C29.1931 34.8721 29.2082 33.1062 29.2535 31.3414C29.2913 29.8742 29.3353 28.4041 29.5707 26.9483C29.8118 25.4602 30.5664 24.2547 31.1435 22.8664C31.1729 22.7964 31.0829 22.7053 30.9996 22.7624C29.8808 23.5296 29.4773 24.865 29.168 25.9941C28.7629 27.4769 28.7467 29.0328 28.6968 30.5458C28.6408 32.238 28.6316 33.931 28.6509 35.6234C28.6713 37.3727 28.5422 39.2538 28.9333 40.9763C28.973 41.1511 29.2745 41.1811 29.2972 40.9832Z" fill="#F9DA55"/>
<path d="M33.5121 22.8161C32.94 22.3746 32.0924 22.3311 31.4588 22.6739C31.3753 22.7193 31.4365 22.8532 31.5349 22.8401C34.2982 22.4735 33.9315 25.5105 33.8425 26.9336C33.7237 28.8352 33.6052 30.7366 33.4862 32.6384C33.3677 34.5399 33.2493 36.4416 33.1302 38.3431C33.0743 39.241 33.0008 40.1322 32.4448 40.9272C31.8421 41.7886 30.3827 42.189 29.4564 41.4362C29.3035 41.3115 29.1095 41.5251 29.2248 41.6488C30.3867 42.8957 32.4145 42.2847 33.1468 40.996C33.7332 39.9663 33.7334 38.8338 33.8019 37.7165C33.8899 36.2899 33.9778 34.8637 34.066 33.4375C34.2326 30.7292 34.5658 27.9885 34.5545 25.2766C34.5507 24.3305 34.3708 23.4793 33.5121 22.8161Z" fill="#F9DA55"/>
<path d="M25.7442 42.1464C25.0411 43.3805 23.1075 43.6291 22.3319 42.2849C21.8682 41.4818 22.0445 40.3475 22.0336 39.4879C22.0075 37.3597 21.9824 35.2321 21.9536 33.1043C21.9252 31.0218 21.7542 28.8991 21.9671 26.8225C22.0708 25.8084 22.4305 24.834 23.1877 24.0263C24.0083 23.151 26.1201 22.7462 26.7971 24.0267C26.819 24.0682 26.8964 24.0526 26.8827 24.0062C26.649 23.1864 26.034 22.7362 25.0167 22.6631C23.7378 22.5712 22.716 23.509 22.1413 24.3386C21.397 25.4136 21.285 26.7271 21.2539 27.938C21.212 29.5628 21.2823 31.1933 21.3017 32.8181C21.3214 34.4733 21.3433 36.1283 21.365 37.7833C21.3835 39.1746 21.0667 40.9287 21.6332 42.2644C22.4105 44.0963 25.6404 44.3987 26.0694 42.2334C26.1033 42.0619 25.8334 41.9899 25.7442 42.1464Z" fill="#F9DA55"/>
<path d="M27.1829 24.5019C27.1779 24.4548 27.103 24.4546 27.0937 24.5004C26.532 27.2532 26.5674 30.1345 26.4359 32.9195C26.309 35.6101 25.931 38.3971 26.2264 41.0838C26.2447 41.2505 26.5112 41.2498 26.544 41.0898C27.1034 38.3415 26.9652 35.4353 27.0868 32.6547C27.2044 29.9615 27.4787 27.1911 27.1829 24.5019Z" fill="#F9DA55"/>
<path d="M19.9597 33.2434C20.0367 31.5952 20.1141 29.9467 20.1914 28.2985C20.2534 26.9731 20.5064 25.5661 20.0204 24.2734C19.7019 23.4251 18.6443 22.6391 17.4481 22.6565C15.9683 22.6778 15.0558 23.3502 14.3302 24.2755C14.2584 24.3672 14.4115 24.492 14.5059 24.393C15.4152 23.4405 17.1111 22.7822 18.5349 23.5294C19.8156 24.2018 19.5946 25.7855 19.547 26.7954C19.442 29.0324 19.3371 31.2697 19.2322 33.5063C19.1351 35.5704 19.0592 37.6351 18.9627 39.6991C18.9192 40.626 19.1333 41.8732 18.491 42.7028C17.9701 43.3755 16.6982 43.1944 15.9683 42.9371C15.2223 42.6742 14.7331 42.21 14.2935 41.6943C14.2047 41.5906 14.0081 41.6967 14.0768 41.8003C14.6656 42.6906 15.41 43.4927 16.7374 43.7116C17.9144 43.9055 18.9521 43.3424 19.3613 42.5323C19.6313 41.9989 19.5586 41.3312 19.5851 40.7718C19.6211 40.0035 19.6569 39.2354 19.6933 38.4668C19.7751 36.7258 19.8777 34.9848 19.9597 33.2434Z" fill="#F9DA55"/>
<path d="M14.0942 24.9632C14.0959 24.8783 13.9699 24.8522 13.9459 24.9416C13.2271 27.6231 13.1658 30.4852 13.1276 33.2226C13.1097 34.5191 13.1553 35.8143 13.2315 37.1092C13.3135 38.4924 13.3554 39.9421 13.7719 41.2881C13.8182 41.4367 14.0934 41.4025 14.0999 41.2532C14.1521 40.0856 13.9524 38.905 13.8656 37.7403C13.7618 36.3543 13.7191 34.967 13.6985 33.5788C13.6569 30.6966 14.0389 27.8386 14.0942 24.9632Z" fill="#F9DA55"/>
<path d="M7.15498 28.4627C7.26921 27.4718 7.37672 26.4843 7.52587 25.4962C7.67166 24.5295 7.80946 23.4807 8.68146 22.8364C8.80706 22.8161 8.93917 22.8056 9.07592 22.8082C9.83958 22.821 10.4427 23.4576 10.7482 23.9643C11.2306 24.7641 11.1609 25.8139 11.202 26.685C11.288 28.5162 11.2958 30.3498 11.2804 32.1824C11.2657 33.9212 11.2203 35.6595 11.1824 37.3981C11.1654 38.1985 11.1479 38.9988 11.1309 39.7994C11.1149 40.5358 10.8039 42.7239 9.36182 41.8396C9.09717 41.6371 8.83083 41.4546 8.61667 41.1915C8.26387 40.7588 8.13175 40.1999 8.02236 39.6957C7.84943 38.8987 7.81388 38.0808 7.68323 37.2782C7.26669 34.7258 7.14236 32.1458 7.06052 29.573C7.05863 29.5127 6.95028 29.5099 6.94439 29.5706C6.66417 32.4279 6.93219 35.2105 7.31192 38.0514C7.47307 39.2563 7.49768 41.9038 9.38412 42.2634C9.78004 42.5295 10.3123 42.5696 10.7917 42.3077C11.8792 41.7136 11.7464 40.4942 11.7685 39.5433C11.8352 36.6541 11.9158 33.765 11.9145 30.8751C11.9141 29.5723 11.8888 28.2697 11.8373 26.9674C11.7933 25.8582 11.912 24.4241 11.1182 23.4572C10.7095 22.9593 10.0333 22.4302 9.2682 22.3829C9.25137 22.3692 9.22865 22.3603 9.20067 22.3615C8.91098 22.3771 8.65475 22.4358 8.42628 22.5279C8.0779 22.6604 7.79915 22.8582 7.61928 23.1089C6.45548 24.4504 6.67869 27.2332 6.84657 28.4569C6.86803 28.6121 7.13605 28.6251 7.15498 28.4627Z" fill="#F9DA55"/>
<path d="M6.30044 31.3195C6.03095 27.667 6.04273 24.0076 5.8334 20.3536C5.83088 20.3122 5.75704 20.3092 5.75304 20.3518C5.43516 23.8913 5.62597 27.4703 5.87148 31.0085C5.99413 32.7771 6.15128 34.5464 6.36629 36.3089C6.59349 38.1699 6.74896 40.105 7.21999 41.9348C7.25512 42.071 7.46318 42.0504 7.45414 41.9099C7.34074 40.1455 6.96565 38.3843 6.79061 36.6208C6.61537 34.8544 6.43108 33.0893 6.30044 31.3195Z" fill="#231405"/>
<path d="M13.1873 23.116C13.1972 23.1117 13.207 23.1073 13.2165 23.1029C13.3509 23.0438 13.4422 22.9486 13.4614 22.8201C13.4873 22.649 13.381 22.5161 13.2125 22.4309C13.2028 22.4263 13.193 22.4213 13.1835 22.4162C12.9285 22.2878 12.6275 22.497 12.5957 22.7074C12.558 22.9574 12.8721 23.2553 13.1873 23.116Z" fill="#231405"/>
<path d="M12.8923 20.3925C12.8297 20.2007 12.5869 20.1178 12.3729 20.1814C12.0399 20.2803 12.1876 20.7628 12.5381 20.7193C12.5608 20.7168 12.6433 20.7023 12.6458 20.7011C12.8549 20.73 12.9365 20.5268 12.8923 20.3925Z" fill="#231405"/>
<path d="M16.2905 20.8424C15.9024 20.832 15.8388 21.3578 16.2133 21.3676C16.6017 21.3774 16.6654 20.8518 16.2905 20.8424Z" fill="#231405"/>
<path d="M18.2868 20.7906C18.2965 20.7864 18.3066 20.7821 18.3162 20.778C18.6674 20.6302 18.631 20.2442 18.3122 20.0901C18.3021 20.0857 18.2927 20.0806 18.2828 20.0761C18.0205 19.9493 17.715 20.1546 17.6818 20.3732C17.6424 20.6336 17.9632 20.9265 18.2868 20.7906Z" fill="#231405"/>
<path d="M9.13504 19.5904C8.98568 19.6088 8.88554 19.7554 8.90363 19.8759C8.9335 20.0713 9.16891 20.153 9.35909 20.051C9.43462 20.0105 9.48048 19.9283 9.491 19.8557C9.50783 19.7402 9.43525 19.6479 9.32101 19.5908C9.26358 19.562 9.19416 19.5666 9.13504 19.5904Z" fill="#231405"/>
<path d="M28.3461 22.1329C28.5916 22.139 28.7995 22.0275 28.8327 21.811C28.8596 21.6325 28.7088 21.3801 28.4618 21.3738C28.2163 21.3676 28.0084 21.4791 27.9752 21.6958C27.9483 21.874 28.0989 22.1266 28.3461 22.1329Z" fill="#231405"/>
<path d="M26.7632 20.9954C27.001 21.0014 27.0372 20.6762 26.8095 20.6704C26.5714 20.6643 26.5352 20.9898 26.7632 20.9954Z" fill="#231405"/>
<path d="M28.3547 43.0873C28.2479 43.0188 28.15 43.0102 28.024 43.0465C27.9268 43.0742 27.8679 43.1666 27.8547 43.2457C27.8538 43.2507 27.8528 43.2562 27.8517 43.2611C27.8229 43.4338 28.0255 43.6028 28.2321 43.529C28.2401 43.526 28.2535 43.5206 28.2674 43.5148C28.4677 43.4659 28.5348 43.2029 28.3547 43.0873Z" fill="#231405"/>
<path d="M21.3118 43.8959C21.4104 43.9103 21.4977 43.8253 21.4778 43.7452C21.4649 43.6943 21.4536 43.6514 21.3999 43.6198C21.3684 43.6016 21.3261 43.5874 21.2884 43.6047C21.2352 43.6296 21.2095 43.6561 21.1933 43.7055C21.1677 43.7832 21.2032 43.8805 21.3118 43.8959Z" fill="#231405"/>
<rect x="13.2812" y="22.6562" width="7.8125" height="20.3125" fill="#F9DA55"/>
<path d="M17.505 36.198L13.2812 33.2754V31.7274L17.505 28.776V30.3385L14.4774 32.4943L17.505 34.65V36.198Z" fill="black"/>
<path d="M18.7898 36.7187L22.0093 25H23.3829L20.1485 36.7187H18.7898Z" fill="black"/>
<path d="M24.6675 36.198V34.65L27.7099 32.4798L24.6675 30.3385V28.776L28.9062 31.7129V33.2609L24.6675 36.198Z" fill="black"/>
</svg>
