<svg width="201" height="51" viewBox="0 0 201 51" fill="none" xmlns="http://www.w3.org/2000/svg">
<path d="M3.7486 17.4316C3.76705 17.3502 3.7855 17.2687 3.80395 17.1873C3.82624 17.0063 3.84641 16.8228 3.82491 16.6399C3.78749 16.3226 3.70534 16.0403 3.56161 15.7706C3.53839 15.7826 3.51078 15.7947 3.4711 15.811C3.4841 16.053 3.47588 16.2965 3.4707 16.5391C3.46353 16.8766 3.36811 17.3028 3.43819 17.6328C3.63566 17.7337 3.73918 17.6667 3.7486 17.4316Z" fill="white"/>
<path d="M20.282 21.5218C19.7935 22.6673 19.3002 23.8108 18.8722 24.9835C18.5331 26.5675 18.1551 28.1414 17.8658 29.7395C17.5373 31.5533 17.2622 33.3803 17.0657 35.2155C16.8691 37.0514 16.7316 38.8951 16.6753 40.7421C16.6193 42.5809 16.7128 44.4374 16.6173 46.2712C16.612 46.3722 16.4825 46.3673 16.4695 46.2725C16.2191 44.4576 16.2804 42.5218 16.342 40.6938C16.4073 38.7548 16.5392 36.8177 16.7592 34.8914C17.1831 31.1783 17.7741 27.2868 19.0301 23.7764C19.0508 23.7183 19.1071 23.7475 19.1136 23.7945C19.517 22.7874 19.9523 21.7946 20.3731 20.7955C20.5162 19.6162 20.6366 18.4333 20.7292 17.2459C20.9912 13.8873 20.9169 10.539 20.9759 7.17974C20.9236 7.13775 20.8857 7.07597 20.869 7.00995C20.3161 7.66664 19.2974 7.51353 18.5106 7.06947C17.0814 7.59185 15.4195 7.69166 13.9299 7.82102C12.3251 7.96028 10.7152 8.02729 9.10493 7.99859C6.69909 7.95547 3.52059 7.99689 1.44827 6.40076C1.53705 10.0213 1.42915 13.6278 1.7113 17.2457C1.98231 20.7214 2.47441 24.1623 3.15921 27.5724C4.46711 34.0854 6.14063 40.8704 4.29087 47.464C4.28065 47.5006 4.26578 47.5297 4.24919 47.5552C5.09286 48.4918 6.28184 49.0426 7.42477 49.4249C8.66711 49.8402 9.96651 50.0864 11.2707 50.1055C12.5716 50.1246 13.884 49.971 15.1392 49.5979C16.1532 49.2964 17.8814 48.8444 18.2292 47.6004C18.1953 47.5696 18.1668 47.5261 18.1494 47.464C16.2996 40.8704 17.9732 34.0854 19.2809 27.5724C19.6841 25.5668 20.0181 23.5498 20.282 21.5218ZM19.8196 15.6072C19.9503 13.3802 19.996 11.1477 19.9786 8.91654C19.9781 8.83794 20.0895 8.83992 20.0948 8.91584C20.2528 11.1588 20.2638 13.4068 20.1223 15.6516C19.9824 17.872 19.8037 20.1588 19.3079 22.3261C19.2805 22.4459 19.1244 22.3813 19.1351 22.2729C19.3515 20.0468 19.6882 17.8449 19.8196 15.6072ZM17.6096 18.2331C17.5895 18.3715 17.4127 18.3404 17.4258 18.2054C17.6893 15.4984 17.8719 12.7983 17.8091 10.075C17.8069 9.97573 17.9532 9.97715 17.9571 10.0738C18.0651 12.7955 18.0049 15.5383 17.6096 18.2331ZM14.2179 8.3509C15.7313 8.20839 17.1923 7.87969 18.6745 7.53954C18.7798 7.51537 18.8309 7.71216 18.7311 7.75005C17.2987 8.29435 15.766 8.51687 14.2513 8.57611C14.128 8.58092 14.0907 8.36292 14.2179 8.3509ZM15.0325 47.502C15.0337 47.6151 14.872 47.6126 14.8642 47.5033C14.7248 45.5568 14.7413 43.5386 14.9599 41.5994C14.9689 41.5193 15.0633 41.5409 15.0623 41.615C15.0361 43.5803 15.0114 45.5361 15.0325 47.502ZM15.059 24.4006C14.9769 24.4254 14.8925 24.4255 14.8094 24.405C14.4643 24.32 14.2962 23.8278 14.5793 23.5656C14.648 23.5019 14.7087 23.6099 14.6781 23.6762C14.5981 23.8498 14.659 24.0945 14.8653 24.1081C14.9015 24.1105 14.9424 24.1094 14.9759 24.092C14.9507 24.1051 14.9803 24.0335 14.9801 24.0033C14.979 23.9089 14.9323 23.8296 14.9329 23.7337C14.9336 23.6421 15.0264 23.5818 15.1029 23.6156C15.2906 23.6981 15.3148 24.0176 15.2434 24.1939C15.2022 24.2954 15.1635 24.3694 15.059 24.4006ZM15.1566 10.8251C15.1506 10.7041 15.3102 10.6736 15.3181 10.7978C15.3901 11.9366 15.452 13.0738 15.4982 14.2142C15.5024 14.3175 15.3674 14.345 15.3596 14.2375C15.278 13.1003 15.2123 11.964 15.1566 10.8251ZM2.24296 7.57884C3.17355 7.67682 4.07773 7.99562 4.99571 8.17955C5.83738 8.34807 6.68569 8.48789 7.53878 8.57201C9.34196 8.74972 11.1165 8.63761 12.9205 8.62036C13.0439 8.61923 13.0432 8.84161 12.9287 8.86607C11.0966 9.25783 9.09551 9.16805 7.2484 8.95047C5.60487 8.75693 3.70281 8.54444 2.21854 7.7058C2.16505 7.67554 2.17302 7.57135 2.24296 7.57884ZM11.8013 26.2437C11.9909 26.3229 12.1126 26.0499 12.0829 25.8883C12.0687 25.811 12.1586 25.7225 12.2223 25.7892C12.5321 26.1145 12.0974 26.7489 11.7137 26.5159C11.5566 26.4205 11.4654 26.2517 11.4706 26.0571C11.4748 25.8928 11.5385 25.7325 11.6933 25.6777C11.7717 25.65 11.8187 25.7536 11.7659 25.8135C11.6731 25.9186 11.6447 26.1786 11.8013 26.2437ZM10.6185 29.4279C10.652 29.3288 10.6879 29.2197 10.7627 29.1574C10.8234 29.1065 10.9234 29.1448 10.9276 29.2337C10.9329 29.3402 10.8982 29.4195 10.856 29.5152C10.8172 29.603 10.7957 29.6756 10.6964 29.6927C10.5615 29.7159 10.4111 29.6857 10.3044 29.589C10.0898 29.3949 10.0606 29.056 10.269 28.8439C10.33 28.7819 10.4051 28.8883 10.3657 28.9521C10.2334 29.1667 10.3684 29.4815 10.6185 29.4279ZM10.8375 12.9468C10.4085 12.9538 10.1144 12.2902 10.4631 11.979C10.5487 11.9027 10.6372 12.0335 10.5899 12.12C10.4925 12.2978 10.6082 12.6639 10.8452 12.6002C10.9449 12.5734 11.0106 12.4713 11.0318 12.3688C11.0553 12.255 10.9842 12.1558 10.9889 12.0441C10.9923 11.968 11.0552 11.9103 11.1254 11.9175C11.3759 11.9431 11.3932 12.3504 11.3217 12.5377C11.2392 12.7539 11.0692 12.9429 10.8375 12.9468ZM9.49246 36.4658C9.55245 36.58 9.69803 36.5045 9.74528 36.4184C9.77952 36.3559 9.75563 36.3118 9.76121 36.244C9.76824 36.1597 9.82756 36.1061 9.90467 36.1112C10.0943 36.1237 10.0431 36.4461 9.98496 36.5564C9.84375 36.8238 9.47069 36.9104 9.31661 36.6066C9.205 36.3869 9.28662 36.0494 9.5417 36.0162C9.60474 36.008 9.62478 36.1047 9.57381 36.1361C9.47468 36.197 9.43752 36.3616 9.49246 36.4658ZM7.91542 26.9434C7.93307 27.0169 7.98045 27.1149 8.06061 27.1238C8.21774 27.1413 8.32338 26.9095 8.23061 26.7808C8.16439 26.6889 8.27229 26.5197 8.3628 26.6158C8.61044 26.8787 8.40261 27.4618 8.02066 27.35C7.86207 27.3036 7.7632 27.1398 7.75324 26.9707C7.74475 26.8239 7.79797 26.6499 7.94701 26.6177C7.97912 26.6107 8.00089 26.6597 7.98244 26.6853C7.92843 26.7607 7.89246 26.8473 7.91542 26.9434ZM8.19465 42.717C8.26778 42.6783 8.30706 42.7928 8.2626 42.8441C8.17726 42.9429 8.19624 43.2213 8.34926 43.2407C8.53413 43.264 8.56585 43.0481 8.55138 42.9049C8.5401 42.7925 8.64322 42.6947 8.73931 42.7722C9.09166 43.0563 8.64402 43.6972 8.26592 43.5346C8.11277 43.4689 8.00221 43.2965 7.99571 43.1198C7.98934 42.9376 8.03898 42.7997 8.19465 42.717ZM6.46578 28.0794C6.91144 31.4041 7.29392 34.7766 7.38191 38.1361C7.38523 38.2648 7.20022 38.2614 7.1904 38.138C6.92073 34.7878 6.70241 31.4443 6.3044 28.1066C6.28967 27.9846 6.44933 27.9568 6.46578 28.0794ZM6.17156 26.0831C5.54555 22.3319 5.30148 18.4632 5.50494 14.6567C5.50825 14.5958 5.58071 14.6137 5.58151 14.6684C5.63805 18.487 5.87428 22.2668 6.34462 26.0539C6.36094 26.1849 6.19332 26.2133 6.17156 26.0831ZM4.07521 13.891C4.03778 13.9583 3.9685 13.9806 3.89989 13.9781C2.82504 13.9381 3.16333 12.2715 3.29219 11.5873C3.35921 11.2306 3.42796 10.6976 3.80447 10.5691C3.85411 10.552 3.89949 10.5503 3.9409 10.5585C4.07481 10.4865 4.10838 10.4778 4.27879 10.437C4.38801 10.4109 4.45901 10.5159 4.48476 10.6112C4.78868 11.7415 4.63698 12.8827 4.07521 13.891ZM3.00062 22.8209C2.10706 18.3848 2.08582 13.6327 2.47242 9.13327C2.48131 9.0295 2.6115 9.0558 2.60659 9.15377C2.49246 11.4692 2.47799 13.7925 2.57939 16.1089C2.6776 18.3518 2.94355 20.5642 3.15351 22.7953C3.16439 22.9115 3.02371 22.9354 3.00062 22.8209ZM3.11648 17.5221C3.14581 16.9467 3.19107 16.3275 3.32113 15.7601C3.29472 15.7131 3.29007 15.6477 3.31595 15.5926C3.37965 15.458 3.39014 15.4484 3.49405 15.3465C3.56174 15.28 3.67826 15.2957 3.72962 15.3771C4.01668 15.8317 4.20261 16.3805 4.16359 16.9367C4.14183 17.2466 4.05291 18.1006 3.63791 18.1426C3.2845 18.1784 3.09763 17.8922 3.11648 17.5221ZM5.1056 35.2299C4.28463 31.4875 3.69856 27.6345 3.19292 23.8297C3.18708 23.7865 3.24004 23.7786 3.24893 23.8204C4.04999 27.5681 4.79319 31.3914 5.27879 35.2008C5.29551 35.3331 5.13347 35.3574 5.1056 35.2299ZM13.0436 48.9811C11.5631 49.267 9.98523 49.1051 8.52683 48.7429C7.4914 48.486 6.08038 48.2044 5.43765 47.2071C5.42371 47.1855 5.44296 47.1548 5.46592 47.1711C5.46804 47.1726 5.4703 47.1739 5.47242 47.1755C5.41283 46.3215 5.53838 45.4524 5.5701 44.5979C5.6054 43.6481 5.6265 42.6974 5.61575 41.7469C5.59412 39.8509 5.45039 37.9758 5.34913 36.0851C5.34661 36.0383 5.40195 36.0271 5.41071 36.0747C5.7547 37.9395 5.88144 39.8935 5.92112 41.7917C5.9409 42.7435 5.94342 43.6956 5.91051 44.6471C5.88078 45.5045 5.89843 46.4018 5.69684 47.2367C5.68967 47.2664 5.67428 47.2862 5.65556 47.2994C7.80646 48.7066 10.601 48.7345 13.0375 48.8027C13.1259 48.8051 13.1278 48.9648 13.0436 48.9811ZM13.1102 46.9181C13.0771 46.3378 13.057 45.7572 13.0363 45.1761C13.033 45.0828 13.1564 45.0595 13.1604 45.1552C13.1856 45.7427 13.2111 46.3296 13.2236 46.9174C13.2252 46.9939 13.1144 46.9922 13.1102 46.9181ZM16.9962 47.4743C16.4002 48.5112 15.0597 48.954 13.979 48.9066C13.9067 48.9033 13.8995 48.7613 13.9738 48.7553C14.5146 48.7109 15.0558 48.5913 15.5392 48.3181C16.0351 48.0377 16.4054 47.6642 16.8416 47.3028C16.9465 47.2159 17.0582 47.3666 16.9962 47.4743Z" fill="#F9DA55"/>
<path d="M20.282 21.5218C19.7935 22.6673 19.3002 23.8108 18.8722 24.9835C18.5331 26.5675 18.1551 28.1414 17.8658 29.7395C17.5373 31.5532 17.2622 33.3802 17.0657 35.2154C16.8691 37.0514 16.7316 38.895 16.6753 40.7421C16.6193 42.5809 16.7128 44.4374 16.6173 46.2712C16.612 46.3721 16.4825 46.3673 16.4695 46.2725C16.2191 44.4576 16.2804 42.5218 16.342 40.6938C16.3827 39.4864 16.4492 38.2801 16.5467 37.0762C16.3627 37.7825 16.1474 38.4787 15.8938 39.1593C15.1629 41.1202 14.1106 43.0686 12.4706 44.3208C10.8704 45.5423 8.83978 45.9855 7.15749 44.6821C6.70043 44.3281 6.29684 43.9121 5.93361 43.4563C5.93095 43.8534 5.92445 44.2501 5.91078 44.6469C5.88105 45.5044 5.8987 46.4017 5.69711 47.2365C5.68994 47.2662 5.67455 47.286 5.65583 47.2993C7.80673 48.7064 10.6013 48.7344 13.0378 48.8025C13.126 48.8049 13.128 48.9647 13.0438 48.9809C11.5632 49.2668 9.98536 49.1049 8.52697 48.7427C7.49153 48.4858 6.08052 48.2042 5.43778 47.207C5.42385 47.1853 5.44309 47.1547 5.46605 47.1709C5.46818 47.1725 5.47043 47.1737 5.47256 47.1753C5.41297 46.3214 5.53851 45.4522 5.57023 44.5977C5.58961 44.0753 5.60394 43.5524 5.61191 43.0294C5.42637 42.7672 5.25291 42.4942 5.08888 42.214C5.01987 43.9717 4.77886 45.7246 4.29087 47.4641C4.28065 47.5007 4.26579 47.5299 4.2492 47.5553C5.09286 48.4919 6.28185 49.0427 7.42478 49.425C8.66711 49.8404 9.96652 50.0865 11.2707 50.1056C12.5716 50.1247 13.884 49.9711 15.1392 49.5981C16.1532 49.2965 17.8814 48.8445 18.2292 47.6006C18.1953 47.5697 18.1668 47.5262 18.1494 47.4641C16.2996 40.8705 17.9732 34.0856 19.2809 27.5725C19.6841 25.5668 20.0181 23.5498 20.282 21.5218ZM13.1102 46.9181C13.0771 46.3378 13.057 45.7571 13.0363 45.1761C13.033 45.0828 13.1564 45.0595 13.1604 45.1552C13.1856 45.7427 13.2111 46.3296 13.2236 46.9174C13.2252 46.9939 13.1144 46.9922 13.1102 46.9181ZM14.9599 41.5994C14.9689 41.5193 15.0633 41.5409 15.0623 41.615C15.0361 43.5801 15.0114 45.5359 15.0325 47.502C15.0337 47.6151 14.872 47.6126 14.8642 47.5033C14.7248 45.5568 14.7414 43.5385 14.9599 41.5994ZM16.9962 47.4743C16.4002 48.5112 15.0597 48.9539 13.979 48.9066C13.9067 48.9033 13.8995 48.7613 13.9738 48.7553C14.5146 48.7109 15.0558 48.5913 15.5392 48.318C16.0351 48.0377 16.4054 47.6642 16.8416 47.3028C16.9465 47.2159 17.0582 47.3666 16.9962 47.4743Z" fill="#DE953D"/>
<path d="M2.13812 14.5306C2.17063 14.5391 2.20301 14.547 2.23526 14.555C2.23194 12.7317 2.3194 10.9126 2.47229 9.13312C2.48118 9.02935 2.61137 9.05565 2.60646 9.15362C2.51662 10.976 2.48967 12.8031 2.53121 14.628C2.77819 14.6902 3.02133 14.7617 3.25132 14.8877C3.76081 15.1671 4.25902 15.497 4.85849 15.4294C5.07017 15.4057 5.27189 15.3754 5.47242 15.3606C5.48158 15.1258 5.49233 14.8911 5.5048 14.6567C5.50812 14.5958 5.58058 14.6137 5.58138 14.6684C5.5847 14.8973 5.59094 15.1255 5.59558 15.3541C5.79943 15.3467 6.00341 15.3599 6.21682 15.4203C6.6277 15.5368 7.02942 15.7289 7.45079 15.7991C7.98576 15.8885 8.51542 15.7522 9.05384 15.7864C9.56718 15.8189 10.0869 15.9033 10.6018 15.8731C11.1579 15.8406 11.6988 15.728 12.2585 15.7258C12.8103 15.7234 13.3678 15.7576 13.9185 15.7064C14.5256 15.65 15.0172 15.4193 15.5952 15.2691C16.3002 15.0859 16.9928 15.3602 17.6771 15.1928C17.7907 13.491 17.8485 11.7876 17.809 10.075C17.8067 9.97573 17.9531 9.97714 17.957 10.0738C18.0235 11.7506 18.0257 13.4353 17.9256 15.1121C17.979 15.0894 18.0325 15.064 18.0857 15.0342C18.6872 14.6984 19.2972 14.3714 19.8976 14.0315C19.9678 12.3278 19.9919 10.6217 19.9785 8.91654C19.9779 8.83793 20.0894 8.83991 20.0947 8.91583C20.2106 10.5619 20.2464 12.2105 20.2021 13.8586C20.2096 13.8544 20.2171 13.8501 20.2246 13.8458C20.4783 13.6987 20.7081 13.5383 20.9089 13.3563C20.9532 11.2983 20.9394 9.24113 20.9758 7.18001C20.9235 7.13802 20.8856 7.07624 20.8688 7.01022C20.316 7.66691 19.2972 7.5138 18.5105 7.06974C17.0813 7.59212 15.4193 7.69194 13.9298 7.8213C12.325 7.96055 10.715 8.02756 9.10481 7.99886C6.69897 7.95574 3.52046 7.99717 1.44814 6.40103C1.51171 8.99387 1.47508 11.5794 1.55245 14.1671C1.68689 14.3329 1.86937 14.4606 2.13812 14.5306ZM15.3596 14.2374C15.2779 13.1001 15.2123 11.9639 15.1566 10.825C15.1506 10.704 15.3102 10.6734 15.3181 10.7977C15.3901 11.9365 15.452 13.0737 15.4982 14.214C15.5023 14.3175 15.3673 14.3448 15.3596 14.2374ZM14.2179 8.35089C15.7313 8.20838 17.1923 7.87968 18.6745 7.53953C18.7798 7.51536 18.8309 7.71215 18.7311 7.75004C17.2987 8.29434 15.766 8.51686 14.2513 8.5761C14.128 8.58091 14.0907 8.36291 14.2179 8.35089ZM4.07521 13.891C4.03778 13.9583 3.96851 13.9806 3.89989 13.9781C2.82504 13.9381 3.16333 12.2715 3.2922 11.5873C3.35922 11.2306 3.42796 10.6976 3.80447 10.5691C3.85411 10.552 3.8995 10.5503 3.9409 10.5585C4.07481 10.4865 4.10839 10.4778 4.27879 10.437C4.38802 10.4109 4.45902 10.5159 4.48476 10.6112C4.78868 11.7415 4.63699 12.8827 4.07521 13.891ZM11.3217 12.5379C11.2392 12.7539 11.0692 12.9429 10.8375 12.9469C10.4085 12.954 10.1144 12.2903 10.4631 11.9792C10.5487 11.9028 10.6373 12.0336 10.5899 12.1201C10.4925 12.298 10.6082 12.664 10.8452 12.6004C10.9449 12.5735 11.0106 12.4714 11.0318 12.3689C11.0553 12.2551 10.9842 12.1559 10.9889 12.0442C10.9923 11.9681 11.0552 11.9105 11.1254 11.9177C11.3759 11.9433 11.3931 12.3506 11.3217 12.5379ZM2.24296 7.57884C3.17355 7.67681 4.07773 7.99561 4.99571 8.17954C5.83739 8.34806 6.68569 8.48788 7.53878 8.572C9.34196 8.74971 11.1165 8.6376 12.9205 8.62035C13.0439 8.61922 13.0432 8.84161 12.9287 8.86606C11.0966 9.25782 9.09551 9.16804 7.2484 8.95047C5.60487 8.75692 3.70281 8.54443 2.21854 7.70579C2.16506 7.67554 2.17302 7.57134 2.24296 7.57884Z" fill="white"/>
<path d="M16.7331 13.8688C16.4662 13.8807 16.2095 13.9973 15.9408 13.987C15.7854 13.9809 15.6361 13.9608 15.4852 13.9378C15.4891 14.0299 15.4945 14.1218 15.4982 14.214C15.5024 14.3174 15.3674 14.3448 15.3596 14.2373C15.3519 14.1299 15.3461 14.0225 15.3386 13.9152C15.3283 13.9136 15.3181 13.9119 15.3077 13.9103C14.7073 13.8176 14.3826 14.1251 13.8542 14.2977C13.4761 14.4213 13.1138 14.3332 12.7592 14.1556C12.1889 13.8701 11.7964 13.9911 11.2102 14.1535C10.8852 14.2436 10.4114 14.3304 10.1373 14.0468C9.88476 13.7855 9.65596 13.6557 9.29379 13.7979C9.06937 13.8862 8.84999 13.9761 8.61522 14.0277C8.12312 14.1357 7.54223 13.9334 7.03685 13.9537C6.50799 13.975 5.96041 14.1013 5.43592 13.9901C5.21296 13.9427 5.04163 13.7174 4.85464 13.5983C4.59014 13.4298 4.48211 13.5231 4.24667 13.6118C4.23486 13.6163 4.22332 13.62 4.21151 13.6238C4.1689 13.7135 4.12418 13.8029 4.07521 13.8908C4.03778 13.9581 3.96851 13.9805 3.89989 13.9779C3.47149 13.9619 3.26791 13.6873 3.18576 13.3197C3.16598 13.3161 3.14767 13.3109 3.12736 13.3079C2.90892 13.2754 2.70401 13.2667 2.51303 13.2524C2.51489 13.7109 2.52099 14.1693 2.53135 14.6278C2.77833 14.69 3.02146 14.7616 3.25145 14.8875C3.76094 15.1669 4.25915 15.4969 4.85862 15.4293C5.0703 15.4055 5.27202 15.3753 5.47255 15.3604C5.48171 15.1256 5.49246 14.8909 5.50494 14.6565C5.50825 14.5956 5.58072 14.6135 5.58151 14.6683C5.58483 14.8971 5.59107 15.1253 5.59571 15.3539C5.79956 15.3466 6.00354 15.3597 6.21695 15.4201C6.62783 15.5366 7.02955 15.7287 7.45092 15.799C7.98589 15.8883 8.51555 15.7521 9.05397 15.7863C9.56731 15.8188 10.087 15.9032 10.6019 15.8729C11.158 15.8404 11.699 15.7279 12.2586 15.7256C12.8104 15.7232 13.368 15.7574 13.9186 15.7062C14.5258 15.6498 15.0173 15.4191 15.5953 15.269C16.3003 15.0857 16.9929 15.36 17.6772 15.1926C17.7063 14.758 17.7315 14.3233 17.7524 13.8883C17.4037 13.9513 17.0967 13.8527 16.7331 13.8688Z" fill="#F2F2C9"/>
<path d="M8.77514 39.6743C8.32272 37.0245 8.55497 34.3098 8.15656 31.6546C7.7559 28.9842 7.3912 26.3331 7.18244 23.6353C6.96811 20.8666 6.98045 18.1087 7.12046 15.3357C7.12909 15.1622 7.13692 14.9883 7.14448 14.8143C6.73878 14.6874 6.30626 14.6185 5.9052 14.6548C5.81403 16.0183 5.72511 17.3818 5.71462 18.7502C5.83791 21.19 6.04243 23.6205 6.34462 26.0539C6.36081 26.1848 6.19319 26.2133 6.17156 26.0831C6.15125 25.9611 6.13241 25.8385 6.11276 25.7162C6.18297 26.4853 6.25703 27.2541 6.33307 28.0225C6.3766 27.9832 6.4545 27.9952 6.46578 28.0793C6.85782 31.0037 7.20049 33.965 7.33719 36.9219C7.38032 37.2159 7.3977 37.5141 7.39571 37.8144C7.3843 39.5476 7.12484 41.4165 7.39253 43.1387C7.43977 43.4431 7.49472 43.8753 7.72856 44.091C7.98284 44.3253 8.33161 44.1193 8.46552 43.8412C8.51927 43.7298 8.56452 43.613 8.60354 43.4929C8.50056 43.5585 8.38032 43.5835 8.26605 43.5343C8.1129 43.4686 8.00235 43.2962 7.99584 43.1195C7.98921 42.9371 8.03898 42.7993 8.19465 42.7166C8.26778 42.6778 8.30706 42.7924 8.2626 42.8437C8.17726 42.9425 8.19624 43.2209 8.34926 43.2402C8.53413 43.2636 8.56585 43.0477 8.55138 42.9045C8.5401 42.7921 8.64322 42.6942 8.73931 42.7717C8.74661 42.7775 8.75139 42.7843 8.75802 42.7904C8.83911 42.1959 8.82504 41.5671 8.82862 41.0095C8.83128 40.5883 8.83499 40.1676 8.83858 39.7467C8.80858 39.74 8.78271 39.7181 8.77514 39.6743Z" fill="#FFEDA1"/>
<path d="M7.4358 46.4155C7.50043 46.6499 7.6991 47.044 7.94276 46.7608C8.23991 46.4151 8.3283 45.7833 8.08132 45.4056C8.07787 45.4041 8.07455 45.4044 8.0711 45.4024C7.55604 45.1316 7.32803 46.0252 7.4358 46.4155Z" fill="#FFEDA1"/>
<path d="M5.58164 14.6684C5.58496 14.8973 5.5912 15.1255 5.59585 15.3541C5.61588 15.3534 5.63619 15.3538 5.65636 15.3535C5.68503 14.9119 5.71542 14.4703 5.74488 14.0287C5.64137 14.0226 5.53798 14.0119 5.43592 13.9902C5.21296 13.9429 5.04163 13.7175 4.85464 13.5985C4.59014 13.43 4.48211 13.5233 4.24667 13.6119C4.23486 13.6164 4.22332 13.6201 4.21151 13.6239C4.1689 13.7137 4.12418 13.8031 4.07521 13.891C4.03778 13.9583 3.96851 13.9806 3.89989 13.9781C3.47149 13.9621 3.26791 13.6874 3.18576 13.3198C3.16598 13.3163 3.14767 13.3111 3.12736 13.3081C2.90892 13.2756 2.70401 13.2668 2.51303 13.2525C2.51489 13.711 2.52099 14.1695 2.53135 14.628C2.77833 14.6902 3.02146 14.7617 3.25145 14.8877C3.76094 15.167 4.25915 15.497 4.85862 15.4294C5.0703 15.4057 5.27202 15.3754 5.47255 15.3606C5.48171 15.1258 5.49246 14.8911 5.50494 14.6567C5.50825 14.5959 5.58071 14.6137 5.58164 14.6684Z" fill="#F2F2C9"/>
<path d="M7.1206 15.3357C7.14369 14.8774 7.16081 14.4164 7.18204 13.9552C7.1332 13.9535 7.0845 13.9519 7.03699 13.9538C6.6776 13.9683 6.30985 14.0297 5.94634 14.0336C5.91715 14.4754 5.88729 14.9172 5.85862 15.3592C5.9762 15.3678 6.09512 15.3858 6.21708 15.4203C6.5137 15.5044 6.8058 15.6274 7.10361 15.716C7.10945 15.5893 7.11409 15.4627 7.1206 15.3357Z" fill="#F2F2C9"/>
<path d="M16.7331 13.8688C16.4662 13.8807 16.2095 13.9973 15.9408 13.987C15.7854 13.9809 15.6361 13.9608 15.4852 13.9378C15.4891 14.03 15.4945 14.1219 15.4982 14.214C15.5024 14.3174 15.3674 14.3448 15.3596 14.2374C15.3519 14.1299 15.3461 14.0225 15.3386 13.9152C15.3283 13.9136 15.3181 13.9119 15.3077 13.9104C14.7073 13.8176 14.3826 14.1251 13.8542 14.2977C13.4761 14.4213 13.1138 14.3332 12.7592 14.1556C12.1889 13.8701 11.7964 13.9911 11.2102 14.1535C10.8852 14.2436 10.4114 14.3304 10.1373 14.0468C9.88476 13.7855 9.65596 13.6557 9.29379 13.798C9.06937 13.8862 8.84999 13.9761 8.61522 14.0277C8.23061 14.1121 7.79199 14.008 7.3774 13.9678C7.34621 14.5686 7.32405 15.1699 7.29843 15.7685C7.349 15.7802 7.39982 15.7907 7.45079 15.7991C7.98576 15.8885 8.51542 15.7522 9.05384 15.7864C9.56718 15.8189 10.0869 15.9033 10.6018 15.8731C11.1579 15.8406 11.6988 15.728 12.2585 15.7258C12.8103 15.7234 13.3678 15.7576 13.9185 15.7064C14.5256 15.65 15.0172 15.4193 15.5952 15.2691C16.3002 15.0859 16.9928 15.3602 17.6771 15.1928C17.7061 14.7582 17.7313 14.3235 17.7523 13.8884C17.4037 13.9514 17.0967 13.8527 16.7331 13.8688Z" fill="#F2F2C9"/>
<path d="M20.6199 12.2996C20.514 12.3392 20.3668 12.3715 20.2185 12.4068C20.2195 12.8907 20.2155 13.3747 20.2023 13.8585C20.2099 13.8542 20.2173 13.85 20.2249 13.8456C20.4785 13.6986 20.7084 13.5381 20.9092 13.3562C20.9178 12.9522 20.923 12.5482 20.928 12.1441C20.8307 12.2056 20.729 12.2591 20.6199 12.2996Z" fill="white"/>
<path d="M1.52245 12.8239C1.53015 13.2716 1.53931 13.7192 1.55271 14.1671C1.68702 14.3329 1.8695 14.4606 2.13825 14.5306C2.17076 14.5391 2.20314 14.547 2.23539 14.555C2.2346 14.1111 2.23937 13.6675 2.24893 13.2245C1.96678 13.1823 1.72245 13.0891 1.52245 12.8239Z" fill="white"/>
<path d="M19.7393 12.5753C19.5214 12.7251 19.3209 12.8981 19.1178 13.0694C18.7883 13.3475 18.3848 13.669 17.983 13.8233C17.9701 14.2533 17.9514 14.683 17.9256 15.1122C17.979 15.0896 18.0325 15.0641 18.0857 15.0343C18.6872 14.6985 19.2972 14.3715 19.8976 14.0316C19.919 13.5149 19.9345 12.9979 19.9477 12.4809C19.8663 12.5078 19.7933 12.5383 19.7393 12.5753Z" fill="#F2F2C9"/>
<path d="M20.8691 7.01023C20.5539 7.38445 20.087 7.49515 19.5985 7.43931C19.6135 7.44397 19.629 7.44807 19.6435 7.45401C19.9085 7.56202 20.0146 7.88394 20.0667 8.15976C20.1767 8.74138 20.1747 9.32852 20.1547 9.91622C20.2519 11.8269 20.243 13.7404 20.1226 15.6516C20.0023 17.5607 19.8519 19.5185 19.4974 21.4075C19.4022 22.5337 19.2876 23.6601 18.9899 24.7494C18.9767 24.7975 18.9428 24.8199 18.9064 24.8233C18.559 26.4615 18.1649 28.0876 17.8661 29.7395C17.5376 31.5533 17.2625 33.3803 17.0659 35.2155C16.8694 37.0514 16.7319 38.8951 16.6756 40.7421C16.6257 42.3773 16.6934 44.0266 16.642 45.6617C16.6727 45.9414 16.7242 46.2171 16.809 46.4895C16.8829 46.7267 16.9893 46.9716 17.0177 47.221C17.0235 47.2707 17.0187 47.3198 17.0074 47.3684C17.0168 47.4024 17.016 47.4402 16.9964 47.4743C16.4004 48.5112 15.0598 48.954 13.9791 48.9066C13.9587 48.9058 13.9441 48.893 13.9344 48.8762C13.6544 48.9157 13.373 48.9384 13.0927 48.9419C13.0826 48.9613 13.0666 48.9766 13.0439 48.981C11.5633 49.2668 9.9855 49.105 8.5271 48.7427C7.49167 48.4859 6.08065 48.2042 5.43792 47.207C5.42398 47.1854 5.44323 47.1547 5.46619 47.1709C5.46831 47.1725 5.47057 47.1738 5.47269 47.1753C5.4131 46.3214 5.53865 45.4522 5.57037 44.5977C5.60567 43.648 5.62677 42.6972 5.61602 41.7468C5.59558 39.9524 5.46605 38.1767 5.36639 36.3887C5.31104 36.0284 5.25 35.6691 5.18112 35.3116C5.14794 35.3057 5.11649 35.2796 5.1056 35.2299C4.33055 31.697 3.76599 28.0659 3.27972 24.4696C3.11874 23.8174 2.99173 23.1565 2.93745 22.4864C2.15617 18.3947 2.10003 14.0492 2.41217 9.88921C2.38072 9.87564 2.35789 9.8451 2.36307 9.79633C2.43155 9.15887 2.51901 8.5238 2.56108 7.88351C2.44509 7.82739 2.33029 7.76886 2.21868 7.7058C2.16519 7.67569 2.17329 7.5715 2.2431 7.57885C3.17369 7.67682 4.07787 7.99562 4.99585 8.17955C5.83752 8.34807 6.68583 8.48789 7.53891 8.57201C9.15948 8.73163 10.757 8.65783 12.3734 8.62856C12.592 8.59067 12.8102 8.55024 13.0241 8.53709C13.3986 8.51377 13.772 8.49624 14.1405 8.44152C14.1424 8.39642 14.1655 8.35585 14.218 8.3509C14.4215 8.33182 14.624 8.30877 14.8257 8.28318C14.8321 8.28106 14.8383 8.27965 14.8447 8.27753C14.8617 8.27173 14.8771 8.27159 14.8911 8.27413C16.1672 8.10901 17.4134 7.82894 18.6749 7.53954C18.6799 7.53841 18.6841 7.53997 18.689 7.53983C18.926 7.47069 19.1785 7.40114 19.4001 7.40722C19.0954 7.34586 18.7888 7.22668 18.511 7.06989C17.0818 7.59228 15.4199 7.69209 13.9303 7.82145C12.3255 7.9607 10.7156 8.02772 9.10534 7.99902C6.6995 7.9559 3.521 7.99732 1.44867 6.40118C1.53746 10.0217 1.42956 13.6282 1.71171 17.2461C1.98271 20.7219 2.47481 24.1627 3.15962 27.5728C4.46751 34.0859 6.14104 40.8708 4.29127 47.4644C4.28105 47.501 4.26619 47.5302 4.2496 47.5556C5.09326 48.4922 6.28225 49.043 7.42518 49.4253C8.66751 49.8407 9.96692 50.0868 11.2711 50.1059C12.572 50.125 13.8844 49.9714 15.1396 49.5984C16.1536 49.2968 17.8818 48.8448 18.2296 47.6009C18.1957 47.57 18.1672 47.5265 18.1498 47.4644C16.3 40.8708 17.9736 34.0859 19.2813 27.5728C19.9661 24.1627 20.4584 20.722 20.7294 17.2461C20.9913 13.8876 20.917 10.5393 20.9761 7.18002C20.9238 7.13804 20.8857 7.07625 20.8691 7.01023Z" fill="#D8EFE5"/>
<path d="M20.8691 7.01022C20.5539 7.38445 20.087 7.49514 19.5985 7.4393C19.6135 7.44396 19.629 7.44807 19.6435 7.454C19.9085 7.56201 20.0146 7.88393 20.0667 8.15975C20.1767 8.74137 20.1747 9.32851 20.1547 9.91621C20.2518 11.8269 20.243 13.7404 20.1226 15.6516C20.0023 17.5607 19.8518 19.5185 19.4974 21.4075C19.4022 22.5337 19.2875 23.6601 18.9899 24.7494C18.9767 24.7975 18.9428 24.8199 18.9064 24.8233C18.5589 26.4614 18.1649 28.0876 17.866 29.7395C17.5376 31.5532 17.2625 33.3803 17.0659 35.2155C16.8694 37.0514 16.7319 38.895 16.6756 40.7421C16.6257 42.3773 16.6934 44.0266 16.642 45.6617C16.6727 45.9414 16.7242 46.2171 16.809 46.4895C16.8321 46.5637 16.8581 46.6389 16.8842 46.7146C17.2464 46.2564 17.4698 45.6978 17.6355 45.1122C16.693 39.2659 18.1284 33.3138 19.2813 27.5727C19.9661 24.1625 20.4584 20.7219 20.7294 17.246C20.9913 13.8875 20.917 10.5391 20.9761 7.17987C20.9238 7.13803 20.8857 7.07625 20.8691 7.01022Z" fill="#D8EFE5"/>
<path d="M17.7169 45.5926C17.5442 46.114 17.3098 46.5947 16.9604 46.9552C16.9855 47.0434 17.0074 47.1317 17.0176 47.2211C17.0233 47.2709 17.0185 47.3199 17.0073 47.3686C17.0167 47.4025 17.0159 47.4404 16.9962 47.4744C16.4002 48.5113 15.0597 48.9541 13.979 48.9067C13.9586 48.9059 13.944 48.8932 13.9343 48.8763C13.6542 48.9158 13.3729 48.9385 13.0926 48.9421C13.0825 48.9614 13.0665 48.9767 13.0438 48.9811C11.5632 49.267 9.98536 49.1051 8.52697 48.7429C7.49153 48.486 6.08052 48.2044 5.43778 47.2071C5.42385 47.1855 5.44309 47.1548 5.46605 47.1711C5.46818 47.1726 5.47043 47.1739 5.47256 47.1754C5.46207 47.0247 5.45875 46.8732 5.45836 46.7215C5.16015 46.4752 4.90056 46.1882 4.66844 45.8707C4.5632 46.403 4.43951 46.9342 4.29087 47.4643C4.28065 47.5009 4.26579 47.53 4.2492 47.5555C5.09286 48.4921 6.28185 49.0429 7.42478 49.4252C8.66711 49.8405 9.96652 50.0867 11.2707 50.1057C12.5716 50.1248 13.884 49.9713 15.1392 49.5982C16.1532 49.2966 17.8814 48.8447 18.2292 47.6007C18.1953 47.5699 18.1668 47.5263 18.1494 47.4643C17.975 46.8421 17.8319 46.2179 17.7169 45.5926Z" fill="#97B3B7"/>
<path d="M21.2314 5.05216C21.0446 5.10476 20.9527 4.85975 20.9885 4.70876C21.1931 3.84849 20.3917 3.69905 19.8456 3.93869C19.7661 3.97346 19.6935 3.86418 19.7433 3.79166C19.7551 3.77441 19.7682 3.75843 19.781 3.74217C19.4927 3.23986 19.1193 2.75904 18.5287 2.67705C17.9899 2.60226 17.5769 2.80358 17.1185 3.0753C16.9493 3.17568 16.7878 2.90551 16.8937 2.75904C16.983 2.63534 17.0853 2.53157 17.1965 2.44477C16.25 1.87629 15.2921 1.91107 14.413 2.68171C14.257 2.81842 14.0683 2.5819 14.173 2.41903C14.2017 2.37436 14.2342 2.33463 14.2655 2.29307C14.0394 2.1466 13.8403 1.96663 13.562 1.91687C13.3682 1.88223 13.1891 1.88166 13.0122 1.90824C12.9786 1.9262 12.9402 1.93355 12.8998 1.92846C12.7795 1.95461 12.6593 1.9925 12.5348 2.04184C12.4703 2.06743 12.4309 1.97709 12.4747 1.92917C12.5238 1.8753 12.5816 1.82822 12.6431 1.78454C11.4553 1.00952 10.0744 1.13265 8.95444 2.03124C8.8837 2.08793 8.82505 1.9778 8.87468 1.91673C8.96347 1.80758 9.05822 1.70947 9.15564 1.6163C9.09379 1.60315 9.02611 1.57318 8.90799 1.54378C8.62146 1.47238 8.32339 1.42926 8.02916 1.47464C7.4995 1.55636 7.12034 1.83812 6.64787 2.06715C6.54847 2.11522 6.47681 2.04241 6.45796 1.95207C6.04164 1.94797 5.64628 1.86357 5.23725 2.03223C4.81708 2.20542 4.5859 2.5474 4.22093 2.78449C4.12392 2.84755 4.007 2.74717 3.98855 2.64015C3.49299 2.8146 2.94794 2.76965 2.46353 3.04773C2.00421 3.31154 1.66486 3.72266 1.68264 4.26894C1.75988 4.26993 1.84044 4.28166 1.92471 4.30881C2.08981 4.36211 2.03513 4.61602 1.89671 4.65716C1.60925 4.74255 1.28012 4.85593 1.19492 5.2057C1.12418 5.4958 1.2273 5.80117 1.39837 6.03077C2.59797 6.52516 3.77488 6.98534 5.06605 7.17563C6.50587 7.38784 7.96678 7.44283 9.41907 7.44552C11.0723 7.44863 12.728 7.37893 14.3741 7.21168C15.5847 7.08869 16.8288 6.82361 18.0511 6.75518C17.947 6.66936 17.8521 6.57903 17.77 6.48614C17.7393 6.45136 17.7661 6.36951 17.8164 6.38209C18.8326 6.63473 20.0809 7.43138 20.8318 6.18897C20.9684 5.96291 21.233 6.19038 21.1732 6.40711C21.1651 6.43652 21.1552 6.46338 21.1463 6.49137C21.154 6.54637 21.1619 6.6015 21.1692 6.65664C21.4184 6.55301 21.6775 6.418 21.8188 6.17582C22.1303 5.64198 21.9242 4.85735 21.2314 5.05216ZM2.45371 4.07596C2.43858 3.78459 2.59532 3.51258 2.8066 3.33685C2.89923 3.2598 3.02332 3.40231 2.95046 3.4966C2.80607 3.68322 2.74197 3.88836 2.65106 4.10438C2.60899 4.20419 2.46021 4.2008 2.45371 4.07596ZM3.22372 3.73963C3.13374 3.8892 3.05331 4.06918 2.92856 4.18821C2.85451 4.2589 2.76028 4.15358 2.78921 4.0679C2.84668 3.89825 2.96917 3.75051 3.06513 3.60306C3.14369 3.48261 3.29087 3.62808 3.22372 3.73963ZM3.96559 5.613C3.78457 5.7056 3.59001 5.72017 3.40248 5.64085C3.35139 5.61922 3.30228 5.55377 3.29976 5.49382C3.29193 5.30028 3.33122 5.11338 3.4707 4.97766C3.57647 4.87474 3.75869 4.76899 3.90069 4.84674C3.95895 4.8787 3.97223 4.96267 3.92538 5.01215C3.85132 5.09033 3.75232 5.12257 3.69406 5.22266C3.67521 5.25504 3.66101 5.28727 3.64907 5.32007C3.72086 5.32021 3.79067 5.29844 3.86287 5.26154C3.9709 5.2064 4.0212 5.11621 4.10719 5.0352C4.16439 4.98133 4.23779 5.03265 4.25066 5.10179C4.28742 5.3 4.12777 5.53016 3.96559 5.613ZM4.90083 2.66107C5.14741 2.46724 5.42743 2.409 5.71848 2.51772C5.81323 2.5532 5.78072 2.72045 5.68039 2.71324C5.44641 2.69613 5.20633 2.72851 4.99067 2.8286C4.90096 2.87017 4.82385 2.72158 4.90083 2.66107ZM5.68384 5.22012L5.54582 5.1852C5.48941 5.17078 5.50653 5.07097 5.5632 5.09415C5.60806 5.11225 5.65278 5.13049 5.69764 5.14872C5.72949 5.16159 5.721 5.22959 5.68384 5.22012ZM5.72458 3.02837C5.52312 3.10301 5.31994 3.13482 5.10958 3.16918C4.9912 3.18854 4.96466 2.98737 5.078 2.95739C5.27641 2.90494 5.46884 2.85051 5.67335 2.83722C5.76479 2.83143 5.82133 2.99246 5.72458 3.02837ZM7.84349 5.85659C7.75325 6.01762 7.71211 6.23096 7.71994 6.41842C7.72352 6.50593 7.60872 6.56955 7.57886 6.46607C7.50229 6.20042 7.54754 5.96008 7.71144 5.74222C7.78337 5.64679 7.89684 5.76131 7.84349 5.85659ZM8.39174 6.40287C8.28901 6.28525 8.24429 6.12351 8.26566 5.96319C8.28105 5.84698 8.31237 5.68991 8.42558 5.63944C8.45756 5.62516 8.49538 5.64905 8.49844 5.68694C8.50627 5.79114 8.4634 5.89321 8.4776 5.99811C8.49087 6.09665 8.51861 6.19335 8.55537 6.28482C8.60315 6.40344 8.47442 6.49745 8.39174 6.40287ZM10.3313 2.01371C10.1083 2.08185 9.89684 2.19891 9.71529 2.35301C9.67189 2.38991 9.62438 2.31286 9.66367 2.27837C9.85822 2.10688 10.0732 1.99604 10.3203 1.93977C10.3609 1.93058 10.3697 2.00212 10.3313 2.01371ZM13.0045 4.91757C12.2918 4.71343 11.6135 4.6795 10.9367 5.03675C10.8459 5.08468 10.7904 4.92422 10.8726 4.87474C11.5324 4.47719 12.3495 4.35589 13.0407 4.73209C13.1161 4.77295 13.1049 4.94641 13.0045 4.91757ZM15.5243 3.59203C15.2907 3.62031 15.0495 3.63388 14.8152 3.60405C14.695 3.58878 14.6807 3.36781 14.8069 3.35155C15.0414 3.32158 15.2828 3.33487 15.5166 3.36314C15.6254 3.37629 15.6384 3.57818 15.5243 3.59203ZM19.6002 6.27082C19.5809 6.34717 19.4999 6.34194 19.4584 6.29472C19.3582 6.18162 19.3546 5.98143 19.3716 5.83694C19.3782 5.78067 19.4427 5.74971 19.4773 5.80174C19.564 5.93223 19.6412 6.10796 19.6002 6.27082ZM20.1754 6.12733C20.1479 6.20721 20.0333 6.19462 20.0289 6.10598C20.0257 6.03798 20.0281 5.97987 20.0414 5.91314C20.054 5.84967 20.0716 5.78718 20.0878 5.72441C20.1114 5.63096 20.2204 5.68539 20.218 5.76484C20.2144 5.88968 20.216 6.00871 20.1754 6.12733Z" fill="white"/>
<path d="M17.8163 6.38251C18.8325 6.63514 20.0808 7.4318 20.8317 6.18939C20.9682 5.96333 21.2329 6.1908 21.173 6.40753C21.1649 6.43694 21.1551 6.4638 21.1462 6.49179C21.1539 6.54679 21.1617 6.60192 21.169 6.65706C21.1916 6.64773 21.2143 6.63769 21.2369 6.62779C21.2761 6.57379 21.3104 6.51738 21.3375 6.45843C21.6057 5.872 20.925 5.75777 20.5386 5.83877C20.429 5.86182 20.3214 5.88416 20.2132 5.89815C20.2095 5.97563 20.2013 6.05169 20.1754 6.12746C20.1479 6.20734 20.0333 6.19476 20.0289 6.10612C20.0257 6.03811 20.0281 5.98001 20.0414 5.91328C20.0415 5.91243 20.0418 5.91158 20.0419 5.91059C20.0004 5.91144 19.9587 5.91187 19.9162 5.90819C19.8578 5.90338 19.822 5.86323 19.8164 5.80188C19.711 4.65319 18.7369 4.82935 18.1461 5.4777C18.0735 5.55729 17.9583 5.47473 17.9791 5.37421C18.1183 4.70607 16.9003 4.72996 16.5909 4.81677C16.1624 4.93708 15.8184 5.18067 15.467 5.45805C15.4049 5.50711 15.3156 5.4408 15.3167 5.3663C15.3337 4.30626 14.243 4.20885 13.6464 4.82412C13.5903 4.88222 13.5037 4.85253 13.4796 4.77718C13.3075 4.24024 13.0112 3.36328 12.3179 3.62553C11.8699 3.7949 11.5165 4.12954 11.1037 4.3686C11.0509 4.39914 10.9694 4.37482 10.957 4.30498C10.7566 3.17383 8.52976 4.91135 8.01191 5.1056C7.97275 5.1203 7.91715 5.09712 7.8991 5.05668C7.72073 4.65574 7.63977 4.13364 7.10879 4.18694C6.48596 4.24928 5.97063 4.49033 5.44495 4.84066C5.39372 4.87473 5.30958 4.84419 5.2983 4.77704C5.05822 3.34872 3.19001 4.02831 2.83194 5.03123C2.80739 5.09994 2.71887 5.14377 2.66512 5.07817C2.53294 4.91743 2.20115 4.72982 1.88636 4.66083C1.60155 4.74594 1.27919 4.86059 1.19505 5.20626C1.12431 5.49636 1.22743 5.80173 1.3985 6.03133C2.5981 6.52572 3.77501 6.9859 5.06619 7.17619C6.506 7.3884 7.96691 7.44339 9.4192 7.44608C11.0724 7.44919 12.7282 7.37949 14.3742 7.21224C15.5848 7.08925 16.8289 6.82416 18.0512 6.75574C17.9471 6.66992 17.8523 6.57958 17.7701 6.4867C17.7392 6.45178 17.7661 6.36992 17.8163 6.38251ZM19.3714 5.83708C19.3781 5.78081 19.4426 5.74985 19.4772 5.80188C19.564 5.93222 19.6412 6.10809 19.6002 6.27082C19.5809 6.34716 19.4999 6.34193 19.4584 6.29471C19.3582 6.18161 19.3544 5.98142 19.3714 5.83708ZM3.96559 5.613C3.78457 5.7056 3.59001 5.72016 3.40248 5.64085C3.35139 5.61922 3.30228 5.55376 3.29976 5.49382C3.29193 5.30027 3.33121 5.11337 3.4707 4.97765C3.57647 4.87473 3.75869 4.76898 3.90069 4.84674C3.95895 4.87869 3.97222 4.96267 3.92537 5.01215C3.85132 5.09033 3.75232 5.12256 3.69405 5.22266C3.67521 5.25503 3.66101 5.28727 3.64906 5.32006C3.72086 5.32021 3.79067 5.29843 3.86287 5.26154C3.9709 5.2064 4.02119 5.1162 4.10719 5.03519C4.16439 4.98133 4.23778 5.03265 4.25066 5.10178C4.28742 5.29999 4.12776 5.53015 3.96559 5.613ZM5.68384 5.22011L5.54581 5.18519C5.48941 5.17077 5.50653 5.07096 5.5632 5.09415C5.60806 5.11224 5.65278 5.13048 5.69764 5.14872C5.72949 5.16158 5.721 5.22958 5.68384 5.22011ZM7.84349 5.85659C7.75324 6.01761 7.7121 6.23095 7.71993 6.41842C7.72352 6.50593 7.60872 6.56955 7.57886 6.46606C7.50228 6.20041 7.54754 5.96007 7.71144 5.74221C7.78337 5.64679 7.89684 5.7613 7.84349 5.85659ZM8.39173 6.40286C8.28901 6.28524 8.24429 6.12351 8.26565 5.96319C8.28105 5.84697 8.31237 5.68991 8.42557 5.63943C8.45756 5.62515 8.49538 5.64905 8.49844 5.68694C8.50627 5.79113 8.4634 5.8932 8.4776 5.9981C8.49087 6.09664 8.51861 6.19335 8.55537 6.28482C8.60315 6.40343 8.47441 6.49745 8.39173 6.40286ZM13.0045 4.91757C12.2918 4.71342 11.6135 4.67949 10.9367 5.03675C10.8459 5.08467 10.7904 4.92421 10.8726 4.87473C11.5324 4.47718 12.3495 4.35588 13.0407 4.73208C13.1161 4.77294 13.1049 4.94641 13.0045 4.91757Z" fill="#FAEECC"/>
<path d="M3.94608 10.8744C3.92511 10.8733 3.90786 10.866 3.8926 10.8564C3.62929 11.0861 3.55444 12.1809 3.54449 12.3424C3.52962 12.5806 3.49074 12.8548 3.53069 13.0918C3.75763 13.567 3.91489 13.5824 4.00248 13.1376C4.27335 12.3945 4.33228 11.6424 4.17727 10.8753C4.11197 10.8829 4.05915 10.8805 3.94608 10.8744Z" fill="white"/>
<path d="M3.82359 4.89395C3.42544 4.89395 3.42544 5.6202 3.82359 5.6202C4.22173 5.6202 4.22173 4.89395 3.82359 4.89395Z" fill="white"/>
<path d="M6.87601 5.00281C6.47786 5.00281 6.47786 5.72906 6.87601 5.72906C7.27415 5.72906 7.27415 5.00281 6.87601 5.00281Z" fill="white"/>
<path d="M9.13215 3.69565C8.73401 3.69565 8.73401 4.4219 9.13215 4.4219C9.663 4.4219 9.663 3.69565 9.13215 3.69565Z" fill="white"/>
<path d="M14.1753 6.09241C13.7771 6.09241 13.7771 6.81866 14.1753 6.81866C14.7061 6.81866 14.7061 6.09241 14.1753 6.09241Z" fill="white"/>
<path d="M15.7678 4.85764C15.3697 4.85764 15.3697 5.58388 15.7678 5.58388C16.2987 5.58388 16.2987 4.85764 15.7678 4.85764Z" fill="white"/>
<path d="M13.2463 5.00281C12.8481 5.00281 12.8481 5.72906 13.2463 5.72906C13.7771 5.7292 13.7771 5.00281 13.2463 5.00281Z" fill="white"/>
<path d="M8.00407 26.5973C7.81827 26.5973 7.67229 26.7624 7.67229 26.9603V27.0573C7.67229 27.2553 7.81827 27.4204 8.00407 27.4204C8.18987 27.4204 8.33586 27.2553 8.33586 27.0573V26.9603C8.33586 26.7624 8.18987 26.5973 8.00407 26.5973Z" fill="white"/>
<path d="M11.8528 25.5322C11.667 25.5322 11.521 25.6974 11.521 25.8952V25.9436C11.521 26.1415 11.667 26.3066 11.8528 26.3066C12.0386 26.3066 12.1846 26.1415 12.1846 25.9436V25.8952C12.1846 25.6973 12.0386 25.5322 11.8528 25.5322Z" fill="white"/>
<path d="M14.9052 23.5955C14.7194 23.5955 14.5734 23.7606 14.5734 23.9585V24.007C14.5734 24.2049 14.7194 24.3701 14.9052 24.3701C15.091 24.3701 15.237 24.2049 15.237 24.007V23.9585C15.237 23.7606 15.091 23.5955 14.9052 23.5955Z" fill="white"/>
<path d="M10.5076 28.6794C10.3218 28.6782 10.1668 28.8455 10.1668 29.0424C10.1668 29.1542 10.2167 29.2535 10.2926 29.3202C10.3554 29.4009 10.4484 29.4541 10.5531 29.4541C10.7381 29.4541 10.8951 29.289 10.8939 29.0909C10.8927 28.8503 10.7335 28.6808 10.5076 28.6794Z" fill="white"/>
<path d="M10.0759 36.402C10.0759 36.2051 9.92086 36.0377 9.73506 36.039C9.50918 36.0404 9.35006 36.2098 9.34873 36.4504C9.34754 36.6485 9.50467 36.8134 9.68954 36.8134C9.79425 36.8134 9.88728 36.7604 9.94979 36.68C10.0258 36.6133 10.0759 36.5139 10.0759 36.402Z" fill="white"/>
<path d="M8.33586 42.7689C7.93772 42.7689 7.93772 43.4951 8.33586 43.4951C8.86672 43.4951 8.86672 42.7689 8.33586 42.7689Z" fill="white"/>
<path d="M11.5076 40.0727H11.4622C11.2764 40.0727 11.1213 40.2282 11.1213 40.4261C11.1213 40.6241 11.2764 40.7796 11.4622 40.7796H11.5076C11.6934 40.7796 11.8485 40.6241 11.8485 40.4261C11.8485 40.2282 11.6934 40.0727 11.5076 40.0727Z" fill="white"/>
<path d="M9.88517 32.5139C9.87004 32.4978 9.85478 32.4815 9.83965 32.4655C9.70826 32.3257 9.48902 32.3256 9.35763 32.4655C9.22624 32.6054 9.22611 32.8392 9.35763 32.979C9.37276 32.9951 9.38789 33.0114 9.40302 33.0274C9.53441 33.1672 9.75378 33.1673 9.88504 33.0274C10.0164 32.8876 10.0166 32.6536 9.88517 32.5139Z" fill="white"/>
<path d="M4.55351 23.1076H4.50813C4.32233 23.1076 4.16718 23.2631 4.16718 23.461C4.16718 23.6589 4.32219 23.8145 4.50813 23.8145H4.55351C4.73931 23.8145 4.89446 23.6589 4.89446 23.461C4.89446 23.2631 4.73931 23.1076 4.55351 23.1076Z" fill="white"/>
<path d="M8.99944 22.4818C8.60129 22.4818 8.60129 23.2081 8.99944 23.2081C9.39758 23.2081 9.39758 22.4818 8.99944 22.4818Z" fill="white"/>
<path d="M14.5073 29.8413C14.3215 29.8402 14.1665 30.0074 14.1665 30.2045C14.1665 30.3162 14.2164 30.4153 14.2922 30.4822C14.355 30.5628 14.448 30.6161 14.5528 30.6161C14.7379 30.6161 14.8949 30.4508 14.8937 30.2529C14.8925 30.0122 14.7333 29.8427 14.5073 29.8413Z" fill="white"/>
<path d="M5.54887 30.9548C5.15072 30.9548 5.15072 31.6812 5.54887 31.6812C6.07972 31.6812 6.07972 30.9548 5.54887 30.9548Z" fill="white"/>
<path d="M12.9166 19.9156C12.8118 19.9156 12.7186 19.9687 12.656 20.0495C12.5802 20.1163 12.5303 20.2154 12.5303 20.3271C12.5303 20.5242 12.6853 20.6915 12.8711 20.6902C13.097 20.6888 13.2561 20.5193 13.2574 20.2786C13.2586 20.0809 13.1016 19.9156 12.9166 19.9156Z" fill="white"/>
<path d="M13.0984 23.1076H13.0531C12.8673 23.1076 12.7121 23.2631 12.7121 23.461C12.7121 23.6589 12.8673 23.8145 13.0531 23.8145H13.0984C13.2842 23.8145 13.4393 23.6589 13.4393 23.461C13.4393 23.2631 13.2842 23.1076 13.0984 23.1076Z" fill="white"/>
<path d="M22.4292 5.55319C22.349 4.9768 21.9659 4.52412 21.4452 4.51606C21.4432 4.13929 21.2921 3.80395 20.9716 3.55866C20.6714 3.32878 20.2588 3.36342 19.9644 3.57039C19.7738 2.35626 18.3386 1.7776 17.3789 2.32204C16.7116 1.30682 15.3616 1.24674 14.5229 2.00678C14.2435 1.56794 13.6399 1.44579 13.1259 1.56922C13.1105 1.53387 13.0869 1.50065 13.0513 1.47294C11.9271 0.598952 10.4687 0.57407 9.39306 1.4113C9.207 0.988302 8.48901 0.915211 8.10945 0.941507C7.51874 0.982364 6.83128 1.18736 6.50666 1.75513C5.89419 1.18269 4.54515 1.49316 4.11078 2.25107C4.11025 2.25079 4.10972 2.25022 4.10905 2.24994C3.05862 1.83486 0.935465 2.97153 1.38656 4.32732C0.849068 4.56158 0.612041 5.43034 0.971961 5.92727C0.965723 5.95371 0.970767 5.9851 0.991603 6.00546C1.09724 6.10923 1.20779 6.20621 1.321 6.29938C0.826904 9.63529 0.933208 13.1253 1.13692 16.4844C1.3482 19.968 1.81589 23.4265 2.47322 26.8451C3.74754 33.4724 5.65876 40.3784 3.82186 47.1005C3.74966 47.1107 3.68862 47.2023 3.72325 47.2949C4.24681 48.6918 5.53891 49.3251 6.79333 49.8244C8.27879 50.4159 9.87017 50.6851 11.4513 50.7076C12.9891 50.7295 14.5059 50.4511 15.9649 49.9446C17.1254 49.5415 18.4911 48.9425 18.7552 47.5297C18.7781 47.4077 18.7321 47.3201 18.6607 47.272C18.6586 47.2601 18.6577 47.2484 18.6542 47.2362C16.7539 40.4712 18.6842 33.5172 19.9672 26.8451C20.6245 23.4264 21.0921 19.968 21.3035 16.4844C21.4889 13.428 21.5924 10.2636 21.2377 7.20489C21.8661 6.96964 22.539 6.34547 22.4292 5.55319ZM19.2812 27.5727C17.9734 34.0857 16.2999 40.8706 18.1497 47.4643C18.167 47.5263 18.1956 47.5699 18.2294 47.6007C17.8816 48.8447 16.1534 49.2966 15.1394 49.5982C13.8842 49.9713 12.5718 50.1248 11.271 50.1057C9.96678 50.0865 8.66738 49.8405 7.42505 49.4252C6.28211 49.043 5.09313 48.4921 4.24947 47.5555C4.26605 47.53 4.28092 47.5009 4.29114 47.4643C6.1409 40.8706 4.46751 34.0857 3.15949 27.5727C2.47468 24.1625 1.98258 20.7219 1.71158 17.246C1.42943 13.6279 1.53732 10.0215 1.44854 6.40103C3.52087 7.99716 6.69937 7.95574 9.1052 7.99886C10.7154 8.0277 12.3254 7.96055 13.9302 7.82129C15.4197 7.69193 17.0816 7.59212 18.5109 7.06973C19.2978 7.51366 20.3164 7.66677 20.8692 7.01022C20.886 7.07624 20.9239 7.13802 20.9762 7.18001C20.9171 10.5392 20.9913 13.8876 20.7295 17.2461C20.4582 20.7219 19.966 24.1627 19.2812 27.5727ZM21.8187 6.17596C21.6773 6.41813 21.4183 6.55329 21.169 6.65678C21.1617 6.60164 21.1539 6.54664 21.1462 6.49151C21.1551 6.46351 21.1649 6.43665 21.173 6.40725C21.2329 6.19052 20.9682 5.96304 20.8317 6.1891C20.0808 7.43166 18.8326 6.63486 17.8163 6.38222C17.766 6.36964 17.7392 6.4515 17.7698 6.48628C17.852 6.57916 17.9467 6.6695 18.0509 6.75531C16.8286 6.82374 15.5846 7.08882 14.3739 7.21182C12.7279 7.37907 11.0722 7.44876 9.41894 7.44565C7.96678 7.44283 6.50574 7.38797 5.06592 7.17577C3.77461 6.98547 2.59771 6.5253 1.39824 6.0309C1.22704 5.80131 1.12405 5.49594 1.19479 5.20583C1.27999 4.85607 1.60925 4.74269 1.89658 4.65729C2.035 4.61601 2.08968 4.36224 1.92458 4.30894C1.84044 4.28194 1.75975 4.27021 1.68251 4.26907C1.66473 3.7228 2.00408 3.31168 2.4634 3.04787C2.94781 2.76964 3.49286 2.81474 3.98842 2.64028C4.00686 2.74744 4.12378 2.84768 4.2208 2.78463C4.58589 2.5474 4.81695 2.20555 5.23712 2.03236C5.64615 1.8637 6.0415 1.9481 6.45783 1.9522C6.4768 2.04254 6.54834 2.11535 6.64774 2.06728C7.1202 1.83825 7.49937 1.55649 8.02903 1.47478C8.32325 1.4294 8.62133 1.47251 8.90786 1.54391C9.02597 1.57332 9.09366 1.60329 9.1555 1.61644C9.05809 1.7096 8.9632 1.80772 8.87455 1.91686C8.82491 1.97793 8.88357 2.08807 8.95431 2.03137C10.0743 1.13265 11.4552 1.00965 12.643 1.78467C12.5815 1.82836 12.5237 1.87558 12.4745 1.9293C12.4308 1.97723 12.4702 2.06757 12.5347 2.04198C12.6592 1.9925 12.7794 1.95461 12.8996 1.92859C12.94 1.93368 12.9783 1.92633 13.012 1.90838C13.1891 1.8818 13.3681 1.88236 13.5619 1.917C13.8403 1.96662 14.0394 2.14674 14.2654 2.2932C14.2341 2.33463 14.2016 2.37449 14.1729 2.41917C14.0682 2.58203 14.2569 2.81856 14.4128 2.68185C15.2919 1.9112 16.2499 1.87643 17.1964 2.4449C17.0853 2.5317 16.983 2.63547 16.8935 2.75918C16.7876 2.90564 16.9493 3.17581 17.1183 3.07544C17.5767 2.80357 17.9897 2.60225 18.5286 2.67718C19.1191 2.75918 19.4927 3.24 19.7809 3.74231C19.768 3.75842 19.755 3.77454 19.7432 3.79179C19.6934 3.86432 19.7661 3.97346 19.8455 3.93882C20.3916 3.69919 21.1929 3.84862 20.9884 4.7089C20.9526 4.85974 21.0444 5.10489 21.2313 5.0523C21.9242 4.85734 22.1303 5.64198 21.8187 6.17596Z" fill="#231405"/>
<path d="M19.3714 5.83708C19.3544 5.98143 19.358 6.18176 19.4582 6.29486C19.4999 6.34208 19.5809 6.34731 19.6001 6.27097C19.6411 6.1081 19.5639 5.93237 19.4771 5.80202C19.4426 5.74985 19.3781 5.78067 19.3714 5.83708Z" fill="#231405"/>
<path d="M20.0877 5.72439C20.0716 5.78716 20.0538 5.84965 20.0412 5.91313C20.028 5.97986 20.0256 6.03797 20.0288 6.10597C20.0331 6.19461 20.1478 6.20719 20.1753 6.12732C20.2159 6.0087 20.2143 5.88966 20.2177 5.76483C20.2203 5.68537 20.1112 5.63094 20.0877 5.72439Z" fill="#231405"/>
<path d="M8.47774 5.99826C8.46367 5.89336 8.5064 5.79128 8.49857 5.68709C8.49565 5.6492 8.4577 5.62531 8.42571 5.63959C8.31237 5.69006 8.28119 5.84713 8.26579 5.96334C8.24442 6.12366 8.28902 6.28539 8.39187 6.40302C8.47442 6.4976 8.60328 6.40358 8.55551 6.28511C8.51861 6.1935 8.49101 6.0968 8.47774 5.99826Z" fill="#231405"/>
<path d="M7.71144 5.7422C7.54754 5.96006 7.50229 6.20026 7.57886 6.46605C7.60872 6.56953 7.72352 6.50591 7.71994 6.4184C7.7121 6.23094 7.75338 6.0176 7.84349 5.85657C7.89684 5.76129 7.78337 5.64677 7.71144 5.7422Z" fill="#231405"/>
<path d="M4.10707 5.03519C4.02107 5.1162 3.97077 5.2064 3.86274 5.26153C3.79068 5.29843 3.72087 5.32021 3.64894 5.32006C3.66088 5.28726 3.67508 5.25503 3.69393 5.22266C3.75219 5.12256 3.85133 5.09033 3.92525 5.01215C3.9721 4.96267 3.95883 4.87855 3.90056 4.84674C3.75856 4.76898 3.57634 4.87473 3.47057 4.97765C3.33109 5.11351 3.29167 5.30041 3.29963 5.49382C3.30216 5.55376 3.35126 5.61922 3.40236 5.64085C3.58988 5.72016 3.78444 5.7056 3.96546 5.613C4.12764 5.53001 4.28729 5.29999 4.2504 5.10178C4.23766 5.03265 4.16427 4.98133 4.10707 5.03519Z" fill="#231405"/>
<path d="M2.8066 3.33685C2.59532 3.51258 2.43859 3.78458 2.45371 4.07596C2.46022 4.2008 2.60899 4.20419 2.65106 4.10438C2.7421 3.88835 2.8062 3.68322 2.95046 3.4966C3.02332 3.40244 2.89924 3.2598 2.8066 3.33685Z" fill="#231405"/>
<path d="M3.06526 3.60318C2.96931 3.75064 2.84681 3.89838 2.78935 4.06803C2.76041 4.1537 2.85464 4.25903 2.9287 4.18834C3.05345 4.0693 3.13374 3.88933 3.22385 3.73975C3.29087 3.62807 3.14369 3.48259 3.06526 3.60318Z" fill="#231405"/>
<path d="M5.68039 2.71309C5.78072 2.72044 5.81324 2.55305 5.71848 2.51756C5.42744 2.40884 5.14741 2.46709 4.90083 2.66092C4.82372 2.72157 4.90096 2.87001 4.99068 2.82845C5.20634 2.7285 5.44641 2.69598 5.68039 2.71309Z" fill="#231405"/>
<path d="M5.67335 2.83722C5.46884 2.85037 5.2764 2.90494 5.078 2.95739C4.96466 2.98736 4.9912 3.18854 5.10958 3.16917C5.31993 3.13482 5.52325 3.10301 5.72458 3.02836C5.82133 2.99245 5.76479 2.83142 5.67335 2.83722Z" fill="#231405"/>
<path d="M5.56306 5.09414C5.50626 5.07109 5.48928 5.1709 5.54568 5.18518L5.6837 5.2201C5.72086 5.22957 5.72936 5.16157 5.6975 5.14857C5.65265 5.13033 5.60792 5.11223 5.56306 5.09414Z" fill="#231405"/>
<path d="M13.0406 4.73193C12.3494 4.35573 11.5323 4.47703 10.8724 4.87458C10.7903 4.92406 10.8459 5.08452 10.9365 5.0366C11.6135 4.67948 12.2917 4.71327 13.0043 4.91742C13.1049 4.9464 13.1161 4.77293 13.0406 4.73193Z" fill="#231405"/>
<path d="M10.3203 1.93976C10.0734 1.99617 9.85823 2.10687 9.66367 2.27836C9.62439 2.31285 9.6719 2.3899 9.7153 2.353C9.89672 2.1989 10.1083 2.08185 10.3314 2.0137C10.3697 2.00211 10.3609 1.93057 10.3203 1.93976Z" fill="#231405"/>
<path d="M15.5166 3.36314C15.2828 3.33501 15.0414 3.32158 14.8069 3.35155C14.6807 3.36767 14.695 3.58878 14.8152 3.60405C15.0495 3.63388 15.2907 3.62031 15.5243 3.59203C15.6384 3.57818 15.6254 3.37629 15.5166 3.36314Z" fill="#231405"/>
<path d="M12.9287 8.86606C13.0432 8.8416 13.0439 8.61908 12.9205 8.62035C11.1165 8.63774 9.34197 8.74971 7.53878 8.572C6.68569 8.48788 5.83739 8.34806 4.99571 8.17954C4.07773 7.99561 3.17355 7.6768 2.24296 7.57883C2.17302 7.57148 2.16506 7.67567 2.21854 7.70579C3.70281 8.54457 5.60487 8.75692 7.2484 8.95046C9.09551 9.1679 11.0966 9.25781 12.9287 8.86606Z" fill="#231405"/>
<path d="M14.2513 8.5761C15.766 8.51686 17.2987 8.29419 18.7311 7.75004C18.8309 7.71201 18.7798 7.51535 18.6745 7.53953C17.1923 7.87968 15.7312 8.20838 14.2179 8.35088C14.0907 8.3629 14.128 8.5809 14.2513 8.5761Z" fill="#231405"/>
<path d="M2.6066 9.15361C2.61151 9.05577 2.48132 9.02934 2.47242 9.13311C2.08596 13.6325 2.10719 18.3846 3.00062 22.8207C3.02358 22.9354 3.16439 22.9113 3.15351 22.795C2.94356 20.5639 2.6776 18.3515 2.57939 16.1086C2.478 13.7923 2.49246 11.4691 2.6066 9.15361Z" fill="#231405"/>
<path d="M3.19293 23.8297C3.6987 27.6345 4.28464 31.4875 5.10561 35.2299C5.13348 35.3573 5.29552 35.3331 5.27867 35.2008C4.7932 31.3914 4.05 27.5681 3.2488 23.8204C3.23991 23.7787 3.18709 23.7866 3.19293 23.8297Z" fill="#231405"/>
<path d="M19.9786 8.91653C19.996 11.1477 19.9503 13.3802 19.8196 15.6072C19.6882 17.8449 19.3515 20.0466 19.1352 22.2728C19.1246 22.3812 19.2806 22.4458 19.308 22.3259C19.8037 20.1586 19.9826 17.8719 20.1225 15.6514C20.2639 13.4066 20.2529 11.1586 20.095 8.91569C20.0895 8.83991 19.9782 8.83793 19.9786 8.91653Z" fill="#231405"/>
<path d="M19.0301 23.7766C17.7741 27.2869 17.1831 31.1784 16.7592 34.8915C16.5392 36.8178 16.4073 38.7549 16.342 40.6939C16.2804 42.5219 16.2191 44.4578 16.4695 46.2726C16.4825 46.3675 16.6122 46.3723 16.6173 46.2713C16.7128 44.4374 16.6193 42.581 16.6753 40.7422C16.7316 38.8952 16.8691 37.0516 17.0657 35.2156C17.2622 33.3804 17.5373 31.5534 17.8658 29.7397C18.226 27.7499 18.7247 25.7979 19.113 23.8166C19.1244 23.7579 19.0538 23.71 19.0301 23.7766Z" fill="#231405"/>
<path d="M13.0377 48.8027C10.601 48.7347 7.8066 48.7065 5.6557 47.2994C5.67455 47.2861 5.68994 47.2663 5.69698 47.2366C5.89857 46.4018 5.88092 45.5045 5.91065 44.647C5.94369 43.6956 5.94117 42.7434 5.92126 41.7917C5.88158 39.8934 5.75484 37.9396 5.41085 36.0747C5.40209 36.0271 5.34674 36.0382 5.34927 36.085C5.45053 37.9758 5.59439 39.8509 5.61589 41.7469C5.62664 42.6973 5.6054 43.6481 5.57023 44.5979C5.53851 45.4523 5.41297 46.3215 5.47256 47.1754C5.47043 47.1739 5.46818 47.1725 5.46605 47.171C5.4431 47.1548 5.42372 47.1853 5.43778 47.2071C6.08065 48.2045 7.49167 48.486 8.52697 48.7429C9.98536 49.1051 11.5631 49.2668 13.0438 48.9811C13.1278 48.9648 13.1259 48.8051 13.0377 48.8027Z" fill="#231405"/>
<path d="M16.8415 47.303C16.4053 47.6643 16.035 48.0377 15.539 48.3182C15.0557 48.5915 14.5145 48.7109 13.9737 48.7554C13.8995 48.7614 13.9067 48.9036 13.9789 48.9067C15.0597 48.9541 16.4001 48.5113 16.9961 47.4744C17.0582 47.3666 16.9465 47.2159 16.8415 47.303Z" fill="#231405"/>
<path d="M4.27879 10.437C4.10839 10.4778 4.07468 10.4867 3.94091 10.5585C3.89963 10.5503 3.85424 10.5521 3.80448 10.5691C3.42797 10.6976 3.35922 11.2306 3.2922 11.5873C3.16333 12.2714 2.82505 13.9381 3.8999 13.9781C3.96864 13.9806 4.03779 13.9583 4.07521 13.891C4.63686 12.8827 4.78868 11.7415 4.48464 10.6112C4.45915 10.5159 4.38802 10.4109 4.27879 10.437ZM4.00249 13.1375C3.91476 13.5822 3.75749 13.567 3.53069 13.0917C3.49074 12.8547 3.52949 12.5804 3.54449 12.3422C3.55458 12.1808 3.62929 11.086 3.8926 10.8562C3.90799 10.866 3.92511 10.8733 3.94608 10.8743C4.05915 10.8804 4.11197 10.8829 4.17727 10.8749C4.33228 11.6423 4.27322 12.3943 4.00249 13.1375Z" fill="#231405"/>
<path d="M3.63805 18.1426C4.05305 18.1008 4.14197 17.2467 4.16373 16.9367C4.20288 16.3805 4.01695 15.8317 3.72976 15.3771C3.6784 15.2957 3.56187 15.28 3.49419 15.3465C3.39028 15.4483 3.37992 15.458 3.31609 15.5926C3.29008 15.6477 3.29485 15.7131 3.32126 15.7601C3.1912 16.3275 3.14595 16.9467 3.11662 17.5221C3.09764 17.8922 3.2845 18.1784 3.63805 18.1426ZM3.4707 16.5391C3.47588 16.2965 3.48397 16.0531 3.4711 15.811C3.51065 15.7948 3.53838 15.7826 3.56161 15.7706C3.70534 16.0403 3.78749 16.3227 3.82491 16.6399C3.84654 16.823 3.82637 17.0064 3.80395 17.1873C3.7855 17.2688 3.76705 17.3502 3.7486 17.4316C3.73918 17.6667 3.63566 17.7337 3.43832 17.6328C3.36811 17.3027 3.46353 16.8766 3.4707 16.5391Z" fill="#231405"/>
<path d="M6.34476 26.0538C5.87442 22.2668 5.63819 18.487 5.58165 14.6684C5.58085 14.6137 5.50839 14.5957 5.50507 14.6567C5.30162 18.4632 5.54568 22.3318 6.1717 26.0831C6.19333 26.2133 6.36095 26.1849 6.34476 26.0538Z" fill="#231405"/>
<path d="M7.38192 38.1363C7.29393 34.7766 6.91158 31.4042 6.46579 28.0795C6.44933 27.9569 6.28968 27.9846 6.30428 28.1068C6.70229 31.4444 6.92074 34.7879 7.19028 38.1381C7.20023 38.2615 7.38523 38.2649 7.38192 38.1363Z" fill="#231405"/>
<path d="M17.6096 18.2331C18.0049 15.5383 18.0651 12.7953 17.9571 10.0738C17.9532 9.97713 17.8069 9.97572 17.8091 10.075C17.8719 12.7983 17.6893 15.4984 17.4258 18.2054C17.4127 18.3405 17.5895 18.3716 17.6096 18.2331Z" fill="#231405"/>
<path d="M15.4982 14.214C15.452 13.0737 15.3901 11.9365 15.3181 10.7977C15.3102 10.6734 15.1506 10.7038 15.1566 10.825C15.2123 11.9639 15.278 13.1001 15.3596 14.2373C15.3673 14.3448 15.5023 14.3175 15.4982 14.214Z" fill="#231405"/>
<path d="M14.9599 41.5994C14.7414 43.5385 14.7248 45.5568 14.8642 47.5033C14.872 47.6126 15.0337 47.6151 15.0325 47.502C15.0114 45.536 15.0361 43.5802 15.0623 41.615C15.0633 41.5409 14.9689 41.5191 14.9599 41.5994Z" fill="#231405"/>
<path d="M13.0363 45.1761C13.0569 45.7571 13.0771 46.3378 13.1102 46.9181C13.1145 46.9922 13.2252 46.9939 13.2236 46.9173C13.2112 46.3294 13.1856 45.7426 13.1604 45.155C13.1564 45.0593 13.033 45.0828 13.0363 45.1761Z" fill="#231405"/>
<path d="M7.94714 26.6177C7.79797 26.65 7.74475 26.8239 7.75338 26.9707C7.76333 27.1398 7.86221 27.3036 8.0208 27.35C8.40275 27.4617 8.61058 26.8785 8.36293 26.6158C8.27242 26.5198 8.16453 26.6889 8.23075 26.7808C8.32339 26.9095 8.21775 27.1412 8.06075 27.1238C7.98059 27.1149 7.93321 27.0169 7.91555 26.9434C7.8926 26.8473 7.92856 26.7607 7.98271 26.6852C8.00102 26.6597 7.97926 26.6106 7.94714 26.6177Z" fill="#231405"/>
<path d="M11.6933 25.6777C11.5385 25.7325 11.4748 25.8928 11.4706 26.0571C11.4655 26.2516 11.5566 26.4203 11.7137 26.5159C12.0974 26.7489 12.5321 26.1145 12.2223 25.7892C12.1586 25.7223 12.0687 25.8108 12.0829 25.8883C12.1126 26.05 11.9909 26.3229 11.8013 26.2437C11.6447 26.1785 11.6731 25.9186 11.7659 25.8135C11.8187 25.7536 11.7717 25.6499 11.6933 25.6777Z" fill="#231405"/>
<path d="M10.2691 28.8439C10.0607 29.056 10.0899 29.3947 10.3045 29.589C10.4112 29.6857 10.5616 29.7159 10.6966 29.6927C10.7958 29.6756 10.8173 29.6029 10.8561 29.5152C10.8983 29.4194 10.9332 29.3403 10.9278 29.2337C10.9234 29.1449 10.8235 29.1066 10.7628 29.1573C10.6881 29.2197 10.6523 29.3288 10.6187 29.4279C10.3685 29.4814 10.2335 29.1667 10.366 28.9519C10.4053 28.8883 10.3302 28.7818 10.2691 28.8439Z" fill="#231405"/>
<path d="M15.2432 24.1939C15.3146 24.0176 15.2903 23.6981 15.1028 23.6155C15.0262 23.5819 14.9335 23.6421 14.9328 23.7337C14.9321 23.8297 14.9789 23.9089 14.9799 24.0033C14.9802 24.0334 14.9506 24.1051 14.9758 24.092C14.9422 24.1095 14.9014 24.1105 14.8651 24.1081C14.6589 24.0945 14.598 23.8497 14.678 23.6762C14.7085 23.6099 14.648 23.5019 14.5791 23.5656C14.296 23.8277 14.4643 24.32 14.8093 24.405C14.8923 24.4255 14.9769 24.4253 15.0589 24.4006C15.1635 24.3694 15.2022 24.2954 15.2432 24.1939Z" fill="#231405"/>
<path d="M11.3217 12.5379C11.3931 12.3506 11.3759 11.9434 11.1254 11.9177C11.0553 11.9105 10.9923 11.9681 10.9889 12.0442C10.9842 12.1559 11.0553 12.2551 11.0318 12.3689C11.0106 12.4714 10.9449 12.5735 10.8452 12.6004C10.6082 12.664 10.4925 12.298 10.5899 12.1201C10.6373 12.0336 10.5487 11.9027 10.4631 11.9792C10.1144 12.2905 10.4085 12.9541 10.8375 12.9469C11.0692 12.9429 11.2392 12.7539 11.3217 12.5379Z" fill="#231405"/>
<path d="M8.26606 43.5346C8.64416 43.697 9.0918 43.0562 8.73945 42.7721C8.64336 42.6947 8.54011 42.7926 8.55152 42.9049C8.56599 43.0481 8.53427 43.264 8.3494 43.2407C8.19625 43.2213 8.1774 42.9431 8.26274 42.8441C8.3072 42.7928 8.26791 42.6781 8.19479 42.717C8.03912 42.7997 7.98935 42.9375 7.99598 43.1199C8.00235 43.2966 8.1129 43.4688 8.26606 43.5346Z" fill="#231405"/>
<path d="M9.57368 36.1362C9.62465 36.1048 9.60461 36.0083 9.54157 36.0163C9.28649 36.0494 9.20487 36.387 9.31649 36.6067C9.47057 36.9104 9.84362 36.8237 9.98483 36.5565C10.043 36.4463 10.0942 36.1238 9.90454 36.1113C9.82743 36.1063 9.76811 36.1598 9.76108 36.2441C9.7555 36.312 9.77939 36.3561 9.74515 36.4186C9.69804 36.5047 9.55232 36.5802 9.49233 36.4659C9.43752 36.3616 9.47468 36.197 9.57368 36.1362Z" fill="#231405"/>
<path d="M53.0655 37.2991H45.4425V36.2101C46.3885 36.2101 47.0705 36.0671 47.4885 35.7811C47.8845 35.4951 48.0825 35.0111 48.0825 34.3291V25.6501H36.3345V34.3291C36.3345 35.0551 36.4885 35.5391 36.7965 35.7811C37.2145 36.0671 37.9625 36.2101 39.0405 36.2101V37.2991H31.4505V36.2101C32.6165 36.2101 33.3975 36.0451 33.7935 35.7151C34.0795 35.4291 34.2225 34.9671 34.2225 34.3291V17.0701C34.2225 16.4321 34.0685 15.9921 33.7605 15.7501C33.3425 15.4421 32.5945 15.2881 31.5165 15.2881V14.2321H38.9415V15.2881C37.8855 15.2881 37.1815 15.4421 36.8295 15.7501C36.4995 16.0141 36.3345 16.4541 36.3345 17.0701V24.4291H48.0825V17.0701C48.0825 16.4541 47.8845 16.0141 47.4885 15.7501C47.0705 15.4421 46.3775 15.2881 45.4095 15.2881V14.2321H52.9005V15.2881C51.8445 15.2881 51.1075 15.4421 50.6895 15.7501C50.3815 15.9921 50.2275 16.4321 50.2275 17.0701V34.3291C50.2275 35.0551 50.3815 35.5391 50.6895 35.7811C51.1075 36.0671 51.8995 36.2101 53.0655 36.2101V37.2991ZM57.5783 22.6801C58.8983 22.0641 60.4163 21.7561 62.1323 21.7561C63.5183 21.7561 64.6403 22.1191 65.4983 22.8451C66.4223 23.6811 66.8843 24.8471 66.8843 26.3431V34.8901C66.8843 35.0001 66.8843 35.1321 66.8843 35.2861C66.9063 35.4401 66.9283 35.5941 66.9503 35.7481C66.9943 35.9021 67.0493 36.0341 67.1153 36.1441C67.2033 36.2541 67.3023 36.3091 67.4123 36.3091C67.7423 36.3091 68.2153 36.0671 68.8313 35.5831L69.2273 36.0781C68.2593 37.2441 67.4013 37.8271 66.6533 37.8271C65.6853 37.8271 65.1023 37.2111 64.9043 35.9791C63.5403 37.2111 61.8023 37.8271 59.6903 37.8271C58.9643 37.8271 58.3043 37.7501 57.7103 37.5961C57.1383 37.4421 56.6543 37.2001 56.2583 36.8701C55.4443 36.1881 55.0373 35.2311 55.0373 33.9991C55.0373 33.0751 55.3453 32.2501 55.9613 31.5241C56.5993 30.7761 57.4133 30.1601 58.4033 29.6761C60.0973 28.7961 62.2533 28.1911 64.8713 27.8611V25.8151C64.8713 24.9571 64.6073 24.2641 64.0793 23.7361C63.7713 23.4281 63.4083 23.2081 62.9903 23.0761C62.5943 22.9441 62.1653 22.8781 61.7033 22.8781C60.8233 22.8781 60.0753 23.0541 59.4593 23.4061C59.0853 23.6481 58.7883 23.8901 58.5683 24.1321C58.3483 24.3521 58.2383 24.6051 58.2383 24.8911V25.0561C58.2383 26.1341 57.7653 26.6731 56.8193 26.6731C55.9613 26.6731 55.5323 26.1781 55.5323 25.1881C55.5323 24.1541 56.2143 23.3181 57.5783 22.6801ZM64.8713 29.1151C62.9353 29.3131 61.1423 29.8631 59.4923 30.7651C57.9963 31.6011 57.2483 32.6681 57.2483 33.9661C57.2483 34.6701 57.5343 35.2421 58.1063 35.6821C58.6783 36.1001 59.3933 36.3091 60.2513 36.3091C61.0433 36.3091 61.8683 36.1551 62.7263 35.8471C63.4303 35.6051 64.1453 35.1871 64.8713 34.5931V29.1151ZM83.6354 33.3061C83.7454 33.3941 83.8554 33.4711 83.9654 33.5371C84.0754 33.6031 84.1854 33.6801 84.2954 33.7681C82.6894 36.4961 80.5334 37.8601 77.8274 37.8601C75.8914 37.8601 74.2414 37.1781 72.8774 35.8141C71.5134 34.3181 70.8314 32.4371 70.8314 30.1711C70.8314 27.8171 71.5794 25.7931 73.0754 24.0991C74.5274 22.5151 76.3424 21.7231 78.5204 21.7231C79.8184 21.7231 80.9514 21.9761 81.9194 22.4821C82.2714 22.6581 82.5904 22.8671 82.8764 23.1091C83.1844 23.3511 83.4374 23.6371 83.6354 23.9671C83.8554 24.3411 83.9654 24.7151 83.9654 25.0891C83.9654 25.4851 83.8554 25.8591 83.6354 26.2111C83.4154 26.5631 83.0854 26.7391 82.6454 26.7391C81.8534 26.7391 81.3254 26.1231 81.0614 24.8911C80.9954 24.5611 80.8634 24.2861 80.6654 24.0661C80.4674 23.8461 80.2254 23.6481 79.9394 23.4721C79.3674 23.1201 78.6634 22.9441 77.8274 22.9441C76.5734 22.9441 75.4624 23.5931 74.4944 24.8911C73.5264 26.2551 73.0424 27.8611 73.0424 29.7091C73.0424 30.6991 73.1634 31.6011 73.4054 32.4151C73.6694 33.2291 74.0544 33.9331 74.5604 34.5271C75.5944 35.7591 76.8814 36.3751 78.4214 36.3751C80.3134 36.3751 82.0514 35.3521 83.6354 33.3061ZM102.664 37.2661H95.5363V36.2101C96.5483 36.2101 97.2083 36.0891 97.5163 35.8471C97.6483 35.7811 97.7143 35.6821 97.7143 35.5501C97.7143 35.3741 97.6373 35.2091 97.4833 35.0551C97.3733 34.9451 97.2633 34.8351 97.1533 34.7251C97.0653 34.6151 96.9773 34.5051 96.8893 34.3951C96.2293 33.5151 95.5803 32.6351 94.9423 31.7551C94.3043 30.8531 93.6663 29.9621 93.0283 29.0821C92.5663 29.4561 92.0933 29.8191 91.6093 30.1711C91.1473 30.5231 90.6743 30.8861 90.1903 31.2601V34.4941C90.1903 35.1541 90.3333 35.5941 90.6193 35.8141C90.8173 35.9241 91.0703 36.0121 91.3783 36.0781C91.6863 36.1661 92.0493 36.2101 92.4673 36.2101V37.2661H86.0323V36.2101C86.4283 36.2101 86.7693 36.1661 87.0553 36.0781C87.3633 36.0121 87.6053 35.9241 87.7813 35.8141C88.0453 35.6161 88.1773 35.1761 88.1773 34.4941V17.4331C88.1773 16.6851 87.8473 16.2561 87.1873 16.1461C87.0773 16.1241 86.9453 16.1131 86.7913 16.1131C86.6373 16.0911 86.4503 16.0801 86.2303 16.0801C86.2083 15.9701 86.1863 15.8711 86.1643 15.7831C86.1423 15.6731 86.1203 15.5631 86.0983 15.4531C86.8023 15.1891 87.4843 14.9361 88.1443 14.6941C88.8263 14.4301 89.5083 14.1661 90.1903 13.9021V29.6761C91.3123 28.7521 92.4233 27.8501 93.5233 26.9701C94.6453 26.0681 95.7673 25.1551 96.8893 24.2311C97.1093 24.0771 97.2193 23.9231 97.2193 23.7691C97.2193 23.6591 97.1753 23.5601 97.0873 23.4721C96.8453 23.1641 96.1413 23.0101 94.9753 23.0101V21.9871H101.641V23.0101C101.025 23.0101 100.519 23.0871 100.123 23.2411C99.9473 23.3291 99.5843 23.6151 99.0343 24.0991L98.1433 24.6931C97.5273 25.1991 96.9113 25.7051 96.2953 26.2111C95.7013 26.7171 95.0853 27.2231 94.4473 27.7291C95.3273 28.9171 96.1963 30.1161 97.0543 31.3261C97.9343 32.5141 98.8143 33.7021 99.6943 34.8901C100.024 35.3301 100.387 35.6271 100.783 35.7811C101.333 36.0671 101.96 36.2101 102.664 36.2101V37.2661ZM106.788 22.6801C108.108 22.0641 109.626 21.7561 111.342 21.7561C112.728 21.7561 113.85 22.1191 114.708 22.8451C115.632 23.6811 116.094 24.8471 116.094 26.3431V34.8901C116.094 35.0001 116.094 35.1321 116.094 35.2861C116.116 35.4401 116.138 35.5941 116.16 35.7481C116.204 35.9021 116.259 36.0341 116.325 36.1441C116.413 36.2541 116.512 36.3091 116.622 36.3091C116.952 36.3091 117.425 36.0671 118.041 35.5831L118.437 36.0781C117.469 37.2441 116.611 37.8271 115.863 37.8271C114.895 37.8271 114.312 37.2111 114.114 35.9791C112.75 37.2111 111.012 37.8271 108.9 37.8271C108.174 37.8271 107.514 37.7501 106.92 37.5961C106.348 37.4421 105.864 37.2001 105.468 36.8701C104.654 36.1881 104.247 35.2311 104.247 33.9991C104.247 33.0751 104.555 32.2501 105.171 31.5241C105.809 30.7761 106.623 30.1601 107.613 29.6761C109.307 28.7961 111.463 28.1911 114.081 27.8611V25.8151C114.081 24.9571 113.817 24.2641 113.289 23.7361C112.981 23.4281 112.618 23.2081 112.2 23.0761C111.804 22.9441 111.375 22.8781 110.913 22.8781C110.033 22.8781 109.285 23.0541 108.669 23.4061C108.295 23.6481 107.998 23.8901 107.778 24.1321C107.558 24.3521 107.448 24.6051 107.448 24.8911V25.0561C107.448 26.1341 106.975 26.6731 106.029 26.6731C105.171 26.6731 104.742 26.1781 104.742 25.1881C104.742 24.1541 105.424 23.3181 106.788 22.6801ZM114.081 29.1151C112.145 29.3131 110.352 29.8631 108.702 30.7651C107.206 31.6011 106.458 32.6681 106.458 33.9661C106.458 34.6701 106.744 35.2421 107.316 35.6821C107.888 36.1001 108.603 36.3091 109.461 36.3091C110.253 36.3091 111.078 36.1551 111.936 35.8471C112.64 35.6051 113.355 35.1871 114.081 34.5931V29.1151ZM135.815 37.2661H129.281V36.1771C130.183 36.1771 130.821 36.0561 131.195 35.8141C131.459 35.5941 131.591 35.1981 131.591 34.6261V26.4091C131.591 24.4291 130.524 23.4391 128.39 23.4391C126.872 23.4391 125.31 24.0771 123.704 25.3531V34.6261C123.704 35.1981 123.847 35.5941 124.133 35.8141C124.507 36.0561 125.123 36.1771 125.981 36.1771V37.2661H119.513V36.1771C120.349 36.1771 120.954 36.0561 121.328 35.8141C121.57 35.5721 121.691 35.1761 121.691 34.6261V17.7631C121.691 17.1471 121.581 16.7401 121.361 16.5421C121.119 16.3221 120.536 16.2121 119.612 16.2121C119.59 16.1021 119.568 16.0031 119.546 15.9151C119.546 15.8051 119.535 15.6951 119.513 15.5851C120.217 15.2991 120.91 15.0241 121.592 14.7601C122.296 14.4741 123 14.1881 123.704 13.9021V23.9341C125.596 22.4381 127.411 21.6901 129.149 21.6901C130.601 21.6901 131.712 22.0641 132.482 22.8121C133.23 23.5821 133.604 24.6711 133.604 26.0791V34.6261C133.604 35.2201 133.725 35.6161 133.967 35.8141C134.407 36.0561 135.023 36.1771 135.815 36.1771V37.2661ZM151.7 29.7751C151.7 32.2391 150.996 34.2081 149.588 35.6821C148.246 37.1561 146.53 37.8931 144.44 37.8931C142.328 37.8931 140.601 37.1561 139.259 35.6821C137.851 34.2081 137.147 32.2391 137.147 29.7751C137.147 27.3111 137.851 25.3421 139.259 23.8681C140.601 22.3941 142.328 21.6571 144.44 21.6571C146.53 21.6571 148.246 22.3941 149.588 23.8681C150.996 25.3421 151.7 27.3111 151.7 29.7751ZM149.456 29.7751C149.456 27.7511 148.972 26.0901 148.004 24.7921C147.102 23.4941 145.914 22.8451 144.44 22.8451C142.988 22.8451 141.778 23.4941 140.81 24.7921C139.864 26.0901 139.391 27.7511 139.391 29.7751C139.391 31.7771 139.853 33.4381 140.777 34.7581C141.723 36.0341 142.944 36.6721 144.44 36.6721C145.87 36.6721 147.058 36.0341 148.004 34.7581C148.972 33.4601 149.456 31.7991 149.456 29.7751ZM160.053 37.2661H153.717V36.2101C154.575 36.2101 155.158 36.0891 155.466 35.8471C155.73 35.6271 155.862 35.1541 155.862 34.4281V17.2351C155.862 16.8611 155.73 16.5971 155.466 16.4431C155.202 16.2671 154.641 16.1791 153.783 16.1791L153.585 15.3871C154.289 15.1231 155.004 14.8701 155.73 14.6281C156.456 14.3641 157.171 14.1001 157.875 13.8361V34.4281C157.875 35.1101 157.996 35.5721 158.238 35.8141C158.414 35.9241 158.645 36.0121 158.931 36.0781C159.239 36.1661 159.613 36.2101 160.053 36.2101V37.2661ZM166.979 15.4531C166.979 15.9811 166.803 16.4211 166.451 16.7731C166.099 17.1251 165.659 17.3011 165.131 17.3011C164.647 17.3011 164.24 17.1251 163.91 16.7731C163.602 16.4211 163.448 15.9811 163.448 15.4531C163.448 14.9251 163.613 14.4851 163.943 14.1331C164.273 13.7811 164.669 13.6051 165.131 13.6051C165.659 13.6051 166.099 13.7811 166.451 14.1331C166.803 14.4851 166.979 14.9251 166.979 15.4531ZM168.53 37.2991H162.359V36.2101C163.261 36.2101 163.844 36.0781 164.108 35.8141C164.328 35.6161 164.438 35.2531 164.438 34.7251V25.2211C164.438 24.7371 164.339 24.4071 164.141 24.2311C163.899 24.0331 163.316 23.9341 162.392 23.9341L162.26 23.2081L166.451 21.6241V34.7251C166.451 35.3411 166.55 35.7261 166.748 35.8801C167.034 36.1001 167.628 36.2101 168.53 36.2101V37.2991ZM183.312 33.3061C183.422 33.3941 183.532 33.4711 183.642 33.5371C183.752 33.6031 183.862 33.6801 183.972 33.7681C182.366 36.4961 180.21 37.8601 177.504 37.8601C175.568 37.8601 173.918 37.1781 172.554 35.8141C171.19 34.3181 170.508 32.4371 170.508 30.1711C170.508 27.8171 171.256 25.7931 172.752 24.0991C174.204 22.5151 176.019 21.7231 178.197 21.7231C179.495 21.7231 180.628 21.9761 181.596 22.4821C181.948 22.6581 182.267 22.8671 182.553 23.1091C182.861 23.3511 183.114 23.6371 183.312 23.9671C183.532 24.3411 183.642 24.7151 183.642 25.0891C183.642 25.4851 183.532 25.8591 183.312 26.2111C183.092 26.5631 182.762 26.7391 182.322 26.7391C181.53 26.7391 181.002 26.1231 180.738 24.8911C180.672 24.5611 180.54 24.2861 180.342 24.0661C180.144 23.8461 179.902 23.6481 179.616 23.4721C179.044 23.1201 178.34 22.9441 177.504 22.9441C176.25 22.9441 175.139 23.5931 174.171 24.8911C173.203 26.2551 172.719 27.8611 172.719 29.7091C172.719 30.6991 172.84 31.6011 173.082 32.4151C173.346 33.2291 173.731 33.9331 174.237 34.5271C175.271 35.7591 176.558 36.3751 178.098 36.3751C179.99 36.3751 181.728 35.3521 183.312 33.3061ZM198.678 33.4711C198.678 34.3731 198.425 35.1761 197.919 35.8801C197.809 35.9901 197.699 36.1001 197.589 36.2101C197.501 36.3201 197.402 36.4301 197.292 36.5401C196.302 37.3981 194.96 37.8271 193.266 37.8271C192.1 37.8271 191.088 37.6401 190.23 37.2661C190.12 37.2221 190.01 37.1891 189.9 37.1671C189.812 37.1671 189.713 37.1671 189.603 37.1671H189.273C189.031 37.2771 188.8 37.3651 188.58 37.4311C188.36 37.5191 188.129 37.6071 187.887 37.6951C187.579 36.8591 187.26 36.0451 186.93 35.2531C186.6 34.4391 186.281 33.6141 185.973 32.7781C186.061 32.7121 186.138 32.6461 186.204 32.5801C186.292 32.5141 186.391 32.4591 186.501 32.4151C187.447 33.7351 188.349 34.7031 189.207 35.3191C190.571 36.1991 191.913 36.6391 193.233 36.6391C194.267 36.6391 195.136 36.3201 195.84 35.6821C196.412 35.1101 196.698 34.4171 196.698 33.6031C196.698 33.0751 196.489 32.6021 196.071 32.1841C195.983 32.1181 195.873 32.0411 195.741 31.9531C195.609 31.8651 195.455 31.7661 195.279 31.6561C194.993 31.4801 194.619 31.3041 194.157 31.1281C193.695 30.9301 193.134 30.7211 192.474 30.5011C191.44 30.1491 190.582 29.8301 189.9 29.5441C189.218 29.2361 188.701 28.9391 188.349 28.6531C187.029 27.8391 186.369 26.7611 186.369 25.4191C186.369 24.1871 186.952 23.2081 188.118 22.4821C188.998 21.9321 190.098 21.6571 191.418 21.6571C192.562 21.6571 193.739 21.8771 194.949 22.3171C195.125 22.2731 195.312 22.1961 195.51 22.0861C195.708 21.9541 195.928 21.8001 196.17 21.6241C196.478 22.4161 196.786 23.2191 197.094 24.0331C197.402 24.8251 197.71 25.6281 198.018 26.4421C197.908 26.4861 197.798 26.5411 197.688 26.6071C197.6 26.6731 197.501 26.7281 197.391 26.7721C196.841 25.7161 196.104 24.8581 195.18 24.1981C193.816 23.2961 192.562 22.8451 191.418 22.8451C190.582 22.8451 189.922 22.9881 189.438 23.2741C188.712 23.6701 188.349 24.3521 188.349 25.3201C188.349 25.9361 188.668 26.4641 189.306 26.9041C189.394 26.9481 189.482 26.9921 189.57 27.0361C189.658 27.0801 189.757 27.1241 189.867 27.1681C190.175 27.3441 190.56 27.5311 191.022 27.7291C191.484 27.9271 192.001 28.1141 192.573 28.2901C193.761 28.6641 194.74 29.0381 195.51 29.4121C196.302 29.7641 196.907 30.0941 197.325 30.4021C198.227 31.1281 198.678 32.1511 198.678 33.4711Z" fill="black"/>
<path d="M8.70002 29.8816L5.71042 27.5311V26.2861L8.70002 23.9124V25.169L6.55709 26.9028L8.70002 28.6366V29.8816Z" fill="black"/>
<path d="M9.6094 30.3005L11.8882 20.8754H12.8605L10.5712 30.3005H9.6094Z" fill="black"/>
<path d="M13.7697 29.8816V28.6366L15.9231 26.8912L13.7697 25.169V23.9124L16.7699 26.2744V27.5194L13.7697 29.8816Z" fill="black"/>
</svg>
