<svg width="215" height="40" viewBox="0 0 215 40" fill="none" xmlns="http://www.w3.org/2000/svg">
<path d="M67.803 32.452H60.18V31.363C61.126 31.363 61.808 31.22 62.226 30.934C62.622 30.648 62.82 30.164 62.82 29.482V20.803H51.072V29.482C51.072 30.208 51.226 30.692 51.534 30.934C51.952 31.22 52.7 31.363 53.778 31.363V32.452H46.188V31.363C47.354 31.363 48.135 31.198 48.531 30.868C48.817 30.582 48.96 30.12 48.96 29.482V12.223C48.96 11.585 48.806 11.145 48.498 10.903C48.08 10.595 47.332 10.441 46.254 10.441V9.385H53.679V10.441C52.623 10.441 51.919 10.595 51.567 10.903C51.237 11.167 51.072 11.607 51.072 12.223V19.582H62.82V12.223C62.82 11.607 62.622 11.167 62.226 10.903C61.808 10.595 61.115 10.441 60.147 10.441V9.385H67.638V10.441C66.582 10.441 65.845 10.595 65.427 10.903C65.119 11.145 64.965 11.585 64.965 12.223V29.482C64.965 30.208 65.119 30.692 65.427 30.934C65.845 31.22 66.637 31.363 67.803 31.363V32.452ZM72.3158 17.833C73.6358 17.217 75.1538 16.909 76.8698 16.909C78.2558 16.909 79.3778 17.272 80.2358 17.998C81.1598 18.834 81.6218 20 81.6218 21.496V30.043C81.6218 30.153 81.6218 30.285 81.6218 30.439C81.6438 30.593 81.6658 30.747 81.6878 30.901C81.7318 31.055 81.7868 31.187 81.8528 31.297C81.9408 31.407 82.0398 31.462 82.1498 31.462C82.4798 31.462 82.9528 31.22 83.5688 30.736L83.9648 31.231C82.9968 32.397 82.1388 32.98 81.3908 32.98C80.4228 32.98 79.8398 32.364 79.6418 31.132C78.2778 32.364 76.5398 32.98 74.4278 32.98C73.7018 32.98 73.0418 32.903 72.4478 32.749C71.8758 32.595 71.3918 32.353 70.9958 32.023C70.1818 31.341 69.7748 30.384 69.7748 29.152C69.7748 28.228 70.0828 27.403 70.6988 26.677C71.3368 25.929 72.1508 25.313 73.1408 24.829C74.8348 23.949 76.9908 23.344 79.6088 23.014V20.968C79.6088 20.11 79.3448 19.417 78.8168 18.889C78.5088 18.581 78.1458 18.361 77.7278 18.229C77.3318 18.097 76.9028 18.031 76.4408 18.031C75.5608 18.031 74.8128 18.207 74.1968 18.559C73.8228 18.801 73.5258 19.043 73.3058 19.285C73.0858 19.505 72.9758 19.758 72.9758 20.044V20.209C72.9758 21.287 72.5028 21.826 71.5568 21.826C70.6988 21.826 70.2698 21.331 70.2698 20.341C70.2698 19.307 70.9518 18.471 72.3158 17.833ZM79.6088 24.268C77.6728 24.466 75.8798 25.016 74.2298 25.918C72.7338 26.754 71.9858 27.821 71.9858 29.119C71.9858 29.823 72.2718 30.395 72.8438 30.835C73.4158 31.253 74.1308 31.462 74.9888 31.462C75.7808 31.462 76.6058 31.308 77.4638 31C78.1678 30.758 78.8828 30.34 79.6088 29.746V24.268ZM98.3729 28.459C98.4829 28.547 98.5929 28.624 98.7029 28.69C98.8129 28.756 98.9229 28.833 99.0329 28.921C97.4269 31.649 95.2709 33.013 92.5649 33.013C90.6289 33.013 88.9789 32.331 87.6149 30.967C86.2509 29.471 85.5689 27.59 85.5689 25.324C85.5689 22.97 86.3169 20.946 87.8129 19.252C89.2649 17.668 91.0799 16.876 93.2579 16.876C94.5559 16.876 95.6889 17.129 96.6569 17.635C97.0089 17.811 97.3279 18.02 97.6139 18.262C97.9219 18.504 98.1749 18.79 98.3729 19.12C98.5929 19.494 98.7029 19.868 98.7029 20.242C98.7029 20.638 98.5929 21.012 98.3729 21.364C98.1529 21.716 97.8229 21.892 97.3829 21.892C96.5909 21.892 96.0629 21.276 95.7989 20.044C95.7329 19.714 95.6009 19.439 95.4029 19.219C95.2049 18.999 94.9629 18.801 94.6769 18.625C94.1049 18.273 93.4009 18.097 92.5649 18.097C91.3109 18.097 90.1999 18.746 89.2319 20.044C88.2639 21.408 87.7799 23.014 87.7799 24.862C87.7799 25.852 87.9009 26.754 88.1429 27.568C88.4069 28.382 88.7919 29.086 89.2979 29.68C90.3319 30.912 91.6189 31.528 93.1589 31.528C95.0509 31.528 96.7889 30.505 98.3729 28.459ZM117.402 32.419H110.274V31.363C111.286 31.363 111.946 31.242 112.254 31C112.386 30.934 112.452 30.835 112.452 30.703C112.452 30.527 112.375 30.362 112.221 30.208C112.111 30.098 112.001 29.988 111.891 29.878C111.803 29.768 111.715 29.658 111.627 29.548C110.967 28.668 110.318 27.788 109.68 26.908C109.042 26.006 108.404 25.115 107.766 24.235C107.304 24.609 106.831 24.972 106.347 25.324C105.885 25.676 105.412 26.039 104.928 26.413V29.647C104.928 30.307 105.071 30.747 105.357 30.967C105.555 31.077 105.808 31.165 106.116 31.231C106.424 31.319 106.787 31.363 107.205 31.363V32.419H100.77V31.363C101.166 31.363 101.507 31.319 101.793 31.231C102.101 31.165 102.343 31.077 102.519 30.967C102.783 30.769 102.915 30.329 102.915 29.647V12.586C102.915 11.838 102.585 11.409 101.925 11.299C101.815 11.277 101.683 11.266 101.529 11.266C101.375 11.244 101.188 11.233 100.968 11.233C100.946 11.123 100.924 11.024 100.902 10.936C100.88 10.826 100.858 10.716 100.836 10.606C101.54 10.342 102.222 10.089 102.882 9.847C103.564 9.583 104.246 9.319 104.928 9.055V24.829C106.05 23.905 107.161 23.003 108.261 22.123C109.383 21.221 110.505 20.308 111.627 19.384C111.847 19.23 111.957 19.076 111.957 18.922C111.957 18.812 111.913 18.713 111.825 18.625C111.583 18.317 110.879 18.163 109.713 18.163V17.14H116.379V18.163C115.763 18.163 115.257 18.24 114.861 18.394C114.685 18.482 114.322 18.768 113.772 19.252L112.881 19.846C112.265 20.352 111.649 20.858 111.033 21.364C110.439 21.87 109.823 22.376 109.185 22.882C110.065 24.07 110.934 25.269 111.792 26.479C112.672 27.667 113.552 28.855 114.432 30.043C114.762 30.483 115.125 30.78 115.521 30.934C116.071 31.22 116.698 31.363 117.402 31.363V32.419ZM121.526 17.833C122.846 17.217 124.364 16.909 126.08 16.909C127.466 16.909 128.588 17.272 129.446 17.998C130.37 18.834 130.832 20 130.832 21.496V30.043C130.832 30.153 130.832 30.285 130.832 30.439C130.854 30.593 130.876 30.747 130.898 30.901C130.942 31.055 130.997 31.187 131.063 31.297C131.151 31.407 131.25 31.462 131.36 31.462C131.69 31.462 132.163 31.22 132.779 30.736L133.175 31.231C132.207 32.397 131.349 32.98 130.601 32.98C129.633 32.98 129.05 32.364 128.852 31.132C127.488 32.364 125.75 32.98 123.638 32.98C122.912 32.98 122.252 32.903 121.658 32.749C121.086 32.595 120.602 32.353 120.206 32.023C119.392 31.341 118.985 30.384 118.985 29.152C118.985 28.228 119.293 27.403 119.909 26.677C120.547 25.929 121.361 25.313 122.351 24.829C124.045 23.949 126.201 23.344 128.819 23.014V20.968C128.819 20.11 128.555 19.417 128.027 18.889C127.719 18.581 127.356 18.361 126.938 18.229C126.542 18.097 126.113 18.031 125.651 18.031C124.771 18.031 124.023 18.207 123.407 18.559C123.033 18.801 122.736 19.043 122.516 19.285C122.296 19.505 122.186 19.758 122.186 20.044V20.209C122.186 21.287 121.713 21.826 120.767 21.826C119.909 21.826 119.48 21.331 119.48 20.341C119.48 19.307 120.162 18.471 121.526 17.833ZM128.819 24.268C126.883 24.466 125.09 25.016 123.44 25.918C121.944 26.754 121.196 27.821 121.196 29.119C121.196 29.823 121.482 30.395 122.054 30.835C122.626 31.253 123.341 31.462 124.199 31.462C124.991 31.462 125.816 31.308 126.674 31C127.378 30.758 128.093 30.34 128.819 29.746V24.268ZM150.553 32.419H144.019V31.33C144.921 31.33 145.559 31.209 145.933 30.967C146.197 30.747 146.329 30.351 146.329 29.779V21.562C146.329 19.582 145.262 18.592 143.128 18.592C141.61 18.592 140.048 19.23 138.442 20.506V29.779C138.442 30.351 138.585 30.747 138.871 30.967C139.245 31.209 139.861 31.33 140.719 31.33V32.419H134.251V31.33C135.087 31.33 135.692 31.209 136.066 30.967C136.308 30.725 136.429 30.329 136.429 29.779V12.916C136.429 12.3 136.319 11.893 136.099 11.695C135.857 11.475 135.274 11.365 134.35 11.365C134.328 11.255 134.306 11.156 134.284 11.068C134.284 10.958 134.273 10.848 134.251 10.738C134.955 10.452 135.648 10.177 136.33 9.913C137.034 9.627 137.738 9.341 138.442 9.055V19.087C140.334 17.591 142.149 16.843 143.887 16.843C145.339 16.843 146.45 17.217 147.22 17.965C147.968 18.735 148.342 19.824 148.342 21.232V29.779C148.342 30.373 148.463 30.769 148.705 30.967C149.145 31.209 149.761 31.33 150.553 31.33V32.419ZM166.437 24.928C166.437 27.392 165.733 29.361 164.325 30.835C162.983 32.309 161.267 33.046 159.177 33.046C157.065 33.046 155.338 32.309 153.996 30.835C152.588 29.361 151.884 27.392 151.884 24.928C151.884 22.464 152.588 20.495 153.996 19.021C155.338 17.547 157.065 16.81 159.177 16.81C161.267 16.81 162.983 17.547 164.325 19.021C165.733 20.495 166.437 22.464 166.437 24.928ZM164.193 24.928C164.193 22.904 163.709 21.243 162.741 19.945C161.839 18.647 160.651 17.998 159.177 17.998C157.725 17.998 156.515 18.647 155.547 19.945C154.601 21.243 154.128 22.904 154.128 24.928C154.128 26.93 154.59 28.591 155.514 29.911C156.46 31.187 157.681 31.825 159.177 31.825C160.607 31.825 161.795 31.187 162.741 29.911C163.709 28.613 164.193 26.952 164.193 24.928ZM174.79 32.419H168.454V31.363C169.312 31.363 169.895 31.242 170.203 31C170.467 30.78 170.599 30.307 170.599 29.581V12.388C170.599 12.014 170.467 11.75 170.203 11.596C169.939 11.42 169.378 11.332 168.52 11.332L168.322 10.54C169.026 10.276 169.741 10.023 170.467 9.781C171.193 9.517 171.908 9.253 172.612 8.989V29.581C172.612 30.263 172.733 30.725 172.975 30.967C173.151 31.077 173.382 31.165 173.668 31.231C173.976 31.319 174.35 31.363 174.79 31.363V32.419ZM181.716 10.606C181.716 11.134 181.54 11.574 181.188 11.926C180.836 12.278 180.396 12.454 179.868 12.454C179.384 12.454 178.977 12.278 178.647 11.926C178.339 11.574 178.185 11.134 178.185 10.606C178.185 10.078 178.35 9.638 178.68 9.286C179.01 8.934 179.406 8.758 179.868 8.758C180.396 8.758 180.836 8.934 181.188 9.286C181.54 9.638 181.716 10.078 181.716 10.606ZM183.267 32.452H177.096V31.363C177.998 31.363 178.581 31.231 178.845 30.967C179.065 30.769 179.175 30.406 179.175 29.878V20.374C179.175 19.89 179.076 19.56 178.878 19.384C178.636 19.186 178.053 19.087 177.129 19.087L176.997 18.361L181.188 16.777V29.878C181.188 30.494 181.287 30.879 181.485 31.033C181.771 31.253 182.365 31.363 183.267 31.363V32.452ZM198.05 28.459C198.16 28.547 198.27 28.624 198.38 28.69C198.49 28.756 198.6 28.833 198.71 28.921C197.104 31.649 194.948 33.013 192.242 33.013C190.306 33.013 188.656 32.331 187.292 30.967C185.928 29.471 185.246 27.59 185.246 25.324C185.246 22.97 185.994 20.946 187.49 19.252C188.942 17.668 190.757 16.876 192.935 16.876C194.233 16.876 195.366 17.129 196.334 17.635C196.686 17.811 197.005 18.02 197.291 18.262C197.599 18.504 197.852 18.79 198.05 19.12C198.27 19.494 198.38 19.868 198.38 20.242C198.38 20.638 198.27 21.012 198.05 21.364C197.83 21.716 197.5 21.892 197.06 21.892C196.268 21.892 195.74 21.276 195.476 20.044C195.41 19.714 195.278 19.439 195.08 19.219C194.882 18.999 194.64 18.801 194.354 18.625C193.782 18.273 193.078 18.097 192.242 18.097C190.988 18.097 189.877 18.746 188.909 20.044C187.941 21.408 187.457 23.014 187.457 24.862C187.457 25.852 187.578 26.754 187.82 27.568C188.084 28.382 188.469 29.086 188.975 29.68C190.009 30.912 191.296 31.528 192.836 31.528C194.728 31.528 196.466 30.505 198.05 28.459ZM213.416 28.624C213.416 29.526 213.163 30.329 212.657 31.033C212.547 31.143 212.437 31.253 212.327 31.363C212.239 31.473 212.14 31.583 212.03 31.693C211.04 32.551 209.698 32.98 208.004 32.98C206.838 32.98 205.826 32.793 204.968 32.419C204.858 32.375 204.748 32.342 204.638 32.32C204.55 32.32 204.451 32.32 204.341 32.32H204.011C203.769 32.43 203.538 32.518 203.318 32.584C203.098 32.672 202.867 32.76 202.625 32.848C202.317 32.012 201.998 31.198 201.668 30.406C201.338 29.592 201.019 28.767 200.711 27.931C200.799 27.865 200.876 27.799 200.942 27.733C201.03 27.667 201.129 27.612 201.239 27.568C202.185 28.888 203.087 29.856 203.945 30.472C205.309 31.352 206.651 31.792 207.971 31.792C209.005 31.792 209.874 31.473 210.578 30.835C211.15 30.263 211.436 29.57 211.436 28.756C211.436 28.228 211.227 27.755 210.809 27.337C210.721 27.271 210.611 27.194 210.479 27.106C210.347 27.018 210.193 26.919 210.017 26.809C209.731 26.633 209.357 26.457 208.895 26.281C208.433 26.083 207.872 25.874 207.212 25.654C206.178 25.302 205.32 24.983 204.638 24.697C203.956 24.389 203.439 24.092 203.087 23.806C201.767 22.992 201.107 21.914 201.107 20.572C201.107 19.34 201.69 18.361 202.856 17.635C203.736 17.085 204.836 16.81 206.156 16.81C207.3 16.81 208.477 17.03 209.687 17.47C209.863 17.426 210.05 17.349 210.248 17.239C210.446 17.107 210.666 16.953 210.908 16.777C211.216 17.569 211.524 18.372 211.832 19.186C212.14 19.978 212.448 20.781 212.756 21.595C212.646 21.639 212.536 21.694 212.426 21.76C212.338 21.826 212.239 21.881 212.129 21.925C211.579 20.869 210.842 20.011 209.918 19.351C208.554 18.449 207.3 17.998 206.156 17.998C205.32 17.998 204.66 18.141 204.176 18.427C203.45 18.823 203.087 19.505 203.087 20.473C203.087 21.089 203.406 21.617 204.043 22.057C204.132 22.101 204.22 22.145 204.308 22.189C204.396 22.233 204.495 22.277 204.605 22.321C204.913 22.497 205.298 22.684 205.76 22.882C206.222 23.08 206.739 23.267 207.311 23.443C208.499 23.817 209.478 24.191 210.248 24.565C211.04 24.917 211.645 25.247 212.063 25.555C212.965 26.281 213.416 27.304 213.416 28.624Z" fill="white"/>
<path d="M3.86899 15.2553C3.73485 15.2116 3.61469 15.1572 3.52347 15.0935C3.12291 14.8141 3.15539 14.2679 3.20134 13.8814C3.21413 13.7743 3.39893 13.7475 3.43898 13.8563C3.58271 14.247 3.70961 14.7308 4.29916 14.7942C4.98297 14.8675 5.35727 14.4981 5.46801 13.9741C5.6013 13.3434 5.70498 12.7124 5.75008 12.0738C5.52422 12.0568 5.30846 11.927 5.20866 11.6747C4.95621 11.0368 5.04877 10.1407 5.25864 9.50576C5.26672 9.4815 5.30863 9.49567 5.30358 9.51811C5.1989 9.97351 5.11475 10.4853 5.30257 10.9351C5.39025 11.1451 5.48837 11.4322 5.66391 11.6023C5.78946 11.7239 5.97661 11.6678 6.13599 11.6075C5.83574 10.9425 5.95305 9.97842 6.12203 9.48136C6.15232 9.39216 6.29032 9.447 6.28225 9.52484C6.21173 10.1986 5.97998 11.3923 6.9987 11.7211C8.08996 12.0733 8.1694 10.9969 8.34679 10.3797C8.56255 9.62722 8.7677 8.61824 9.36534 7.98864C9.14655 7.66129 9.03682 7.28162 9.0794 6.94066C9.08411 6.90209 9.1521 6.89087 9.16557 6.93155C9.32024 7.39901 10.1703 8.68233 10.9625 8.30098C11.6463 7.97195 11.9523 7.32678 12.4531 6.8537C12.5474 6.76464 12.6751 6.83589 12.6724 6.94136C12.6666 7.17895 12.5262 7.49509 12.3069 7.79958C14.7296 8.38864 17.1482 8.25863 19.4107 7.21626C19.5283 7.16212 19.6071 7.32552 19.5204 7.38835C19.2944 7.55189 19.0541 7.7021 18.8026 7.83955C19.5983 7.8655 20.4035 8.03015 21.2014 8.04236C22.3325 8.05975 23.4662 7.99088 24.5901 7.88962C25.5745 7.80084 26.2888 7.74656 27.2499 7.99607C27.8626 8.15512 28.7059 8.40547 29.3177 8.10084C29.9577 7.78218 30.1415 6.99831 29.3308 6.77797C29.2902 6.76689 29.2778 6.70588 29.3303 6.70111C29.7026 6.66731 30.0574 6.82271 30.2804 7.061C30.2905 7.05974 30.3002 7.05862 30.3103 7.05721C30.3342 7.05371 30.3568 7.04725 30.38 7.04192C30.3973 7.01906 30.4192 6.99929 30.4475 6.98568C30.7779 6.82607 31.2632 6.63729 31.461 6.35356C31.9593 5.63812 30.9071 5.03896 30.3081 4.8088C29.4794 4.49028 28.5948 4.40669 27.737 4.17682C27.6894 4.16391 27.6784 4.09828 27.7363 4.08986C27.9388 4.06111 28.1578 4.04217 28.3846 4.0325C27.7003 3.46699 27.168 2.86572 26.092 2.74637C24.9875 2.62379 24.024 2.90065 23.0924 3.37597C23.0005 3.42281 22.929 3.29686 22.9792 3.24006C23.0998 3.10233 23.2393 2.97652 23.3915 2.86152C22.9933 2.59784 22.705 2.24566 22.2181 2.05688C21.7336 1.8688 21.1851 1.71859 20.6406 1.77076C19.7671 1.85463 18.7907 2.11691 17.9719 1.70386C16.985 1.20582 16.2409 0.499639 14.9739 0.574815C14.0207 0.631618 13.1605 0.927976 12.2517 1.14088C12.2126 1.18422 12.15 1.21087 12.062 1.20021C11.0414 1.07384 10.2186 0.705253 9.141 0.854343C8.00514 1.01185 7.09665 1.38015 6.60706 2.28325C6.58653 2.32112 6.53285 2.30892 6.52393 2.27133C6.49111 2.13079 6.49498 1.99559 6.52291 1.86557C5.81976 1.91438 5.13107 2.05492 4.51257 2.35632C4.15409 2.53108 3.79022 2.74763 3.54669 3.03473C3.43141 3.17092 3.12426 3.49757 3.06333 3.7447C3.14008 3.81875 3.15152 3.94007 3.04398 4.02562C2.32904 4.59534 1.57202 5.01708 1.20126 5.82957C0.862302 6.57235 0.722109 7.37727 1.07874 8.12679C1.16895 8.13927 1.24232 8.22763 1.20732 8.32048C0.789932 9.43283 0.382311 10.4319 0.654116 11.62C0.79431 12.2327 1.05652 12.7627 1.40406 13.3103C1.63093 13.6677 1.9024 14.0563 1.96669 14.4656C2.04613 14.972 1.95727 15.4577 1.82969 15.9555C1.70229 16.453 1.4256 17.1621 1.69926 17.6503C2.30211 18.7269 3.02294 17.081 3.10053 16.9016C3.20521 16.6596 3.31023 16.4178 3.41862 16.1767C3.55881 15.8643 3.69093 15.5514 3.86899 15.2553ZM27.2025 5.79451C27.3789 5.87852 27.5712 6.02593 27.6518 6.18217C27.6953 6.2666 27.5988 6.37656 27.4879 6.33224C27.3794 6.2889 27.3063 6.21723 27.2287 6.14177C27.1611 6.07628 27.1005 6.00839 27.0532 5.93139C27.0088 5.85888 27.1062 5.74864 27.2025 5.79451ZM26.8142 6.3415C26.8766 6.4185 26.9495 6.49185 26.9844 6.58049C27.0061 6.63505 26.9369 6.71261 26.8718 6.66043C26.791 6.59564 26.7442 6.51092 26.6888 6.43028C26.6375 6.35594 26.7476 6.25973 26.8142 6.3415ZM16.4235 5.61554C16.4515 5.54303 16.504 5.47445 16.579 5.42957C16.6571 5.383 16.717 5.40867 16.7933 5.41077C16.8456 5.41231 16.8426 5.47809 16.8062 5.49492C16.7958 5.48272 16.7914 5.48707 16.7926 5.50797L16.7827 5.52424C16.7709 5.54373 16.7562 5.56211 16.7418 5.58034C16.7214 5.60573 16.6898 5.64149 16.6943 5.67445C16.7012 5.72718 16.7313 5.76589 16.7998 5.77417C16.9722 5.79493 16.9766 5.66491 16.9641 5.55439C16.956 5.48455 17.0265 5.42227 17.1114 5.45215C17.3248 5.52718 17.329 5.78834 17.211 5.92761C17.0905 6.06983 16.8577 6.13701 16.6652 6.05047C16.4764 5.9659 16.3545 5.79479 16.4235 5.61554ZM15.2299 6.41738C15.3126 6.25202 15.511 6.09998 15.7394 6.14767C15.8134 6.16309 15.8358 6.25818 15.7604 6.28652C15.6583 6.32523 15.5297 6.38834 15.5133 6.49283C15.4997 6.58273 15.5642 6.65931 15.6679 6.68905C15.766 6.71724 15.8604 6.68456 15.9149 6.61261C15.9718 6.53757 15.9471 6.45903 15.9659 6.37698C15.9799 6.31625 16.0529 6.25552 16.1314 6.29227C16.3579 6.39774 16.3202 6.69213 16.185 6.84431C16.0317 7.01738 15.7279 7.08695 15.499 6.96941C15.2762 6.85553 15.1197 6.63785 15.2299 6.41738ZM10.9309 4.13797C10.7712 4.16966 10.6168 4.18734 10.4527 4.19645C10.3714 4.20122 10.3585 4.09828 10.4354 4.08257C10.5949 4.05003 10.7483 4.02759 10.9124 4.01735C10.9987 4.01216 11.0127 4.12184 10.9309 4.13797ZM9.52775 3.78579C9.87277 3.52478 10.4238 3.46573 10.8652 3.53095C10.9898 3.54946 11.0056 3.74596 10.8664 3.74484C10.6515 3.74315 10.428 3.75493 10.2173 3.79014C10.0032 3.82576 9.80965 3.89869 9.6013 3.9461C9.49628 3.96994 9.46548 3.83292 9.52775 3.78579ZM2.17 5.9997C2.22688 5.93728 2.33274 6.00447 2.29824 6.07081C2.1493 6.3565 2.10285 6.64851 2.09191 6.95735C2.08803 7.06829 1.92175 7.04249 1.89701 6.9537C1.80293 6.61681 1.92192 6.27179 2.17 5.9997ZM2.25785 11.0918C2.12354 11.2818 1.85393 11.3648 1.60367 11.2849C1.36855 11.21 1.17938 11.0068 1.24132 10.7873C1.29803 10.5871 1.44563 10.4351 1.70599 10.4494C1.74437 10.4514 1.74167 10.4978 1.71542 10.5107C1.46886 10.6316 1.3115 11.0187 1.70364 11.0805C1.8583 11.1048 1.98604 11.0633 2.05707 10.9427C2.12506 10.8274 2.10857 10.7379 2.0781 10.6174C2.07087 10.5888 2.1084 10.557 2.14223 10.5724C2.34436 10.665 2.36438 10.9407 2.25785 11.0918ZM2.54749 7.10041C2.49717 7.20714 2.33241 7.14796 2.34452 7.04585C2.37145 6.82102 2.45476 6.59283 2.57021 6.38848C2.60993 6.31807 2.70872 6.35622 2.70569 6.42523C2.6956 6.65216 2.64713 6.88891 2.54749 7.10041Z" fill="white"/>
<path d="M29.4897 6.8348C29.0371 6.7097 28.4799 6.76468 28.0211 6.88151C27.8854 6.91601 27.793 6.74083 27.9236 6.68866C28.6307 6.40689 28.6847 5.57154 27.9236 5.2857C26.9966 4.93759 26.2721 5.4714 25.5984 5.94153C25.5447 5.97897 25.4725 5.98402 25.4195 5.94153C24.9636 5.57588 23.8435 4.07082 23.271 5.18486C23.0985 5.52076 22.9371 5.98262 22.4079 6.01025C21.9742 6.03297 21.7041 5.74489 21.4543 5.49103C21.3399 5.37462 21.1425 5.12357 20.9323 5.13423C20.5208 5.15512 20.2544 5.66523 20.0849 5.92021C20.0539 5.96663 19.9664 5.9916 19.9117 5.95808C19.0614 5.43717 18.5742 4.62272 17.6513 4.18134C17.4333 4.4596 17.3079 4.76985 17.158 5.07854C17.1233 5.14951 17.0198 5.18626 16.9464 5.12511C16.6442 4.87293 16.6246 4.50995 16.204 4.30673C15.8092 4.11598 15.3526 4.04024 14.8982 4.07952C13.9051 4.16563 12.888 4.64824 12.6622 5.51095C12.6477 5.56565 12.5696 5.60141 12.5063 5.58458C11.4913 5.31656 9.44427 4.71178 9.43888 6.15527C9.43854 6.24027 9.33302 6.27982 9.24837 6.2463C8.49791 5.94952 7.50578 5.99707 6.773 6.32021C6.47747 6.45065 6.09509 6.64532 6.01767 6.94224C5.90575 7.37113 6.34569 7.67212 6.7247 7.88937C6.85884 7.96623 6.74338 8.13327 6.59679 8.07156C6.33576 7.96146 5.9687 7.74309 5.66441 7.76567C5.30391 7.79232 5.01645 8.02991 4.79951 8.25263C4.42319 8.63917 3.83397 9.35377 4.44474 9.77916C4.50431 9.82081 4.48933 9.91716 4.41915 9.94493C2.89519 10.5466 3.34573 12.1239 4.00345 13.115C4.07717 13.2262 3.91291 13.3145 3.80452 13.2429C3.3215 12.9234 2.69307 12.4316 2.21661 13.0774C2.15804 13.1568 2.01835 13.1394 1.9852 13.0521C1.85527 12.7096 1.38049 11.6367 0.905548 12.3834C1.04052 12.6985 1.20798 13.0021 1.40372 13.3105C1.63059 13.6678 1.90206 14.0565 1.96635 14.4657C2.04578 14.9722 1.95692 15.4579 1.82935 15.9557C1.70194 16.4531 1.42526 17.1623 1.69892 17.6505C2.30177 18.7271 3.0226 17.0812 3.10019 16.9018C3.20487 16.6597 3.30989 16.4179 3.41827 16.1768C3.5588 15.8645 3.69075 15.5514 3.86881 15.2554C3.73468 15.2116 3.61451 15.1572 3.52329 15.0935C3.12274 14.8141 3.15522 14.268 3.20116 13.8814C3.21396 13.7743 3.39875 13.7475 3.4388 13.8563C3.58253 14.2471 3.70943 14.7308 4.29899 14.7942C4.98279 14.8676 5.35709 14.4981 5.46783 13.9742C5.60113 13.3434 5.7048 12.7124 5.74991 12.0738C5.52405 12.0569 5.30828 11.927 5.20848 11.6747C4.95603 11.0368 5.0486 10.1407 5.25847 9.5058C5.26655 9.48154 5.30845 9.4957 5.30341 9.51814C5.19872 9.97355 5.11457 10.4853 5.30239 10.9351C5.39008 11.1451 5.4882 11.4322 5.66374 11.6023C5.78929 11.7239 5.97644 11.6678 6.13582 11.6075C5.83557 10.9426 5.95288 9.97846 6.12185 9.4814C6.15214 9.39219 6.29015 9.44703 6.28207 9.52487C6.21155 10.1987 5.9798 11.3924 6.99853 11.7211C8.08978 12.0733 8.16922 10.997 8.34661 10.3797C8.56237 9.62726 8.76753 8.61827 9.36517 7.98867C9.14638 7.66132 9.03664 7.28165 9.07922 6.94069C9.08393 6.90212 9.15193 6.89091 9.16539 6.93158C9.32006 7.39905 10.1701 8.68237 10.9623 8.30102C11.6461 7.97198 11.9521 7.32681 12.453 6.85374C12.5472 6.76468 12.675 6.83593 12.6723 6.9414C12.6664 7.17899 12.526 7.49512 12.3067 7.79961C14.7294 8.38868 17.148 8.25866 19.4105 7.2163C19.5281 7.16216 19.6069 7.32555 19.5202 7.38839C19.2942 7.55192 19.0539 7.70214 18.8024 7.83958C19.5982 7.86553 20.4033 8.03019 21.2012 8.04239C22.3324 8.05978 23.466 7.99092 24.59 7.88965C25.5743 7.80087 26.2886 7.7466 27.2498 7.99611C27.8624 8.15516 28.7057 8.40551 29.3175 8.10088C29.9113 7.80508 30.111 7.10956 29.4897 6.8348ZM16.1852 6.84434C16.0319 7.01741 15.7281 7.08698 15.4992 6.96945C15.2764 6.85542 15.1197 6.63789 15.2299 6.41741C15.3126 6.25205 15.511 6.10001 15.7394 6.1477C15.8134 6.16313 15.8358 6.25822 15.7604 6.28655C15.6582 6.32526 15.5297 6.38838 15.5133 6.49286C15.4997 6.58277 15.5642 6.65935 15.6678 6.68908C15.766 6.71727 15.8604 6.68459 15.9149 6.61264C15.9718 6.53761 15.9471 6.45906 15.9659 6.37701C15.9799 6.31628 16.0529 6.25555 16.1313 6.2923C16.3579 6.39777 16.3203 6.69217 16.1852 6.84434ZM17.2108 5.9275C17.0903 6.06972 16.8576 6.1369 16.665 6.05036C16.4765 5.96579 16.3545 5.79482 16.4235 5.61544C16.4515 5.54293 16.504 5.47434 16.579 5.42946C16.6571 5.3829 16.717 5.40856 16.7933 5.41067C16.8456 5.41221 16.8426 5.47799 16.8062 5.49482C16.7958 5.48262 16.7914 5.48696 16.7926 5.50786L16.7827 5.52413C16.7709 5.54363 16.7562 5.562 16.7418 5.58023C16.7214 5.60562 16.6898 5.64138 16.6943 5.67434C16.7012 5.72708 16.7313 5.76579 16.7998 5.77406C16.9722 5.79482 16.9765 5.66481 16.9641 5.55429C16.956 5.48444 17.0265 5.42217 17.1114 5.45204C17.3244 5.52708 17.3288 5.78823 17.2108 5.9275ZM26.8718 6.66047C26.791 6.59567 26.7442 6.51096 26.6888 6.43031C26.6375 6.35598 26.7476 6.25976 26.8142 6.34139C26.8766 6.41839 26.9495 6.49174 26.9844 6.58038C27.0061 6.63508 26.9369 6.71264 26.8718 6.66047ZM27.4879 6.33213C27.3794 6.2888 27.3063 6.21713 27.2287 6.14167C27.1611 6.07617 27.1005 6.00829 27.0532 5.93129C27.0088 5.85878 27.1062 5.74854 27.2025 5.7944C27.3789 5.87841 27.5712 6.02582 27.6518 6.18206C27.6951 6.26649 27.5987 6.3766 27.4879 6.33213Z" fill="#FAEECC"/>
<path d="M7.21143 3.66001C7.16044 3.70938 7.04717 3.69731 7.01267 3.63869C6.81576 3.3032 6.38053 3.20502 6.3839 3.68146C6.38474 3.80166 6.18766 3.81527 6.14121 3.72298C6.13078 3.71863 6.12017 3.71527 6.11024 3.70811C5.96264 3.60012 5.83204 3.47192 5.67721 3.37122C5.05719 3.24429 4.8039 3.37277 4.91767 3.75678C4.94207 3.85398 4.9929 3.93925 5.06981 4.01246C5.12737 4.07824 5.04978 4.17278 4.96058 4.17123C4.4466 4.1624 3.42232 4.53042 3.67258 5.12285C3.91712 5.70182 4.58393 5.22398 4.92541 5.05539C5.06207 4.98807 5.21859 4.99326 5.34161 5.06928C5.9241 5.42903 6.67405 5.18429 6.76493 4.57011C6.77116 4.52678 6.79825 4.47642 6.85783 4.46829C7.24139 4.4164 7.58741 4.23056 7.64632 3.88581C7.69816 3.58273 7.51286 3.36898 7.21143 3.66001Z" fill="#FAEDCA"/>
<path d="M15.7421 2.02677C15.6948 2.06492 15.6094 2.07025 15.563 2.02677C15.4209 1.89353 15.255 1.71007 15.0571 1.63532C14.256 1.33279 14.6183 2.09016 14.7242 2.2112C14.7726 2.2666 14.7412 2.3206 14.6858 2.34683C14.6419 2.38834 14.5621 2.40854 14.4966 2.36296C14.2523 2.19297 13.8998 2.07656 13.5831 2.17838C13.3492 2.21962 13.2529 2.34052 13.2936 2.54108C13.4754 2.75553 13.7856 2.69508 14.0336 2.61892C14.1018 2.59802 14.1676 2.64206 14.1893 2.69255C14.4399 3.27951 15.2515 2.89788 15.5916 2.59802C15.6315 2.56268 15.6954 2.55973 15.7449 2.58147C16.6812 2.99466 16.4146 1.48272 15.7421 2.02677Z" fill="#FAEDCA"/>
<path d="M30.153 31.3446C30.1479 31.3587 30.1424 31.3726 30.1375 31.3867C30.2343 31.3963 30.3199 31.475 30.3092 31.576C30.257 32.0681 29.9759 32.5454 29.7484 33.009C29.8085 33.0276 29.8682 33.0461 29.9281 33.0635C29.9983 32.8776 30.0779 32.6938 30.143 32.5062C30.2637 32.1627 30.3539 31.8133 30.4593 31.4669C30.3534 31.4313 30.2508 31.391 30.153 31.3446Z" fill="#97B3B7"/>
<path d="M30.788 14.2925C30.8807 13.0047 30.9399 11.7155 30.9127 10.4253C30.8911 9.38323 30.6974 8.29949 30.8541 7.25894C30.7568 7.28629 30.6572 7.31139 30.553 7.33215C30.516 7.33945 30.484 7.33762 30.4564 7.33005C30.5416 7.53398 30.539 7.76203 30.4009 7.97634C30.0006 8.59738 29.3542 8.82375 28.6381 8.8361C28.0039 8.98561 27.3253 9.08912 26.6407 9.15994C27.0155 10.6515 27.2531 12.4302 26.9314 13.9328C26.9145 14.0108 26.7853 14.0119 26.7765 13.9297C26.692 13.1255 26.7686 12.3089 26.7316 11.5011C26.6959 10.7217 26.6062 9.94719 26.5392 9.1699C25.8586 9.23722 25.1767 9.27635 24.5356 9.29922C24.5004 9.30048 24.4812 9.25055 24.5179 9.24101C25.3751 9.01744 26.3208 8.79542 27.2604 8.65166C26.4278 8.43455 25.5129 8.00243 24.6334 8.17788C23.8097 8.34226 22.9994 8.55461 22.1478 8.59486C20.9291 8.65236 19.4093 8.6288 18.3432 8.07059C16.3921 8.9699 13.8985 9.12334 11.8813 8.27536C11.5161 8.60594 11.0711 8.83974 10.6498 8.79612C10.1856 8.74816 9.78677 8.50033 9.50521 8.17101C9.14521 9.18673 8.91481 10.1957 8.69972 11.2434C8.5777 11.8374 8.26651 12.2036 7.52162 12.2995C6.91624 12.3775 6.52764 12.1868 6.28781 11.867C6.22638 11.9322 6.15485 11.983 6.07642 12.0178C5.99564 13.0824 6.42245 14.7387 5.04878 15.2889C4.81669 15.3822 4.47976 15.384 4.16554 15.3277C4.04504 16.0102 3.74799 16.692 3.50984 17.3443C3.42165 17.5861 3.30637 17.8675 3.11905 18.0927C3.40129 19.2652 3.27187 20.5661 3.34676 21.7375C3.43596 23.1304 3.56185 24.5221 3.7426 25.9088C3.93547 27.3876 4.16756 28.8642 4.45805 30.3321C4.7285 31.698 5.10853 33.0779 5.25461 34.4567C5.26303 34.5364 5.19958 34.5939 5.12754 34.6092C5.07806 35.134 5.05585 35.6706 5.15969 36.1848C5.27918 36.7766 5.57236 37.2901 5.76338 37.8594C5.77769 37.9023 5.76961 37.9496 5.74891 37.991C7.46826 38.3842 9.13343 38.8994 10.9068 39.1322C12.8404 39.3865 14.7977 39.4654 16.7531 39.3931C18.8763 39.3145 20.9868 39.1107 23.0902 38.8629C24.0368 38.7516 24.991 38.6572 25.9306 38.5123C26.6409 38.4029 27.32 38.1206 28.0157 37.9933C28.1404 37.4597 28.3858 36.9639 28.3452 36.3957C28.3208 36.0498 28.2039 35.7104 28.1384 35.37C28.0923 35.4059 28.0352 35.4104 27.9836 35.3953C27.1887 35.7647 26.0973 35.9008 25.2512 36.0193C24.1367 36.1754 22.9329 36.3059 21.8032 36.2219C21.765 36.219 21.7676 36.1678 21.8029 36.1618C23.0212 35.9581 24.2279 35.8414 25.4254 35.5406C26.2405 35.3359 27.1155 34.9554 27.9654 34.8535C28.178 34.2431 28.4676 33.6591 28.6862 33.0498C28.6856 32.9864 28.7066 32.9237 28.7453 32.8722C28.814 32.6638 28.8754 32.4526 28.9183 32.2348C29.1322 31.1485 29.2276 30.0513 29.3382 28.9552C29.5853 26.5103 29.832 24.0654 30.0787 21.6208C30.3253 19.1795 30.6121 16.7383 30.788 14.2925ZM11.0874 9.3549C13.1874 9.34648 15.2877 9.48968 17.3889 9.50413C19.409 9.51801 21.3971 9.47004 23.4139 9.40034C23.5172 9.39669 23.5404 9.53344 23.4366 9.5476C19.4741 10.0947 15.0074 10.2271 11.0877 9.4117C11.0566 9.40539 11.0495 9.35518 11.0874 9.3549ZM6.09544 18.4871C6.23934 18.2864 6.46233 18.1282 6.74104 18.0223C6.92381 17.9487 7.1288 17.9017 7.36055 17.8892C7.38311 17.8882 7.40111 17.8954 7.41458 17.9063C8.02669 17.9442 8.56743 18.3675 8.89461 18.7658C9.52961 19.5394 9.43468 20.6866 9.46986 21.574C9.51109 22.6158 9.53129 23.6578 9.53163 24.7001C9.53264 27.012 9.46818 29.3233 9.41483 31.6346C9.39715 32.3954 9.50318 33.3709 8.63341 33.8462C8.25002 34.0557 7.82405 34.0236 7.50731 33.8107C5.99816 33.5229 5.97847 31.4051 5.84955 30.4411C5.54577 28.1684 5.33136 25.9423 5.55553 23.6564C5.56024 23.6078 5.64692 23.6102 5.64843 23.6584C5.7139 25.7166 5.81337 27.7808 6.1466 29.8226C6.25129 30.4647 6.27956 31.1189 6.4179 31.7565C6.50542 32.1599 6.61111 32.6072 6.89335 32.9532C7.06468 33.1637 7.27775 33.3097 7.48947 33.4717C8.64334 34.1791 8.89192 32.4288 8.90471 31.8396C8.91834 31.199 8.93231 30.5588 8.94594 29.9185C8.97624 28.5276 9.01259 27.137 9.02437 25.7459C9.03665 24.2799 9.03043 22.813 8.96159 21.348C8.92878 20.6511 8.98448 19.8112 8.59857 19.1714C8.3542 18.7661 7.87168 18.2568 7.26075 18.2466C7.15136 18.2445 7.04566 18.2529 6.94519 18.2692C6.24775 18.7846 6.13751 19.6236 6.02071 20.3969C5.90139 21.1874 5.81539 21.9775 5.724 22.7702C5.70902 22.9002 5.49444 22.8898 5.47744 22.7656C5.34297 21.7866 5.1644 19.5603 6.09544 18.4871ZM7.30804 15.6724C7.35534 15.6531 7.41087 15.6496 7.45699 15.6726C7.54838 15.7184 7.60644 15.7921 7.59298 15.8846C7.58456 15.9426 7.54787 16.0084 7.48745 16.0408C7.33531 16.1224 7.14698 16.0571 7.12308 15.9007C7.10827 15.8045 7.18855 15.6872 7.30804 15.6724ZM5.77601 33.5479C5.39935 32.0842 5.27498 30.5359 5.09304 29.0471C4.92087 27.637 4.79532 26.2216 4.6972 24.8068C4.50079 21.9761 4.34815 19.1131 4.60245 16.2815C4.60548 16.2474 4.66472 16.2496 4.66674 16.2829C4.83437 19.206 4.82477 22.1336 5.04037 25.0556C5.14488 26.4716 5.29231 27.8836 5.43267 29.2968C5.5727 30.7076 5.87278 32.1166 5.96349 33.5281C5.97056 33.6404 5.80411 33.657 5.77601 33.5479ZM16.0551 36.6643C12.5715 36.8006 9.30224 35.9396 6.16848 34.7477C6.14324 34.7382 6.15653 34.7026 6.18464 34.7106C9.36316 35.6273 12.7354 35.9573 16.0536 36.3266C16.2591 36.3497 16.2734 36.6559 16.0551 36.6643ZM11.0926 30.1923C11.1621 31.1241 11.3218 32.0685 11.2801 33.0025C11.2749 33.1222 11.0546 33.1494 11.0177 33.0305C10.6845 31.9537 10.6508 30.794 10.5854 29.6874C10.5244 28.6514 10.4879 27.6153 10.5022 26.5781C10.5328 24.3882 10.5818 22.0984 11.1569 19.9533C11.1761 19.8818 11.2769 19.9027 11.2756 19.9706C11.2313 22.2709 10.9257 24.5573 10.9591 26.8631C10.9755 27.9735 11.0096 29.0833 11.0926 30.1923ZM14.8388 31.7208C14.9107 30.06 14.9671 28.3988 15.0391 26.7384C15.117 24.9389 15.1949 23.1389 15.273 21.3392C15.3084 20.5267 15.4728 19.2523 14.5209 18.7115C13.4628 18.1104 12.2026 18.64 11.5268 19.4063C11.4566 19.486 11.3427 19.3857 11.3962 19.3118C11.9355 18.5672 12.6134 18.0264 13.7132 18.0093C14.6022 17.9952 15.3881 18.6276 15.6248 19.3101C15.9859 20.3501 15.798 21.4821 15.7518 22.5484C15.6944 23.8745 15.6369 25.2008 15.5797 26.5269C15.5187 27.9279 15.4425 29.3286 15.3817 30.7296C15.3548 31.3478 15.3282 31.9658 15.3013 32.584C15.2816 33.0341 15.3356 33.5711 15.135 34.0005C14.8309 34.6522 14.0597 35.1052 13.1851 34.9493C12.1987 34.7731 11.6455 34.1278 11.2079 33.4115C11.1569 33.3281 11.303 33.2428 11.369 33.3263C11.6955 33.7411 12.059 34.1146 12.6135 34.3261C13.156 34.5333 14.1012 34.679 14.4882 34.1376C14.9655 33.4699 14.8063 32.4666 14.8388 31.7208ZM13.0324 16.6739C13.3322 16.6815 13.2814 17.102 12.9707 17.0941C12.6711 17.0863 12.7221 16.6656 13.0324 16.6739ZM14.1456 16.2986C14.172 16.1237 14.4164 15.9595 14.6264 16.0609C14.6343 16.0645 14.6419 16.0686 14.65 16.0721C14.905 16.1954 14.9341 16.5042 14.6532 16.6224C14.6454 16.6257 14.6374 16.6292 14.6296 16.6325C14.3706 16.7412 14.1139 16.5069 14.1456 16.2986ZM10.7691 18.256C10.7538 18.3588 10.6808 18.4349 10.5732 18.4822C10.5657 18.4857 10.5578 18.4892 10.5498 18.4927C10.2977 18.6041 10.0465 18.3659 10.0766 18.1658C10.102 17.9975 10.3428 17.8302 10.5468 17.9328C10.5544 17.9369 10.5623 17.941 10.57 17.9446C10.7048 18.0128 10.7898 18.1192 10.7691 18.256ZM10.1166 16.5607C10.1146 16.5618 10.0488 16.5735 10.0305 16.5753C9.75008 16.6101 9.63194 16.2241 9.89836 16.145C10.0695 16.0941 10.2637 16.1604 10.3139 16.3139C10.3492 16.4214 10.2839 16.584 10.1166 16.5607ZM20.5563 36.4448C19.4029 36.5712 18.1612 36.6782 16.9988 36.5982C16.8853 36.5904 16.897 36.4433 16.9976 36.4245C18.1234 36.2135 19.3629 36.1783 20.5144 36.1702C20.7061 36.1686 20.7557 36.4229 20.5563 36.4448ZM16.9545 34.9644C16.9675 34.9249 16.988 34.9037 17.0306 34.8838C17.0609 34.8699 17.0945 34.8811 17.1198 34.8958C17.1627 34.9211 17.1718 34.9554 17.1821 34.9961C17.198 35.0602 17.1282 35.1282 17.0493 35.1167C16.9626 35.1044 16.9341 35.0266 16.9545 34.9644ZM17.3066 33.8114C16.8534 32.7429 17.1067 31.3397 17.092 30.2265C17.0747 28.9025 17.0572 27.5785 17.0414 26.2544C17.0259 24.9545 16.9697 23.6501 17.0032 22.3503C17.0279 21.3815 17.1176 20.3307 17.713 19.4707C18.1728 18.8072 18.9903 18.0568 20.0134 18.1303C20.8273 18.1888 21.3192 18.549 21.5062 19.2048C21.517 19.2421 21.4552 19.2546 21.4377 19.2212C20.8959 18.1968 19.2067 18.5206 18.5502 19.2209C17.9445 19.8671 17.6567 20.6466 17.5737 21.4578C17.4034 23.1191 17.5404 24.8173 17.5629 26.4833C17.586 28.1855 17.606 29.8876 17.6269 31.5902C17.6356 32.2779 17.4946 33.1853 17.8655 33.8278C18.486 34.9031 20.0329 34.7042 20.5954 33.717C20.6667 33.5916 20.8826 33.6493 20.8555 33.7864C20.5124 35.5188 17.9285 35.277 17.3066 33.8114ZM21.4475 16.5363C21.6296 16.5408 21.6006 16.8011 21.4104 16.7963C21.2282 16.7919 21.2571 16.5314 21.4475 16.5363ZM21.6694 26.1238C21.5722 28.3482 21.6827 30.6734 21.2352 32.8718C21.2091 32.9999 20.9957 33.0004 20.9811 32.8671C20.745 30.7177 21.0472 28.4879 21.1487 26.3356C21.2539 24.1076 21.2256 21.8027 21.675 19.6003C21.6824 19.5637 21.7421 19.5638 21.7464 19.6016C21.983 21.7529 21.7635 23.9692 21.6694 26.1238ZM22.6139 34.8117C22.6028 34.8163 22.5921 34.8207 22.5857 34.823C22.4206 34.8821 22.2585 34.7469 22.2814 34.6087C22.2822 34.6048 22.2831 34.6005 22.2837 34.5964C22.2943 34.5331 22.3415 34.4594 22.4192 34.4371C22.5202 34.4082 22.5983 34.415 22.6838 34.4697C22.8279 34.5623 22.7742 34.7727 22.6139 34.8117ZM22.3802 17.3567C22.4066 17.1833 22.573 17.0941 22.7695 17.099C22.967 17.1041 23.0877 17.3062 23.0662 17.4488C23.0397 17.622 22.8733 17.7112 22.6769 17.7063C22.4791 17.7013 22.3586 17.4992 22.3802 17.3567ZM23.1464 32.7811C22.8337 31.4031 22.9369 29.898 22.9206 28.4987C22.9051 27.1448 22.9125 25.7904 22.9573 24.4367C22.9972 23.2263 23.0103 21.9815 23.3343 20.7953C23.5817 19.8922 23.9045 18.8237 24.7995 18.21C24.8661 18.1642 24.938 18.237 24.9146 18.2931C24.453 19.4038 23.8493 20.3682 23.6564 21.5587C23.4681 22.7233 23.4329 23.8994 23.4026 25.0732C23.3664 26.4849 23.3543 27.8977 23.3819 29.3099C23.4043 30.4572 23.5677 31.6439 23.4376 32.7866C23.4196 32.9449 23.1784 32.9209 23.1464 32.7811ZM26.5175 32.7968C25.9317 33.8278 24.3094 34.3166 23.3799 33.3191C23.2875 33.2201 23.4428 33.0492 23.5652 33.149C24.3062 33.7512 25.4737 33.4309 25.9559 32.7418C26.4005 32.1058 26.4594 31.3929 26.5042 30.6745C26.5995 29.1533 26.6944 27.6319 26.789 26.1108C26.8842 24.5893 26.9792 23.0682 27.0741 21.5469C27.1453 20.4086 27.4386 17.979 25.228 18.2721C25.1491 18.2826 25.1001 18.1755 25.1671 18.1391C25.674 17.8651 26.3521 17.8999 26.8097 18.2529C27.4967 18.7835 27.6407 19.4645 27.6438 20.2213C27.6529 22.3908 27.3863 24.5834 27.253 26.75C27.1825 27.8911 27.1121 29.0321 27.0418 30.1732C26.9869 31.067 26.9867 31.9731 26.5175 32.7968ZM29.008 25.0517C28.8185 26.6378 28.5974 28.2216 28.3311 29.8001C28.0812 31.283 27.9009 32.8211 27.4065 34.2637C27.3617 34.3948 27.1618 34.3138 27.1717 34.2009C27.3082 32.6175 27.734 31.0404 27.9886 29.4669C28.2444 27.8869 28.4688 26.3037 28.6484 24.7165C28.9962 21.6379 29.1992 18.5541 29.3991 15.4672C29.404 15.3897 29.5451 15.3942 29.5464 15.4702C29.6095 18.6666 29.3885 21.872 29.008 25.0517ZM29.6541 14.4441C27.8981 14.9899 25.972 15.1823 24.1187 15.3505C22.153 15.5289 20.1775 15.6338 18.1996 15.6318C15.2527 15.6289 12.1606 15.5352 9.23424 15.0059C9.18055 15.9554 9.13865 16.9055 9.07116 17.8492C9.0651 17.9324 8.93517 17.9194 8.92019 17.8461C8.71318 16.8442 8.67498 15.8778 8.76552 14.9164C8.17125 14.7984 7.58406 14.6635 7.0078 14.5045C6.94283 14.4864 6.97111 14.3977 7.03708 14.4017C7.6295 14.4381 8.21973 14.4817 8.80945 14.5283C8.91514 13.7113 9.10936 12.895 9.36972 12.0607C9.3884 12.0008 9.48383 12.0374 9.4771 12.09C9.37511 12.9106 9.31199 13.737 9.261 14.5645C12.319 14.8158 15.3521 15.1432 18.4497 15.1083C20.3163 15.0872 22.1838 15.0053 24.0394 14.8305C25.8892 14.6562 27.7304 14.3244 29.5883 14.2272C29.7245 14.22 29.7898 14.4022 29.6541 14.4441ZM29.7605 13.4806C29.7357 13.5699 29.5787 13.5803 29.5732 13.477C29.5042 12.199 29.707 10.9172 29.6122 9.62993C29.6058 9.54298 29.7484 9.52586 29.7593 9.61436C29.9115 10.8424 30.0967 12.2664 29.7605 13.4806Z" fill="#F9DA55"/>
<path d="M29.7216 14.3862C29.7115 14.4113 29.6905 14.4329 29.6543 14.4442C28.8124 14.7057 27.9314 14.8857 27.0381 15.0212C27.7932 15.4243 28.9649 15.407 29.3609 16.0574C29.3737 15.8607 29.3867 15.6639 29.3993 15.4672C29.4042 15.3898 29.5452 15.3942 29.5466 15.4703C29.6097 18.6665 29.3887 21.872 29.0082 25.0516C28.8187 26.6377 28.5975 28.2214 28.3313 29.8C28.2535 30.2609 28.1822 30.7271 28.1063 31.194C28.1145 31.2122 28.1179 31.2326 28.1096 31.2565C28.1029 31.2756 28.0943 31.2931 28.0871 31.3119C27.9236 32.3084 27.7345 33.3071 27.4066 34.2636C27.3619 34.3947 27.1619 34.3137 27.1718 34.2008C27.2233 33.6033 27.3161 33.0069 27.4253 32.4113C26.6637 33.2832 25.4892 33.8542 24.1958 34.1706C23.6943 34.2933 23.1833 34.3835 22.6696 34.4623C22.6745 34.4651 22.6792 34.4665 22.6841 34.4696C22.828 34.562 22.7745 34.7724 22.6143 34.8116C22.6032 34.8162 22.5924 34.8205 22.586 34.8229C22.4209 34.882 22.2588 34.7468 22.2817 34.6086C22.2826 34.6047 22.2834 34.6003 22.2841 34.5963C22.2884 34.5693 22.3011 34.5409 22.3182 34.5151C21.8063 34.5894 21.2928 34.657 20.783 34.7368C20.5242 34.7775 20.2648 34.8173 20.0053 34.8553C19.7059 34.9835 19.3599 35.0233 19.0145 34.9848C18.3977 35.0532 17.7777 35.0944 17.1526 35.0832C17.1273 35.1076 17.09 35.1225 17.0498 35.1166C17.018 35.1123 16.9966 35.0971 16.9797 35.0787C16.0329 35.052 15.0934 34.966 14.1542 34.8714C13.8627 34.9755 13.5325 35.0107 13.1856 34.9489C12.9151 34.9005 12.678 34.816 12.4663 34.7054C11.3775 34.6071 10.2888 34.5243 9.21724 34.3219C8.15627 34.1212 6.88223 33.8737 5.94951 33.3522C5.95389 33.4107 5.96012 33.4693 5.96382 33.528C5.97106 33.6403 5.80461 33.6568 5.7765 33.5479C5.74604 33.4296 5.71978 33.31 5.69252 33.1908C5.38621 32.9828 5.14285 32.7387 4.92255 32.4793C5.0619 33.1375 5.18577 33.7972 5.25561 34.4567C5.26403 34.5364 5.20058 34.5939 5.12855 34.6092C5.07907 35.134 5.05685 35.6706 5.16069 36.1848C5.28018 36.7767 5.57336 37.2901 5.76438 37.8594C5.77869 37.9023 5.77061 37.9496 5.74991 37.991C7.46927 38.3842 9.13443 38.8994 10.9078 39.1322C12.8414 39.3865 14.7987 39.4655 16.7541 39.3931C18.8773 39.3146 20.9878 39.1108 23.0912 38.8629C24.0378 38.7516 24.992 38.6572 25.9316 38.5123C26.6419 38.4029 27.321 38.1206 28.0167 37.9934C28.1414 37.4597 28.3868 36.9639 28.3462 36.3957C28.3218 36.0499 28.2049 35.7104 28.1394 35.3701C28.0933 35.406 28.0362 35.4104 27.9846 35.3953C27.1897 35.7647 26.0983 35.9008 25.2522 36.0193C24.1377 36.1754 22.9339 36.306 21.8042 36.2219C21.766 36.219 21.7686 36.1678 21.8039 36.1618C23.0222 35.9581 24.2289 35.8414 25.4264 35.5406C26.2415 35.336 27.1165 34.9555 27.9664 34.8535C28.179 34.2431 28.4686 33.6591 28.6872 33.0498C28.6866 32.9864 28.7076 32.9237 28.7463 32.8723C28.815 32.6638 28.8764 32.4526 28.9193 32.2348C29.1332 31.1485 29.2286 30.0513 29.3392 28.9553C29.5863 26.5103 29.833 24.0654 30.0797 21.6208C30.326 19.1796 30.6128 16.7382 30.7886 14.2925C30.8014 14.1147 30.8118 13.9367 30.8231 13.7589C30.5634 14.0656 30.1732 14.2565 29.7216 14.3862ZM16.0551 36.6643C12.5715 36.8006 9.30223 35.9396 6.16847 34.7477C6.14323 34.7382 6.15652 34.7026 6.18463 34.7106C9.36315 35.6273 12.7354 35.9573 16.0536 36.3266C16.2591 36.3497 16.2734 36.6559 16.0551 36.6643ZM20.5563 36.4448C19.4029 36.5712 18.1612 36.6782 16.9988 36.5983C16.8853 36.5904 16.8969 36.4433 16.9976 36.4245C18.1233 36.2135 19.3629 36.1783 20.5144 36.1702C20.7061 36.1687 20.7557 36.4229 20.5563 36.4448Z" fill="#DE953D"/>
<path d="M26.789 26.1106C26.8842 24.5891 26.9791 23.0681 27.0741 21.5467C27.1453 20.4084 27.4386 17.9788 25.228 18.272C25.2145 18.2738 25.2026 18.2713 25.1911 18.2672C25.0205 18.3626 24.8759 18.4992 24.7544 18.6607C24.6117 18.9781 24.4634 19.2871 24.321 19.596C24.2512 19.8473 24.2114 20.088 24.1945 20.277C24.186 20.3699 24.0645 20.3975 23.9928 20.3624C23.8459 20.7441 23.7247 21.1369 23.6564 21.5585C23.4681 22.7232 23.4329 23.8992 23.4026 25.073C23.3664 26.4848 23.3543 27.8976 23.3819 29.3098C23.4043 30.4571 23.5677 31.6438 23.4376 32.7864C23.4331 32.826 23.4145 32.854 23.3891 32.8718C23.4778 33.0404 23.6202 33.1881 23.8434 33.299C23.8679 33.3112 23.8816 33.3272 23.8912 33.3442C24.6135 33.6549 25.5395 33.3361 25.9557 32.7415C26.4004 32.1055 26.4593 31.3926 26.504 30.6742C26.5995 29.1533 26.6942 27.6318 26.789 26.1106Z" fill="#F9DA55"/>
<path d="M4.07855 27.7703C4.09521 28.0761 4.12449 28.3823 4.1595 28.6883C4.25257 29.2371 4.35018 29.7852 4.4584 30.3321C4.538 30.7336 4.62704 31.1367 4.71657 31.5402C4.75882 31.6997 4.80728 31.863 4.86366 32.0241C5.09642 32.3102 5.32716 32.5875 5.61311 32.8282C5.60755 32.8013 5.60301 32.774 5.59779 32.7471C5.56851 32.6681 5.53535 32.5886 5.50136 32.5055C5.48335 32.4614 5.50102 32.4271 5.53283 32.4046C5.33373 31.2918 5.22803 30.1533 5.09323 29.0471C4.92106 27.637 4.7955 26.2215 4.69738 24.8068C4.53969 22.5347 4.41414 20.2418 4.50064 17.961C4.4929 17.9897 4.48633 18.0189 4.47758 18.0474C4.43685 18.1791 4.19282 18.1233 4.23338 17.9914C4.49273 17.1493 4.34345 16.2071 4.60364 15.3643C4.46109 15.3664 4.31147 15.3537 4.16606 15.3276C4.04556 16.0101 3.74851 16.6918 3.51036 17.3441C3.42217 17.5859 3.30689 17.8673 3.11957 18.0925C3.40181 19.2651 3.27239 20.5659 3.34728 21.7373C3.43648 23.1302 3.56237 24.5219 3.74312 25.9086C3.82003 26.4982 3.90519 27.0873 3.99591 27.676C4.03967 27.6893 4.07585 27.7206 4.07855 27.7703Z" fill="#FFEDA1"/>
<path d="M20.746 33.6516C20.8614 33.4156 20.942 33.1671 20.9967 32.9126C20.9887 32.8996 20.9828 32.8846 20.9809 32.8671C20.7448 30.7177 21.0471 28.4879 21.1485 26.3356C21.2462 24.2682 21.2293 22.1345 21.5855 20.0781C21.4599 19.5966 21.2595 19.1428 20.9148 18.7239C20.1801 18.3666 19.0576 18.6798 18.55 19.2212C17.9443 19.8673 17.6565 20.6469 17.5735 21.4581C17.4032 23.1194 17.5402 24.8176 17.5627 26.4835C17.5858 28.1858 17.6058 29.8879 17.6267 31.5905C17.6354 32.2781 17.4944 33.1856 17.8653 33.8281C18.4859 34.9034 20.0327 34.7045 20.5952 33.7173C20.6278 33.6599 20.6901 33.6424 20.746 33.6516Z" fill="#F9DA55"/>
<path d="M28.1389 35.37C28.0928 35.4059 28.0357 35.4104 27.9841 35.3952C27.1892 35.7647 26.0978 35.9007 25.2517 36.0192C24.1372 36.1753 22.9334 36.3059 21.8037 36.2219C21.7655 36.2189 21.7681 36.1678 21.8034 36.1617C22.6791 36.0154 23.5487 35.9131 24.4134 35.7557C24.2916 35.7697 24.1712 35.7843 24.0534 35.801C22.943 35.9589 21.8128 36.1429 20.6777 36.2863C20.6963 36.356 20.6623 36.4331 20.5563 36.4446C19.4029 36.571 18.1612 36.678 16.9988 36.5981C16.9439 36.5943 16.9188 36.5578 16.9183 36.5192C16.682 36.5129 16.4459 36.5016 16.2105 36.4871C16.2192 36.5721 16.1706 36.6595 16.0549 36.6641C12.5907 36.7996 9.33875 35.9487 6.22099 34.767C5.88792 34.686 5.56361 34.5888 5.25478 34.4572C5.26269 34.5365 5.19958 34.5937 5.12771 34.609C5.07823 35.1338 5.05601 35.6704 5.15986 36.1846C5.27935 36.7765 5.57253 37.2899 5.76355 37.8592C5.77786 37.9021 5.76978 37.9494 5.74908 37.9908C7.46843 38.384 9.13359 38.8992 10.907 39.132C12.8406 39.3863 14.7979 39.4653 16.7532 39.3929C18.8765 39.3143 20.987 39.1106 23.0904 38.8627C24.0369 38.7514 24.9912 38.657 25.9308 38.5121C26.641 38.4027 27.3201 38.1204 28.0159 37.9932C28.1406 37.4595 28.386 36.9637 28.3454 36.3955C28.3214 36.0497 28.2044 35.7102 28.1389 35.37Z" fill="#D8EFE5"/>
<path d="M25.3101 37.7807C22.6139 38.3404 19.8072 38.5482 17.039 38.6785C14.4244 38.8015 11.6554 38.8347 9.13493 38.1511C7.98393 37.8389 6.88762 37.3518 5.96668 36.693C5.66306 36.4758 5.31956 36.2435 5.12164 35.9438C5.13208 36.0243 5.14419 36.1048 5.16035 36.1846C5.27984 36.7765 5.57302 37.2899 5.76405 37.8592C5.77835 37.9022 5.77027 37.9494 5.74957 37.9908C7.46893 38.3841 9.13409 38.8992 10.9075 39.132C12.8411 39.3863 14.7984 39.4653 16.7537 39.3929C18.877 39.3144 20.9875 39.1106 23.0909 38.8628C24.0374 38.7514 24.9917 38.657 25.9313 38.5121C26.6415 38.4027 27.3206 38.1204 28.0164 37.9932C28.1128 37.5811 28.2798 37.1912 28.3326 36.7735C27.4704 37.2828 26.35 37.5648 25.3101 37.7807Z" fill="#97B3B7"/>
<path d="M7.18195 34.9767C7.39367 35.0295 7.60573 35.0801 7.81896 35.1286C7.61852 35.0766 7.41706 35.0267 7.21359 34.9833C7.20315 34.9811 7.19238 34.9791 7.18195 34.9767Z" fill="#F9DA55"/>
<path d="M5.97357 14.2317C6.29671 14.3255 6.63617 14.386 6.97984 14.432C6.99044 14.414 7.01047 14.4003 7.03723 14.4018C7.62965 14.4383 8.21988 14.4819 8.8096 14.5285C8.9153 13.7115 9.10951 12.8952 9.36987 12.0608C9.38855 12.0009 9.48398 12.0375 9.47725 12.0901C9.37526 12.9108 9.31214 13.7371 9.26115 14.5646C12.3192 14.816 15.3523 15.1433 18.4498 15.1084C20.3165 15.0874 22.1839 15.0055 24.0396 14.8307C25.7623 14.6683 27.4775 14.3719 29.2056 14.253C29.7357 14.1325 30.2544 13.9653 30.6646 13.6701C30.7189 13.631 30.7831 13.6394 30.8287 13.6673C30.8962 12.5875 30.9359 11.507 30.913 10.4255C30.8914 9.38338 30.6977 8.29964 30.8544 7.25909C30.7571 7.28644 30.6575 7.31155 30.5533 7.33231C30.5163 7.3396 30.4843 7.33778 30.4567 7.3302C30.5419 7.53413 30.5394 7.76219 30.4012 7.97649C30.001 8.59754 29.3545 8.82391 28.6384 8.83625C28.0043 8.98576 27.3257 9.08927 26.641 9.1601C27.0158 10.6517 27.2535 12.4304 26.9317 13.9329C26.9148 14.0109 26.7856 14.012 26.7768 13.9299C26.6924 13.1256 26.7689 12.3091 26.7319 11.5012C26.6962 10.7218 26.6065 9.94734 26.5395 9.17005C25.8589 9.23738 25.177 9.27651 24.5359 9.29937C24.5007 9.30063 24.4816 9.2507 24.5182 9.24116C25.3754 9.0176 26.3211 8.79558 27.2607 8.65182C26.4281 8.4347 25.5132 8.00258 24.6337 8.17804C23.81 8.34242 22.9997 8.55476 22.1481 8.59501C20.9294 8.65252 19.4097 8.62895 18.3435 8.07074C16.3924 8.97005 13.8988 9.12349 11.8816 8.27551C11.5164 8.60609 11.0714 8.8399 10.6501 8.79628C10.186 8.74831 9.78709 8.50048 9.50552 8.17117C9.14553 9.18689 8.91513 10.1959 8.70004 11.2436C8.57802 11.8375 8.26683 12.2037 7.52193 12.2997C6.91656 12.3777 6.52795 12.1869 6.28813 11.8671C6.2267 11.9324 6.15517 11.9831 6.07674 12.0179C6.02759 12.6643 6.1651 13.5289 5.97357 14.2317ZM29.612 9.63009C29.6056 9.54313 29.7482 9.52602 29.7591 9.61452C29.9114 10.8426 30.0967 12.2666 29.7605 13.4808C29.7357 13.5701 29.5787 13.5805 29.5731 13.4771C29.5041 12.1991 29.7069 10.9172 29.612 9.63009ZM11.0874 9.35491C13.1874 9.34649 15.2876 9.48969 17.3889 9.50414C19.409 9.51802 21.3971 9.47006 23.4139 9.40035C23.5172 9.3967 23.5404 9.53345 23.4366 9.54762C19.4741 10.0947 15.0074 10.2271 11.0877 9.41171C11.0566 9.4054 11.0495 9.35519 11.0874 9.35491Z" fill="white"/>
<path d="M29.8961 12.7935C29.866 13.0279 29.8221 13.258 29.7605 13.4806C29.7357 13.57 29.5787 13.5803 29.5731 13.477C29.5624 13.2812 29.5599 13.0851 29.56 12.8892C28.9821 13.0423 28.403 13.144 27.9462 13.2232C27.6395 13.2764 27.3322 13.3266 27.0242 13.375C27.0008 13.5643 26.9706 13.7507 26.9315 13.9331C26.9147 14.0111 26.7854 14.0122 26.7767 13.93C26.759 13.7597 26.7492 13.5888 26.7432 13.4176C25.8244 13.5572 24.9015 13.6766 23.9741 13.7737C22.377 13.9411 20.737 14.1732 19.1242 14.1554C17.5887 14.1384 16.0746 13.9398 14.5473 13.831C13.228 13.737 11.8023 13.9603 10.5148 13.6587C10.2344 13.5931 10.0067 13.5113 9.75074 13.3972C9.61071 13.3348 9.48028 13.307 9.35288 13.2949C9.3167 13.7175 9.28724 14.1409 9.26115 14.5648C12.3192 14.8161 15.3523 15.1435 18.4498 15.1085C20.3165 15.0875 22.1839 15.0056 24.0396 14.8308C25.7623 14.6684 27.4775 14.3721 29.2056 14.2531C29.7357 14.1327 30.2544 13.9655 30.6646 13.6702C30.7189 13.6311 30.7831 13.6395 30.8287 13.6674C30.8549 13.246 30.8751 12.8241 30.8911 12.4023C30.588 12.5584 30.2469 12.6868 29.8961 12.7935Z" fill="#FBFCDE"/>
<path d="M8.57163 13.3126C8.26986 13.3078 7.88462 13.2676 7.7207 13.0273C7.60339 12.8554 7.8205 12.616 7.90936 12.4757C7.97887 12.3657 8.03171 12.2547 8.07631 12.1432C7.92518 12.2182 7.74308 12.2711 7.52193 12.2995C6.91656 12.3775 6.52795 12.1868 6.28813 11.867C6.2267 11.9322 6.15517 11.983 6.07674 12.0178C6.02759 12.6643 6.1651 13.5289 5.97357 14.2317C6.29671 14.3255 6.63617 14.386 6.97984 14.432C6.99044 14.414 7.01047 14.4003 7.03723 14.4018C7.62965 14.4383 8.21988 14.4819 8.8096 14.5285C8.86279 14.117 8.93869 13.7055 9.03411 13.292C8.8855 13.3003 8.73454 13.3151 8.57163 13.3126Z" fill="#FBFCDE"/>
<path d="M26.8396 10.053C27.2977 10.1542 27.7451 10.3155 28.2192 10.3176C28.7326 10.3199 29.0891 10.1287 29.5551 10.0217C29.5795 10.0161 29.6051 10.0144 29.63 10.0113C29.626 9.88423 29.6214 9.7573 29.6122 9.63009C29.6058 9.54313 29.7483 9.52602 29.7593 9.61452C29.7751 9.74229 29.7911 9.87245 29.8072 10.004C30.0907 10.0176 30.3944 10.1197 30.6698 10.0945C30.7491 10.0873 30.825 10.0757 30.8988 10.0615C30.8507 9.13261 30.7157 8.17902 30.8542 7.25909C30.757 7.28644 30.6573 7.31155 30.5531 7.33231C30.5161 7.3396 30.4841 7.33778 30.4565 7.3302C30.5417 7.53413 30.5392 7.76219 30.401 7.97649C30.0008 8.59754 29.3543 8.82391 28.6382 8.83625C28.0041 8.98576 27.3255 9.08927 26.6408 9.1601C26.7134 9.44832 26.7804 9.74748 26.8396 10.053Z" fill="#FAEECC"/>
<path d="M9.44729 9.89933C9.6166 9.86034 9.83354 9.90074 10.0103 9.89905C10.2178 9.89709 10.4773 10.0731 10.5958 10.2019C10.9043 10.5371 11.1446 10.5364 11.6335 10.451C11.8087 10.4204 12.0432 10.4145 12.2197 10.4592C12.6007 10.5559 12.852 10.7999 13.2076 10.9266C13.8913 11.1696 14.308 10.6024 14.961 10.649C15.5648 10.6919 16.1546 11.0846 16.7647 10.9285C17.2579 10.8021 17.6777 10.5438 18.1917 10.469C18.6054 10.4089 18.8588 10.5777 19.2048 10.7244C19.9455 11.0383 20.7557 10.4679 21.4735 10.3425C21.9629 10.2571 22.4458 10.2654 22.9361 10.3446C23.7412 10.4748 24.5154 10.6333 25.2514 10.2272C25.6218 10.0228 25.9077 9.94744 26.3542 9.97816C26.4426 9.98419 26.5301 9.99597 26.6173 10.0103C26.5909 9.73033 26.5641 9.45052 26.5399 9.17029C25.8593 9.23762 25.1773 9.27675 24.5363 9.29961C24.5011 9.30087 24.4819 9.25094 24.5186 9.2414C25.3757 9.01784 26.3214 8.79582 27.261 8.65206C26.4285 8.43494 25.5136 8.00282 24.634 8.17828C23.8104 8.34266 23 8.555 22.1484 8.59525C20.9298 8.65276 19.41 8.62919 18.3438 8.07098C16.3927 8.97029 13.8992 9.12373 11.8819 8.27576C11.5167 8.60633 11.0717 8.84014 10.6505 8.79652C10.1863 8.74855 9.78743 8.50072 9.50586 8.17141C9.33184 8.66244 9.18828 9.15206 9.06206 9.64505C9.0831 9.82149 9.17162 9.96287 9.44729 9.89933ZM11.0874 9.35487C13.1874 9.34645 15.2877 9.48965 17.3889 9.5041C19.409 9.51798 21.3971 9.47002 23.4139 9.40031C23.5172 9.39666 23.5404 9.53341 23.4366 9.54758C19.4741 10.0947 15.0074 10.2271 11.0877 9.41167C11.0566 9.40536 11.0495 9.35515 11.0874 9.35487Z" fill="#FAEECC"/>
<path d="M32.0573 12.6625C32.0531 12.7288 32.0483 12.795 32.0423 12.8614C32.0573 12.7956 32.0719 12.7315 32.0864 12.6671C32.0766 12.6656 32.067 12.664 32.0573 12.6625Z" fill="#F9DA55"/>
<path d="M35.2506 13.0494C34.2324 12.9026 33.2113 12.828 32.1991 12.6825C32.2395 13.437 32.2967 14.2879 32.0554 15.0084C32.019 15.1172 31.846 15.0715 31.8314 14.9772C31.8008 14.7788 31.7932 14.5727 31.8016 14.3633C31.7355 14.6807 31.6659 14.9971 31.6 15.312C32.6325 14.5538 34.5335 14.8616 35.4458 15.8102C36.2988 16.6972 36.5961 17.8056 36.6423 18.9235C36.6963 20.2261 36.6419 21.5342 36.483 22.8307C36.3011 24.3134 36.0207 25.787 35.6454 27.2445C35.3746 28.2978 35.108 29.4662 34.2956 30.339C33.6366 31.0475 32.6781 31.6771 31.5446 31.6517C31.2482 31.645 30.9337 31.6019 30.6351 31.52C30.5925 32.0463 30.4677 32.6393 30.2293 33.145C32.9721 33.8407 35.9679 33.2512 37.1325 30.7613C37.6359 29.6852 37.8468 28.552 38.0499 27.4155C38.2844 26.1041 38.5186 24.7928 38.7532 23.4815C39.2149 20.8993 39.9627 17.8854 38.6225 15.3973C37.9637 14.1754 36.8812 13.2848 35.2506 13.0494ZM37.1936 22.0083C37.1689 22.0715 37.1448 22.1316 37.1083 22.1909C37.0585 22.2728 36.9321 22.2344 36.9408 22.1456C36.9489 22.0703 36.9696 22.0002 36.9911 21.9268C37.0273 21.8025 37.2394 21.8909 37.1936 22.0083ZM37.1389 21.0003C37.0983 21.1027 36.9162 21.0721 36.911 20.9687C36.8457 19.6531 37.2725 18.3454 36.7345 17.0498C36.2735 15.9389 35.4285 14.9747 33.9934 14.6922C33.8466 14.6632 33.8638 14.4602 34.024 14.4755C37.6256 14.8186 38.0381 18.7268 37.1389 21.0003Z" fill="#D8EFE5"/>
<path d="M5.12786 34.6092C5.12079 34.6843 5.11456 34.7599 5.10884 34.8355C5.32477 35.1678 5.91062 35.5508 6.04678 35.6245C6.50876 35.8745 7.00272 36.0717 7.5258 36.2174C8.43142 36.47 9.37273 36.6623 10.3044 36.837C12.6383 37.2745 15.0404 37.3531 17.4251 37.3336C19.7693 37.3144 22.1514 37.2543 24.4334 36.7622C25.3114 36.5729 26.1829 36.3358 27.0263 36.0567C27.4051 35.9312 27.8184 35.7907 28.1911 35.6051C28.1724 35.5266 28.154 35.4483 28.1391 35.3699C28.0929 35.4058 28.0359 35.4103 27.9842 35.3951C27.1893 35.7646 26.0979 35.9006 25.2519 36.0191C24.1374 36.1752 22.9335 36.3058 21.8039 36.2218C21.7657 36.2189 21.7682 36.1677 21.8036 36.1616C22.6792 36.0153 23.5488 35.913 24.4136 35.7556C24.2917 35.7696 24.1714 35.7842 24.0536 35.8009C22.9431 35.9588 21.813 36.1428 20.6778 36.2862C20.6965 36.3559 20.6625 36.433 20.5565 36.4445C19.4031 36.5709 18.1614 36.6779 16.9989 36.598C16.9441 36.5942 16.919 36.5577 16.9185 36.5191C16.6822 36.5128 16.4461 36.5015 16.2106 36.487C16.2194 36.572 16.1707 36.6594 16.0551 36.664C12.5908 36.7995 9.3389 35.9486 6.22114 34.7669C5.88807 34.6859 5.56376 34.5887 5.25492 34.4571C5.26284 34.5366 5.19972 34.5937 5.12786 34.6092Z" fill="white"/>
<path d="M38.4655 20.3362C38.432 20.4689 38.417 20.6025 38.4209 20.7376C38.7995 20.9492 39.0082 20.9039 39.0471 20.602C39.158 20.2135 39.152 19.8157 39.1033 19.4202C38.9921 18.5146 38.8865 17.5906 38.6592 16.7002C38.4469 15.8692 37.9698 15.1848 37.5117 14.4523C37.0879 13.9792 36.4979 13.5326 35.8501 13.4336C35.7208 13.4138 34.8569 13.3649 34.9855 13.6837C35.0409 13.8208 35.1516 13.9323 35.276 14.0313C35.5042 14.2131 35.7531 14.3737 36.0137 14.522C36.5357 14.8193 37.0469 15.0875 37.4541 15.5007C37.9308 15.9842 38.2781 16.6816 38.4316 17.2903C38.6434 18.1307 38.6765 19.0642 38.5469 19.917C38.5252 20.0579 38.4926 20.1959 38.4655 20.3362Z" fill="white"/>
<path d="M37.5492 14.0515C37.6135 14.1588 37.6807 14.2649 37.7487 14.3705C37.8778 14.5149 37.9952 14.6654 38.0969 14.8201C38.1186 14.853 38.1162 14.8844 38.1019 14.9109C38.28 15.1834 38.4523 15.4584 38.5976 15.745C38.8625 16.2681 38.969 16.8568 39.0634 17.4155C39.1585 17.9781 39.2359 18.5432 39.315 19.1074C39.3305 19.217 39.3467 19.3292 39.3607 19.4425C39.4426 18.0423 39.2984 16.6528 38.622 15.3976C38.3426 14.8793 37.9861 14.4214 37.5449 14.0471C37.5464 14.0489 37.5481 14.0496 37.5492 14.0515Z" fill="#D7EDF4"/>
<path d="M38.5289 21.8573C38.2047 21.6921 38.151 22.3085 38.2052 22.4629C38.2268 22.5241 38.2843 22.6685 38.3369 22.6788C38.3392 22.6792 38.3385 22.6795 38.3397 22.6799C38.3411 22.6793 38.3402 22.6792 38.3424 22.6786C38.356 22.6751 38.3523 22.6772 38.3725 22.6649C38.3926 22.6525 38.4234 22.6228 38.4415 22.5998C38.5341 22.4824 38.7172 22.0385 38.6048 21.8708C38.5805 21.873 38.5555 21.8709 38.5289 21.8573Z" fill="white"/>
<path d="M35.4456 15.8102C36.2986 16.6972 36.5959 17.8056 36.6421 18.9236C36.6961 20.2261 36.6417 21.5343 36.4828 22.8308C36.3009 24.3134 36.0205 25.787 35.6452 27.2446C35.6136 27.3671 35.5823 27.4914 35.55 27.6165C35.9635 26.8175 36.2258 25.9517 36.4401 25.1255C36.6919 24.1549 36.8598 23.1873 36.9697 22.2141C36.9505 22.1982 36.9379 22.1751 36.9406 22.1455C36.9487 22.0702 36.9694 22.0001 36.9909 21.9267C36.9933 21.9187 36.998 21.9139 37.0015 21.9078C37.03 21.6246 37.0547 21.3409 37.0741 21.0564C37.0061 21.0772 36.9147 21.0417 36.911 20.9686C36.8457 19.653 37.2725 18.3453 36.7345 17.0496C36.2735 15.9388 35.4284 14.9746 33.9933 14.6921C33.9072 14.675 33.8789 14.5986 33.9016 14.5409C33.6076 14.4047 33.3388 14.2457 33.1695 14.0427C32.8043 13.6056 32.9373 13.1444 33.2959 12.8178C32.9297 12.7771 32.5638 12.7347 32.1991 12.6823C32.2395 13.4367 32.2967 14.2876 32.0554 15.0081C32.019 15.1169 31.846 15.0712 31.8314 14.977C31.8007 14.7785 31.7932 14.5725 31.8016 14.3631C31.7354 14.6805 31.6659 14.9969 31.5999 15.3118C32.6323 14.5538 34.5333 14.8617 35.4456 15.8102Z" fill="#97B3B7"/>
<path d="M35.244 31.8366C34.4454 32.0492 32.935 32.2487 32.3642 31.5558C32.1036 31.6231 31.8296 31.6581 31.5448 31.6519C31.2484 31.6452 30.9339 31.6021 30.6353 31.5202C30.5927 32.0464 30.4678 32.6394 30.2295 33.1452C32.8976 33.8218 35.8043 33.2819 37.0326 30.9603C36.5583 31.3395 35.9748 31.6421 35.244 31.8366Z" fill="#97B3B7"/>
<path d="M1.71743 10.4302C1.48181 10.4302 1.29668 10.5942 1.29668 10.7905V10.8266C1.29668 11.023 1.48181 11.1868 1.71743 11.1868C1.95305 11.1868 2.13818 11.023 2.13818 10.8266V10.7905C2.13818 10.5941 1.95305 10.4302 1.71743 10.4302Z" fill="white"/>
<path d="M15.7705 6.17926C15.2656 6.17926 15.2656 6.89975 15.7705 6.89975C16.2754 6.89975 16.2754 6.17926 15.7705 6.17926Z" fill="white"/>
<path d="M16.7803 5.2066C16.2754 5.2066 16.2754 5.92709 16.7803 5.92709C17.6218 5.92709 17.6218 5.2066 16.7803 5.2066Z" fill="white"/>
<path d="M23.0074 5.7829C22.5025 5.7829 22.5025 6.50338 23.0074 6.50338C23.8489 6.50338 23.8489 5.7829 23.0074 5.7829Z" fill="white"/>
<path d="M8.19699 4.6662C7.69209 4.6662 7.69209 5.38668 8.19699 5.38668C8.70189 5.38668 8.70189 4.6662 8.19699 4.6662Z" fill="white"/>
<path d="M10.8898 6.82764C10.2166 6.82764 10.2166 7.54812 10.8898 7.54812C11.3947 7.54826 11.3947 6.82764 10.8898 6.82764Z" fill="white"/>
<path d="M26.3734 3.9816C25.8157 3.9816 25.8157 4.70208 26.3734 4.70208C26.931 4.70208 26.931 3.9816 26.3734 3.9816Z" fill="white"/>
<path d="M7.43963 15.5457C7.20401 15.5457 7.01888 15.7097 7.01888 15.906V15.9781C7.01888 16.1745 7.20401 16.3383 7.43963 16.3383C7.67525 16.3383 7.86038 16.1745 7.86038 15.9781V15.906C7.86038 15.7097 7.67525 15.5457 7.43963 15.5457Z" fill="white"/>
<path d="M10.2921 15.9781C10.0565 15.9776 9.85995 16.1425 9.85995 16.3383C9.85995 16.4548 9.9298 16.5585 10.035 16.6247C10.1144 16.7123 10.2388 16.7706 10.3787 16.7706C10.6136 16.7706 10.8115 16.6069 10.8109 16.4104C10.8098 16.1504 10.6045 15.979 10.2921 15.9781Z" fill="white"/>
<path d="M13.4025 16.7725C13.3231 16.6849 13.1987 16.6265 13.0588 16.6265C12.8237 16.6265 12.626 16.7903 12.6266 16.9868C12.6277 17.2469 12.8333 17.4183 13.1454 17.4191C13.3811 17.4197 13.5777 17.2547 13.5777 17.0589C13.5777 16.9424 13.5077 16.8387 13.4025 16.7725Z" fill="white"/>
<path d="M15.0132 16.0502C14.7775 16.0502 14.5924 16.214 14.5924 16.4104V16.4825C14.5924 16.679 14.7775 16.8428 15.0132 16.8428C15.2489 16.8428 15.4339 16.679 15.4339 16.4825V16.4104C15.4339 16.214 15.2489 16.0502 15.0132 16.0502Z" fill="white"/>
<path d="M23.1343 17.0923C23.1055 17.0683 23.0766 17.0442 23.0478 17.0202C22.8813 16.8815 22.6031 16.8815 22.4364 17.0202C22.2699 17.1589 22.2699 17.3909 22.4364 17.5296C22.4651 17.5537 22.4941 17.5778 22.523 17.6017C22.6895 17.7405 22.9677 17.7405 23.1343 17.6017C23.3008 17.463 23.3008 17.231 23.1343 17.0923Z" fill="white"/>
<path d="M21.2403 16.1942C21.0046 16.1942 20.8195 16.358 20.8195 16.5544V16.6265C20.8195 16.823 21.0046 16.9868 21.2403 16.9868C21.4759 16.9868 21.661 16.823 21.661 16.6265V16.5544C21.661 16.358 21.4759 16.1942 21.2403 16.1942Z" fill="white"/>
<path d="M11.0739 17.8593C10.9948 17.7668 10.867 17.7035 10.7245 17.7073C10.5846 17.7109 10.4507 17.7379 10.3487 17.823C10.2159 17.9334 10.1666 18.1353 10.2785 18.2698C10.4044 18.4215 10.5947 18.49 10.811 18.4999C11.0465 18.5104 11.2432 18.3279 11.2432 18.1395C11.2432 18.0209 11.1755 17.9233 11.0739 17.8593Z" fill="white"/>
<path d="M26.3734 16.1356H26.2869C26.0513 16.1356 25.8547 16.36 25.8547 16.5564C25.8547 16.7527 26.0513 16.9771 26.2869 16.9771H26.3734C26.6091 16.9771 26.8056 16.7527 26.8056 16.5564C26.8056 16.36 26.6091 16.1356 26.3734 16.1356Z" fill="white"/>
<path d="M17.9005 17.4191C17.7607 17.4191 17.6363 17.4773 17.5568 17.5649C17.4517 17.6311 17.3816 17.7348 17.3816 17.8513C17.3816 18.0473 17.5782 18.2121 17.814 18.2115C18.1262 18.2107 18.3317 18.0394 18.3327 17.7792C18.3334 17.5829 18.1356 17.4191 17.9005 17.4191Z" fill="white"/>
<path d="M2.14221 10.5724C2.10822 10.557 2.07085 10.5888 2.07809 10.6174C2.10872 10.7379 2.12521 10.8274 2.05705 10.9427C1.9862 11.0632 1.85829 11.1048 1.70362 11.0806C1.31148 11.0189 1.46884 10.6316 1.7154 10.5107C1.74166 10.4978 1.74435 10.4514 1.70598 10.4494C1.44562 10.4351 1.29802 10.587 1.2413 10.7873C1.1792 11.0066 1.36837 11.21 1.60365 11.2849C1.85391 11.3647 2.12353 11.2818 2.25783 11.0918C2.36437 10.9407 2.34434 10.665 2.14221 10.5724Z" fill="#231405"/>
<path d="M2.09205 6.9575C2.10299 6.64866 2.14944 6.35651 2.29839 6.07096C2.33289 6.00462 2.22703 5.93743 2.17014 5.99985C1.9219 6.2718 1.80291 6.61696 1.89716 6.95385C1.9219 7.04249 2.08801 7.06844 2.09205 6.9575Z" fill="#231405"/>
<path d="M2.5702 6.38851C2.45474 6.59272 2.37144 6.82106 2.34451 7.04588C2.33239 7.14799 2.49699 7.20718 2.54748 7.10044C2.64711 6.88894 2.69558 6.65219 2.70568 6.4254C2.70871 6.35626 2.60992 6.31811 2.5702 6.38851Z" fill="#231405"/>
<path d="M16.6648 6.05049C16.8576 6.13689 17.0901 6.06985 17.2106 5.92763C17.3286 5.78836 17.3244 5.52721 17.111 5.45217C17.0262 5.4223 16.9557 5.48457 16.9637 5.55442C16.9762 5.66494 16.9718 5.79509 16.7995 5.77419C16.731 5.76592 16.7009 5.72721 16.694 5.67447C16.6896 5.64137 16.7211 5.60575 16.7414 5.58036C16.7559 5.56213 16.7705 5.54376 16.7823 5.52426L16.7923 5.50799C16.7911 5.48709 16.7956 5.48274 16.8059 5.49495C16.8422 5.47812 16.8451 5.41234 16.7929 5.4108C16.7167 5.40869 16.6566 5.38303 16.5787 5.42959C16.5036 5.47447 16.4511 5.54305 16.4232 5.61557C16.3545 5.79481 16.4764 5.96592 16.6648 6.05049Z" fill="#231405"/>
<path d="M15.4992 6.96945C15.7281 7.08698 16.0319 7.01742 16.1852 6.84435C16.3203 6.69203 16.3579 6.39778 16.1315 6.29231C16.0529 6.25556 15.98 6.31629 15.9661 6.37702C15.9474 6.45893 15.972 6.53761 15.9151 6.61265C15.8605 6.68474 15.7661 6.71742 15.668 6.68909C15.5643 6.65935 15.4999 6.58277 15.5135 6.49287C15.5298 6.38838 15.6582 6.32527 15.7606 6.28655C15.836 6.25808 15.8136 6.16313 15.7395 6.1477C15.5111 6.10002 15.3127 6.25219 15.2301 6.41741C15.1197 6.63789 15.2762 6.85557 15.4992 6.96945Z" fill="#231405"/>
<path d="M27.2287 6.14184C27.3063 6.2173 27.3793 6.28897 27.4879 6.33231C27.5986 6.37663 27.6951 6.26667 27.6518 6.18224C27.5714 6.026 27.3788 5.87859 27.2025 5.79458C27.1064 5.74871 27.0089 5.85895 27.0532 5.93146C27.1005 6.00846 27.1611 6.07621 27.2287 6.14184Z" fill="#231405"/>
<path d="M26.8718 6.66045C26.9369 6.71263 27.0061 6.63507 26.9843 6.58051C26.9495 6.49187 26.8766 6.41838 26.8142 6.34152C26.7475 6.25975 26.6375 6.3561 26.6888 6.43044C26.7442 6.51094 26.7908 6.59566 26.8718 6.66045Z" fill="#231405"/>
<path d="M9.6013 3.9461C9.80965 3.89869 10.0032 3.8259 10.2173 3.79014C10.428 3.75493 10.6515 3.74315 10.8664 3.74483C11.0056 3.74596 10.9898 3.54946 10.8652 3.53095C10.4238 3.46573 9.87277 3.52478 9.52775 3.78579C9.46548 3.83291 9.49628 3.96994 9.6013 3.9461Z" fill="#231405"/>
<path d="M10.4356 4.08274C10.3585 4.09845 10.3714 4.2014 10.4529 4.19663C10.617 4.18751 10.7713 4.16984 10.931 4.13814C11.0128 4.12187 10.9989 4.01219 10.9127 4.01752C10.7484 4.02762 10.5951 4.05006 10.4356 4.08274Z" fill="#231405"/>
<path d="M16.0538 36.3267C12.7356 35.9572 9.36333 35.6274 6.18481 34.7107C6.1567 34.7025 6.14324 34.7382 6.16865 34.7478C9.3024 35.9397 12.5716 36.8007 16.0553 36.6644C16.2734 36.6559 16.2591 36.3497 16.0538 36.3267Z" fill="#231405"/>
<path d="M20.5146 36.1701C19.363 36.1784 18.1237 36.2134 16.9978 36.4244C16.8971 36.4433 16.8855 36.5904 16.9989 36.5981C18.1612 36.6781 19.4029 36.5712 20.5565 36.4447C20.7557 36.423 20.7061 36.1687 20.5146 36.1701Z" fill="#231405"/>
<path d="M39.121 14.9852C38.5516 13.9304 37.5767 13.1016 36.2794 12.6842C34.8672 12.2301 33.0965 12.2016 31.5485 12.2774C31.5646 11.7311 31.5727 11.1846 31.5675 10.6379C31.5572 9.51015 31.582 8.2574 31.0682 7.19217C32.0891 6.83368 32.5672 6.08683 31.8432 5.14474C31.26 4.38583 30.076 4.07587 28.8979 4.03435C28.8979 4.03379 28.8979 4.03309 28.8979 4.03253C28.7296 3.06001 27.4398 2.46141 26.3924 2.22087C25.501 2.0161 24.5329 2.18356 23.7649 2.60741C23.4862 2.00193 22.6592 1.62213 21.9646 1.40221C20.7264 1.01034 19.3792 1.64274 18.2139 1.17794C17.7522 0.993789 17.3995 0.645679 16.9617 0.426883C16.4238 0.158156 15.889 0.0387993 15.2654 0.0056994C14.1856 -0.0516645 13.0705 0.33151 12.1763 0.816228C11.2516 0.0808764 9.56578 0.160822 8.4316 0.427585C7.80149 0.575693 7.04481 0.954938 6.69457 1.47079C5.32798 0.974012 2.47697 2.36533 2.6902 3.72622C1.6523 4.03618 0.939377 5.00393 0.570968 5.81754C0.252712 6.5205 0.0844114 7.72892 0.844792 8.28222C-0.0402991 9.27186 -0.13842 10.7466 0.134395 11.9102C0.271728 12.4964 0.568779 13.0431 0.919012 13.5601C1.23306 14.0239 1.51665 14.4555 1.62268 14.9859C1.71575 15.4507 1.48568 15.9489 1.35777 16.3913C1.14319 17.1342 0.947961 18.7801 2.48252 18.4808C2.53571 18.4706 2.58519 18.4555 2.63298 18.4389C2.48387 19.452 2.63551 20.5533 2.68819 21.527C2.76863 23.0134 2.91135 24.4974 3.09615 25.9772C3.28094 27.4577 3.5307 28.9311 3.82489 30.3991C4.08979 31.7196 4.36597 33.1016 4.89477 34.3725C4.23958 35.4366 4.33551 37.0138 5.32309 37.9134C5.27614 37.9398 5.26739 38.0159 5.31603 38.0465C6.82164 38.994 8.69061 39.3782 10.5195 39.6657C12.4886 39.9753 14.5103 40.0305 16.5087 39.9869C18.7432 39.9381 20.9691 39.7071 23.1813 39.452C24.2232 39.3318 25.2692 39.2192 26.3037 39.0602C27.0707 38.9427 28.0556 38.7882 28.5416 38.2409C28.5741 38.2041 28.584 38.1601 28.5795 38.117C29.1605 37.2835 29.2419 35.7446 28.5078 35.0118C28.8895 34.558 29.1022 33.9974 29.2714 33.454C32.0339 34.4439 35.3156 34.2117 37.1175 31.9823C37.9124 30.9987 38.2319 29.7816 38.4777 28.6325C38.8172 27.0462 39.0574 25.4422 39.342 23.8486C39.8573 20.9587 40.6204 17.7642 39.121 14.9852ZM29.9281 33.0633C29.868 33.0459 29.8083 33.0274 29.7484 33.0087C29.9759 32.5452 30.2571 32.0679 30.3091 31.5757C30.3199 31.4748 30.2344 31.3962 30.1375 31.3864C30.1423 31.3724 30.1479 31.3585 30.1529 31.3443C30.2507 31.3907 30.3534 31.431 30.4593 31.4665C30.3539 31.8129 30.2637 32.1623 30.143 32.5058C30.0779 32.6937 29.9983 32.8773 29.9281 33.0633ZM29.8603 30.3235C29.8845 30.0844 29.9079 29.8453 29.9318 29.6073C30.1881 27.0683 30.4443 24.5295 30.7006 21.9905C30.8972 20.0427 31.1117 18.0954 31.2886 16.1458C31.8513 15.4052 32.9291 15.2129 33.9097 15.5352C34.8569 15.8465 35.3987 16.6613 35.6917 17.4223C36.0305 18.3028 35.9793 19.3203 35.9677 20.2312C35.9544 21.2546 35.8571 22.2768 35.7223 23.2935C35.4802 25.1197 35.1456 27.0338 34.4518 28.782C33.7664 30.5108 31.6279 31.8293 29.8603 30.3235ZM32.0864 12.6671C32.0719 12.7315 32.0573 12.7956 32.0423 12.8614C32.0483 12.795 32.0531 12.7288 32.0573 12.6625C32.067 12.664 32.0766 12.6656 32.0864 12.6671ZM1.69909 17.6505C1.42543 17.1621 1.70228 16.4531 1.82952 15.9557C1.95709 15.4579 2.04595 14.9722 1.96651 14.4657C1.90222 14.0565 1.63075 13.6678 1.40388 13.3105C1.05634 12.7629 0.794133 12.2329 0.653939 11.6201C0.381966 10.432 0.789758 9.43301 1.20714 8.32065C1.24215 8.22781 1.1686 8.13945 1.07856 8.12696C0.721932 7.37745 0.86196 6.57253 1.20108 5.82975C1.57185 5.01725 2.32886 4.59551 3.0438 4.0258C3.15135 3.94024 3.1399 3.81892 3.06316 3.74487C3.12408 3.49774 3.43123 3.17109 3.54652 3.0349C3.79005 2.7478 4.15391 2.53125 4.51239 2.3565C5.1309 2.05523 5.81975 1.9147 6.52274 1.86575C6.49497 1.99576 6.4911 2.13097 6.52375 2.2715C6.53267 2.30909 6.58619 2.32129 6.60689 2.28342C7.09664 1.38033 8.00496 1.01202 9.14082 0.854516C10.2184 0.705286 11.0413 1.07401 12.0618 1.20038C12.1499 1.21118 12.2125 1.18439 12.2515 1.14106C13.1602 0.92815 14.0205 0.631794 14.9738 0.574991C16.2406 0.499815 16.9846 1.20599 17.9717 1.70404C18.7905 2.11694 19.767 1.85481 20.6404 1.77094C21.1849 1.71876 21.7334 1.86897 22.2179 2.05705C22.7046 2.24598 22.9929 2.59801 23.3913 2.86169C23.2392 2.9767 23.0996 3.10251 22.979 3.24024C22.9288 3.29704 23.0003 3.42299 23.0922 3.37614C24.0238 2.90068 24.9875 2.62396 26.0919 2.74654C27.1678 2.8659 27.7001 3.46717 28.3844 4.03267C28.1576 4.04235 27.9388 4.06128 27.7361 4.09003C27.6783 4.09845 27.6892 4.16409 27.7368 4.17699C28.5948 4.40687 29.4792 4.49032 30.3079 4.80898C30.9069 5.03913 31.9591 5.63844 31.4608 6.35373C31.2629 6.63747 30.7775 6.82625 30.4473 6.98586C30.419 6.99946 30.397 7.01924 30.3798 7.0421C30.3566 7.04743 30.334 7.05388 30.3101 7.05739C30.3 7.05879 30.2903 7.05991 30.2802 7.06117C30.0574 6.82288 29.7024 6.66748 29.3301 6.70128C29.2774 6.70605 29.2901 6.76706 29.3306 6.77814C30.1413 6.99848 29.9576 7.78236 29.3175 8.10102C28.7057 8.40565 27.8622 8.15529 27.2498 7.99625C26.2886 7.74674 25.5743 7.80101 24.5899 7.88979C23.466 7.9912 22.3324 8.05992 21.2012 8.04253C20.4033 8.03033 19.5982 7.86553 18.8024 7.83972C19.0537 7.70227 19.2942 7.55206 19.5202 7.38853C19.6069 7.32583 19.5281 7.16244 19.4105 7.21643C17.148 8.2588 14.7294 8.38882 12.3067 7.79975C12.526 7.49526 12.6664 7.17913 12.6723 6.94154C12.6751 6.83607 12.5472 6.76482 12.453 6.85388C11.9521 7.32696 11.6461 7.97212 10.9623 8.30116C10.1701 8.68251 9.32006 7.39919 9.16539 6.93172C9.15193 6.89105 9.0841 6.90227 9.07922 6.94084C9.03664 7.28179 9.14637 7.6616 9.36517 7.98881C8.76753 8.61841 8.56237 9.62754 8.34661 10.3799C8.16922 10.9971 8.08995 12.0736 6.99852 11.7213C5.97963 11.3926 6.21138 10.1988 6.28207 9.52501C6.29015 9.44731 6.15214 9.39248 6.12185 9.48154C5.95271 9.9786 5.83557 10.9426 6.13582 11.6076C5.97644 11.668 5.78929 11.7242 5.66373 11.6025C5.4882 11.4323 5.38991 11.1452 5.30239 10.9353C5.11474 10.4855 5.19889 9.97383 5.3034 9.51828C5.30862 9.4957 5.26671 9.48154 5.25847 9.50594C5.04843 10.141 4.95603 11.037 5.20848 11.6748C5.30828 11.927 5.52405 12.057 5.74991 12.074C5.7048 12.7126 5.60096 13.3436 5.46783 13.9743C5.35709 14.4983 4.98279 14.8678 4.29899 14.7944C3.70943 14.7311 3.58253 14.2472 3.4388 13.8565C3.39892 13.7478 3.21395 13.7746 3.20116 13.8816C3.15522 14.268 3.12274 14.8143 3.52329 15.0937C3.61434 15.1573 3.73468 15.2118 3.86881 15.2555C3.69075 15.5516 3.5588 15.8646 3.41827 16.177C3.30989 16.4181 3.20487 16.6599 3.10018 16.9019C3.02277 17.0812 2.30211 18.7271 1.69909 17.6505ZM25.9311 38.5121C24.9915 38.657 24.0372 38.7514 23.0907 38.8628C20.9873 39.1106 18.8768 39.3145 16.7535 39.3929C14.7982 39.4653 12.8409 39.3862 10.9073 39.1321C9.13392 38.8992 7.46859 38.3841 5.7494 37.9908C5.7701 37.9494 5.77818 37.9022 5.76387 37.8593C5.57285 37.29 5.27967 36.7765 5.16018 36.1846C5.05634 35.6705 5.07855 35.1338 5.12803 34.609C5.20007 34.5937 5.26369 34.5362 5.2551 34.4566C5.10902 33.0777 4.729 31.6979 4.45854 30.332C4.16788 28.8641 3.93596 27.3875 3.74309 25.9086C3.56217 24.5218 3.43628 23.1301 3.34725 21.7373C3.27236 20.5658 3.40178 19.2651 3.11954 18.0926C3.30686 17.8675 3.42214 17.586 3.51033 17.3442C3.74848 16.692 4.04553 16.0101 4.16603 15.3276C4.48025 15.3838 4.81718 15.382 5.04927 15.2888C6.42294 14.7385 5.99613 13.0824 6.07691 12.0176C6.15534 11.9828 6.22704 11.9321 6.2883 11.8668C6.52812 12.1866 6.91673 12.3774 7.52211 12.2994C8.267 12.2034 8.57819 11.8374 8.70021 11.2433C8.9153 10.1956 9.1457 9.18658 9.50569 8.17086C9.78726 8.50032 10.1861 8.74801 10.6503 8.79598C11.0717 8.83959 11.5165 8.60579 11.8818 8.27521C13.8988 9.12319 16.3925 8.96975 18.3436 8.07044C19.41 8.62865 20.9296 8.65221 22.1482 8.59471C22.9998 8.55446 23.8102 8.34211 24.6339 8.17774C25.5136 8.00228 26.4283 8.4344 27.2609 8.65152C26.3213 8.79527 25.3756 9.0173 24.5184 9.24086C24.4816 9.2504 24.5009 9.30033 24.5361 9.29906C25.1773 9.2762 25.8591 9.23721 26.5397 9.16975C26.6067 9.94704 26.6964 10.7215 26.7321 11.5009C26.7691 12.3088 26.6925 13.1253 26.777 13.9295C26.7858 14.0119 26.915 14.0108 26.9318 13.9326C27.2535 12.4301 27.0158 10.6514 26.6412 9.15979C27.3258 9.08897 28.0046 8.98546 28.6386 8.83595C29.3547 8.8236 30.0011 8.59724 30.4014 7.97619C30.5395 7.76188 30.5421 7.53383 30.4569 7.3299C30.4845 7.33733 30.5165 7.3393 30.5535 7.33201C30.6577 7.31125 30.7573 7.28614 30.8546 7.25879C30.6977 8.29934 30.8916 9.38308 30.9132 10.4252C30.9404 11.7155 30.8812 13.0046 30.7884 14.2924C30.6126 16.7381 30.3258 19.1794 30.0796 21.6207C29.8328 24.0653 29.5861 26.5102 29.339 28.9551C29.2285 30.0512 29.133 31.1484 28.9191 32.2346C28.8761 32.4525 28.8148 32.6637 28.7461 32.8721C28.7076 32.9234 28.6865 32.9861 28.687 33.0497C28.4684 33.6591 28.1786 34.2431 27.9662 34.8533C27.1163 34.9554 26.2413 35.3358 25.4262 35.5404C24.2288 35.8413 23.0221 35.958 21.8037 36.1616C21.7684 36.1677 21.7659 36.2188 21.8041 36.2218C22.9337 36.3058 24.1376 36.1752 25.252 36.0191C26.0981 35.9005 27.1897 35.7646 27.9844 35.3951C28.0361 35.4103 28.0931 35.4058 28.1392 35.3699C28.2047 35.7103 28.3217 36.0497 28.3461 36.3956C28.3866 36.9637 28.1413 37.4595 28.0165 37.9932C27.3204 38.1204 26.6414 38.4027 25.9311 38.5121ZM38.7533 23.4817C38.5188 24.7929 38.2844 26.1043 38.0499 27.4157C37.8468 28.5521 37.6359 29.6855 37.1325 30.7614C35.9679 33.2514 32.9721 33.8408 30.2294 33.1452C30.4677 32.6396 30.5925 32.0464 30.6351 31.5202C30.9337 31.6021 31.2482 31.6452 31.5446 31.6519C32.678 31.6773 33.6366 31.0475 34.2957 30.3391C35.1079 29.4662 35.3745 28.2979 35.6454 27.2447C36.0206 25.7872 36.301 24.3137 36.4831 22.8309C36.6419 21.5344 36.6963 20.2262 36.6423 18.9237C36.5962 17.8056 36.2988 16.6973 35.4458 15.8104C34.5335 14.8618 32.6325 14.554 31.6 15.3122C31.6661 14.9973 31.7356 14.6809 31.8016 14.3635C31.7932 14.5729 31.8008 14.7788 31.8314 14.9774C31.846 15.0716 32.0191 15.1175 32.0554 15.0085C32.2969 14.2879 32.2397 13.4371 32.1991 12.6827C33.2113 12.8281 34.2324 12.9027 35.2506 13.0496C36.8811 13.2849 37.9638 14.1756 38.6223 15.3976C39.9625 17.8856 39.2149 20.8995 38.7533 23.4817Z" fill="#231405"/>
<path d="M34.024 14.4756C33.8639 14.4603 33.8466 14.6632 33.9934 14.6922C35.4285 14.9747 36.2735 15.939 36.7345 17.0498C37.2723 18.3454 36.8457 19.6533 36.911 20.9687C36.9161 21.0721 37.0982 21.1028 37.1389 21.0003C38.0381 18.7268 37.6256 14.8186 34.024 14.4756Z" fill="#231405"/>
<path d="M36.9911 21.9268C36.9696 22.0002 36.9489 22.0703 36.9408 22.1456C36.932 22.2344 37.0584 22.2728 37.1083 22.1909C37.1448 22.1316 37.1688 22.0716 37.1936 22.0083C37.2394 21.8909 37.0273 21.8026 36.9911 21.9268Z" fill="#231405"/>
<path d="M11.0877 9.41171C15.0074 10.2271 19.4741 10.0947 23.4366 9.54762C23.5404 9.53331 23.5174 9.3967 23.4139 9.40035C21.3973 9.47006 19.409 9.51802 17.3889 9.50414C15.2877 9.48969 13.1874 9.34649 11.0874 9.35491C11.0495 9.35519 11.0566 9.4054 11.0877 9.41171Z" fill="#231405"/>
<path d="M7.00793 14.5044C7.58419 14.6635 8.17139 14.7984 8.76566 14.9164C8.67512 15.8778 8.71332 16.8443 8.92033 17.8461C8.93548 17.9193 9.06524 17.9322 9.0713 17.8492C9.13862 16.9054 9.18052 15.9554 9.23438 15.0058C12.1608 15.5352 15.2528 15.6289 18.1997 15.6318C20.1776 15.6338 22.1531 15.5288 24.1189 15.3504C25.9722 15.1823 27.8982 14.9899 29.6543 14.4441C29.7899 14.4021 29.7246 14.22 29.5883 14.2272C27.7304 14.3244 25.8892 14.6563 24.0394 14.8305C22.1837 15.0054 20.3163 15.0873 18.4497 15.1082C15.3523 15.1432 12.319 14.8158 9.26097 14.5645C9.31196 13.737 9.37508 12.9106 9.47707 12.09C9.4838 12.0374 9.38854 12.0008 9.36969 12.0607C9.10933 12.895 8.91511 13.7113 8.80942 14.5283C8.2197 14.4816 7.6293 14.4381 7.03705 14.4016C6.97124 14.3977 6.94297 14.4863 7.00793 14.5044Z" fill="#231405"/>
<path d="M29.5731 13.4769C29.5787 13.5803 29.7359 13.5699 29.7605 13.4806C30.0967 12.2664 29.9114 10.8424 29.7591 9.61432C29.7482 9.52596 29.6056 9.54307 29.612 9.62989C29.7069 10.9171 29.5041 12.1991 29.5731 13.4769Z" fill="#231405"/>
<path d="M29.3991 15.4673C29.1992 18.5543 28.9964 21.6381 28.6483 24.7166C28.4687 26.3039 28.2444 27.8871 27.9886 29.467C27.7338 31.0405 27.3081 32.6177 27.1717 34.201C27.1617 34.3139 27.3618 34.395 27.4064 34.2639C27.9009 32.8212 28.0811 31.2832 28.3311 29.8003C28.5972 28.2216 28.8185 26.6378 29.008 25.0518C29.3885 21.8721 29.6095 18.6668 29.5464 15.4705C29.5452 15.3944 29.4042 15.3899 29.3991 15.4673Z" fill="#231405"/>
<path d="M23.4378 32.7865C23.5679 31.6439 23.4044 30.4572 23.3821 29.3099C23.3545 27.8977 23.3666 26.4849 23.4028 25.0731C23.4331 23.8993 23.4682 22.7233 23.6566 21.5586C23.8494 20.3682 24.4531 19.4038 24.9148 18.2931C24.9383 18.2372 24.8663 18.1642 24.7997 18.2099C23.9046 18.8237 23.5818 19.892 23.3344 20.7952C23.0103 21.9815 22.9973 23.2263 22.9574 24.4367C22.9127 25.7904 22.9053 27.1448 22.9207 28.4987C22.9371 29.8982 22.8337 31.4031 23.1466 32.7811C23.1784 32.9209 23.4196 32.9449 23.4378 32.7865Z" fill="#F9DA55"/>
<path d="M26.8096 18.2529C26.352 17.8997 25.674 17.8649 25.167 18.1391C25.1002 18.1754 25.1492 18.2826 25.228 18.2721C27.4386 17.9788 27.1452 20.4084 27.074 21.5469C26.979 23.0682 26.8842 24.5893 26.7889 26.1107C26.6942 27.6319 26.5994 29.1533 26.5042 30.6744C26.4594 31.3928 26.4007 32.1057 25.9559 32.7418C25.4737 33.4309 24.3062 33.7512 23.5651 33.1489C23.4428 33.0492 23.2876 33.2201 23.3799 33.3191C24.3094 34.3166 25.9316 33.8278 26.5175 32.7968C26.9865 31.9731 26.9867 31.067 27.0416 30.1732C27.1119 29.0319 27.1823 27.891 27.2528 26.75C27.3861 24.5834 27.6527 22.3908 27.6436 20.2213C27.6405 19.4644 27.4966 18.7834 26.8096 18.2529Z" fill="#F9DA55"/>
<path d="M20.5953 33.7171C20.0329 34.7044 18.486 34.9033 17.8655 33.8279C17.4946 33.1854 17.6356 32.278 17.6268 31.5903C17.606 29.8878 17.5859 28.1857 17.5629 26.4834C17.5402 24.8175 17.4033 23.1193 17.5737 21.458C17.6566 20.6467 17.9444 19.8672 18.5501 19.221C19.2067 18.5208 20.8961 18.1969 21.4377 19.2213C21.4552 19.2546 21.5171 19.2421 21.5062 19.2049C21.3192 18.5491 20.8272 18.1889 20.0133 18.1304C18.9902 18.0569 18.1728 18.8072 17.713 19.4708C17.1176 20.3309 17.028 21.3817 17.0031 22.3504C16.9696 23.6503 17.0258 24.9546 17.0413 26.2545C17.0571 27.5786 17.0746 28.9026 17.092 30.2266C17.1068 31.3397 16.8533 32.7429 17.3066 33.8115C17.9284 35.277 20.5123 35.519 20.8555 33.7867C20.8826 33.6495 20.6667 33.5919 20.5953 33.7171Z" fill="#F9DA55"/>
<path d="M21.7463 19.6016C21.7423 19.5638 21.6824 19.5637 21.675 19.6003C21.2256 21.8026 21.2539 24.1076 21.1487 26.3356C21.0472 28.4881 20.7448 30.7177 20.9811 32.8671C20.9957 33.0004 21.209 32.9999 21.2352 32.8718C21.6827 30.6732 21.5722 28.3482 21.6694 26.1238C21.7635 23.9692 21.983 21.7529 21.7463 19.6016Z" fill="#F9DA55"/>
<path d="M15.9677 26.5947C16.0293 25.2761 16.0913 23.9574 16.1531 22.6388C16.2027 21.5784 16.4051 20.4528 16.0163 19.4187C15.7616 18.7401 14.9154 18.1113 13.9585 18.1252C12.7746 18.1422 12.0446 18.6801 11.4641 19.4204C11.4067 19.4938 11.5292 19.5936 11.6047 19.5144C12.3322 18.7524 13.6889 18.2258 14.8279 18.8235C15.8525 19.3614 15.6757 20.6284 15.6376 21.4363C15.5536 23.2259 15.4697 25.0158 15.3858 26.8051C15.3081 28.4563 15.2474 30.1081 15.1702 31.7593C15.1354 32.5008 15.3066 33.4985 14.7928 34.1622C14.3761 34.7004 13.3586 34.5555 12.7746 34.3497C12.1778 34.1394 11.7865 33.768 11.4348 33.3554C11.3638 33.2725 11.2065 33.3574 11.2614 33.4402C11.7325 34.1525 12.328 34.7941 13.3899 34.9693C14.3315 35.1244 15.1617 34.6739 15.4891 34.0258C15.705 33.5991 15.6469 33.0649 15.6681 32.6174C15.6969 32.0028 15.7255 31.3883 15.7547 30.7734C15.8201 29.3806 15.9022 27.9878 15.9677 26.5947Z" fill="#F9DA55"/>
<path d="M11.2754 19.9706C11.2767 19.9027 11.1759 19.8818 11.1567 19.9533C10.5816 22.0985 10.5327 24.3881 10.502 26.5781C10.4877 27.6152 10.5243 28.6514 10.5852 29.6874C10.6508 30.794 10.6843 31.9537 11.0175 33.0304C11.0546 33.1494 11.2747 33.122 11.2799 33.0025C11.3217 32.0684 11.1619 31.124 11.0924 30.1923C11.0095 29.0834 10.9753 27.9736 10.9588 26.8631C10.9255 24.5573 11.2311 22.2709 11.2754 19.9706Z" fill="#F9DA55"/>
<path d="M5.72398 22.7702C5.81537 21.9775 5.90137 21.1874 6.0207 20.3969C6.13733 19.6236 6.24757 18.7846 6.94517 18.2691C7.04565 18.2529 7.15134 18.2445 7.26073 18.2466C7.87166 18.2568 8.35418 18.7661 8.59855 19.1714C8.98446 19.8112 8.92876 20.6511 8.96158 21.348C9.03041 22.8129 9.03664 24.2799 9.02435 25.7459C9.01257 27.137 8.97622 28.5276 8.94593 29.9185C8.9323 30.5587 8.91832 31.199 8.90469 31.8395C8.8919 32.4286 8.64315 34.1791 7.48946 33.4717C7.27773 33.3097 7.06466 33.1637 6.89333 32.9532C6.61109 32.607 6.5054 32.1599 6.41789 31.7565C6.27954 31.1189 6.2511 30.4646 6.14659 29.8226C5.81335 27.7806 5.71389 25.7166 5.64842 23.6584C5.6469 23.6101 5.56023 23.6079 5.55551 23.6564C5.33134 25.9423 5.54575 28.1684 5.84954 30.4411C5.97845 31.405 5.99814 33.523 7.50729 33.8107C7.82403 34.0236 8.24983 34.0557 8.63339 33.8462C9.50333 33.3708 9.39714 32.3954 9.41481 31.6346C9.46816 29.3233 9.53262 27.012 9.53161 24.7001C9.53127 23.6578 9.51108 22.6157 9.46984 21.5739C9.43467 20.6866 9.52959 19.5393 8.89459 18.7658C8.56758 18.3675 8.02667 17.9442 7.41456 17.9063C7.4011 17.8954 7.38292 17.8882 7.36054 17.8892C7.12879 17.9017 6.9238 17.9487 6.74102 18.0223C6.46232 18.1283 6.23932 18.2865 6.09542 18.4871C5.16439 19.5603 5.34295 21.7866 5.47726 22.7655C5.49442 22.8897 5.70884 22.9 5.72398 22.7702Z" fill="#F9DA55"/>
<path d="M5.04035 25.0556C4.82476 22.1336 4.83418 19.206 4.66672 16.2829C4.6647 16.2498 4.60563 16.2474 4.60243 16.2815C4.34813 19.1131 4.50078 21.9762 4.69719 24.8068C4.7953 26.2217 4.92103 27.6371 5.09303 29.0471C5.27479 30.5359 5.39917 32.084 5.77599 33.5479C5.8041 33.6568 5.97055 33.6403 5.96331 33.5279C5.87259 32.1164 5.57252 30.7074 5.43249 29.2966C5.2923 27.8836 5.14486 26.4715 5.04035 25.0556Z" fill="#231405"/>
<path d="M10.5498 18.4928C10.5577 18.4893 10.5656 18.4858 10.5732 18.4823C10.6808 18.4351 10.7538 18.3589 10.7691 18.2561C10.7898 18.1192 10.7048 18.0129 10.57 17.9447C10.5623 17.9411 10.5544 17.937 10.5468 17.9329C10.3428 17.8303 10.102 17.9976 10.0766 18.1659C10.0464 18.3659 10.2977 18.6042 10.5498 18.4928Z" fill="#231405"/>
<path d="M10.3139 16.314C10.2637 16.1606 10.0695 16.0942 9.89835 16.1451C9.63193 16.2242 9.75008 16.6102 10.0305 16.5754C10.0486 16.5735 10.1146 16.5618 10.1166 16.5609C10.2839 16.584 10.3492 16.4214 10.3139 16.314Z" fill="#231405"/>
<path d="M13.0324 16.6739C12.7219 16.6656 12.6711 17.0862 12.9707 17.0941C13.2813 17.1019 13.3323 16.6815 13.0324 16.6739Z" fill="#231405"/>
<path d="M14.6294 16.6325C14.6372 16.6291 14.6453 16.6256 14.653 16.6224C14.9339 16.5042 14.9048 16.1953 14.6498 16.0721C14.6417 16.0685 14.6341 16.0645 14.6262 16.0608C14.4164 15.9594 14.172 16.1237 14.1454 16.2986C14.1139 16.5068 14.3706 16.7412 14.6294 16.6325Z" fill="#231405"/>
<path d="M7.30803 15.6723C7.18854 15.6871 7.10843 15.8043 7.1229 15.9007C7.1468 16.0571 7.33513 16.1224 7.48727 16.0408C7.54769 16.0084 7.58438 15.9426 7.5928 15.8845C7.60626 15.7921 7.5482 15.7183 7.45681 15.6726C7.41087 15.6496 7.35533 15.6533 7.30803 15.6723Z" fill="#231405"/>
<path d="M22.6769 17.7063C22.8733 17.7112 23.0396 17.622 23.0662 17.4488C23.0877 17.306 22.967 17.1041 22.7694 17.099C22.573 17.0941 22.4068 17.1833 22.3802 17.3567C22.3586 17.4992 22.4791 17.7013 22.6769 17.7063Z" fill="#231405"/>
<path d="M21.4106 16.7964C21.6008 16.8011 21.6297 16.541 21.4476 16.5363C21.2571 16.5314 21.2282 16.7919 21.4106 16.7964Z" fill="#231405"/>
<path d="M22.6838 34.4699C22.5983 34.415 22.52 34.4082 22.4192 34.4372C22.3415 34.4594 22.2943 34.5333 22.2837 34.5965C22.2831 34.6006 22.2822 34.6049 22.2814 34.6089C22.2583 34.747 22.4204 34.8822 22.5857 34.8232C22.5921 34.8208 22.6028 34.8164 22.6139 34.8118C22.7742 34.7727 22.8278 34.5623 22.6838 34.4699Z" fill="#231405"/>
<path d="M17.0494 35.1168C17.1283 35.1283 17.1982 35.0602 17.1822 34.9961C17.1719 34.9555 17.1628 34.9211 17.1199 34.8959C17.0947 34.8813 17.0609 34.8699 17.0307 34.8838C16.9882 34.9037 16.9676 34.9249 16.9547 34.9644C16.9341 35.0266 16.9626 35.1044 17.0494 35.1168Z" fill="#231405"/>
<rect x="10.625" y="18.125" width="6.25" height="16.25" fill="#F9DA55"/>
<path d="M14.004 28.9584L10.625 26.6203V25.3819L14.004 23.0208V24.2708L11.5819 25.9954L14.004 27.72V28.9584Z" fill="black"/>
<path d="M15.0318 29.375L17.6075 20H18.7063L16.1188 29.375H15.0318Z" fill="black"/>
<path d="M19.734 28.9584V27.72L22.1679 25.9838L19.734 24.2708V23.0208L23.125 25.3703V26.6087L19.734 28.9584Z" fill="black"/>
</svg>
